<svg width="152" height="32" viewBox="0 0 152 32" fill="none" xmlns="http://www.w3.org/2000/svg">
<g id="sigma-new-logo 2" clip-path="url(#clip0_1782_1331)">
<g id="Clip path group">
<mask id="mask0_1782_1331" style="mask-type:luminance" maskUnits="userSpaceOnUse" x="0" y="0" width="152" height="32">
<g id="clip0_1013_1123">
<path id="Vector" d="M152 0H0V32H152V0Z" fill="white"/>
</g>
</mask>
<g mask="url(#mask0_1782_1331)">
<g id="Group">
<path id="Vector_2" d="M20.3191 31.7286C15.9187 31.7286 12.1654 30.8286 8.15332 28.4286V22.2571H8.32589C12.2086 26.8 16.1775 29.5857 20.5348 29.5857C24.3743 29.5857 27.2648 27.6571 27.2648 24.3571C27.2648 22.1286 25.7548 20.5 22.0447 18.9571L14.9265 15.9571C11.6046 14.5429 8.62787 12.2286 8.62787 8.28571C8.62787 4.25714 12.8126 0.271427 19.5425 0.271427C23.4252 0.271427 26.5313 1.42857 29.8532 3.18571V9.05714H29.6806C25.9705 4.85714 23.0369 2.41428 18.7229 2.41428C14.9265 2.41428 12.7694 4.81429 12.7694 7.08571C12.7694 9.1 13.7185 10.6857 16.9972 12.0143L24.2449 14.9714C29.2492 17.0286 31.5788 19.3 31.5788 22.9857C31.5788 28.2571 26.4451 31.7286 20.3191 31.7286ZM37.2735 6.95714C37.2735 4.81429 36.9283 2.92857 36.1949 1.17143V0.999997H42.7523V1.17143C42.019 2.92857 41.6739 4.81429 41.6739 6.95714V25.0429C41.6739 27.1857 42.019 29.0714 42.7523 30.8286V31H36.1949V30.8286C36.9283 29.0714 37.2735 27.1857 37.2735 25.0429V6.95714ZM63.2841 31.7286C54.052 31.7286 47.1926 24.7 47.1926 16C47.1926 7.3 54.3108 0.271427 63.0684 0.271427C67.4257 0.271427 71.0063 1.77143 73.8105 3.44286V9.57143H73.6379C70.2298 5.75714 67.3394 2.41428 62.2919 2.41428C56.4679 2.41428 52.2401 8.02857 52.2401 15.2286C52.2401 22.4714 56.5972 29.5857 64.2763 29.5857C66.606 29.5857 68.2454 28.8571 70.1004 27.4429V22.6429C70.1004 20.5 69.7553 18.6143 69.0219 16.8571V16.6857H75.5793V16.8571C74.8459 18.6143 74.5007 20.5 74.5007 22.6429V28.9C71.3515 30.4857 67.2962 31.7286 63.2841 31.7286ZM94.2695 31C93.9675 29.8429 93.4929 28.6 93.0183 27.4L84.0882 5.37143V25.0429C84.0882 27.1857 84.4333 29.0714 85.1667 30.8286V31H80.3349V30.8286C81.0683 29.0714 81.4134 27.1857 81.4134 25.0429V6.95714C81.4134 4.81429 81.0683 2.92857 80.3349 1.17143V0.999997H87.0218C87.1081 1.55714 87.3238 2.15714 87.5394 2.71428L96.6854 25.5143L105.529 2.71428C105.745 2.15714 105.961 1.55714 106.047 0.999997H112.561V1.17143C111.827 2.92857 111.483 4.81429 111.483 6.95714V25.0429C111.483 27.1857 111.827 29.0714 112.561 30.8286V31H106.09V30.8286C106.823 29.0714 107.169 27.1857 107.169 25.0429V5.28571L98.6698 27.4C98.1953 28.6 97.7639 29.8429 97.505 31H94.2695ZM115.455 30.8286C116.534 29.4143 117.656 27.2286 118.777 24.3571L126.37 4.72857C127.061 2.97143 126.5 1.9 125.983 1.17143V0.999997H131.849C131.936 1.6 132.324 2.8 132.842 4.08571L140.65 24.3571C141.771 27.2286 142.894 29.4143 143.972 30.8286V31H136.724V30.8286C137.328 28.6429 137.285 27.4 136.12 24.4L135.128 21.7857H122.401L121.409 24.4C120.245 27.4 120.201 28.6429 120.805 30.8286V31H115.455V30.8286ZM123.265 19.6429H134.265L128.743 5.37143L123.265 19.6429Z" fill="#333333"/>
</g>
</g>
</g>
</g>
<defs>
<clipPath id="clip0_1782_1331">
<rect width="152" height="32" fill="white"/>
</clipPath>
</defs>
</svg>
