<svg width="80" height="80" viewBox="0 0 80 80" fill="none" xmlns="http://www.w3.org/2000/svg">
<g clip-path="url(#clip0_269_4915)">
<path d="M23.3516 59.4962H56.1683V47.6677H52.4537V55.7815H31.2347L31.5269 55.5431C36.1568 51.8515 38.8101 46.2295 38.8101 40.1153C38.8101 34.0011 36.1645 28.3714 31.5654 24.6721L31.2731 24.4414H52.4537V32.5552H56.1683V20.7344H23.3516V24.749L23.6746 24.8259C30.2964 26.4025 35.1031 32.8397 35.1031 40.1153C35.1031 47.3908 30.2964 53.7588 23.6746 55.3662L23.3516 55.4508V59.4885V59.4962Z" fill="black"/>
<path d="M40 0C17.9427 0 0 17.9427 0 40C0 62.0573 17.9427 80 40 80C62.0573 80 80 62.0573 80 40C80 17.9427 62.0573 0 40 0ZM40 76.293C19.9885 76.293 3.70698 60.0115 3.70698 40C3.70698 19.9885 19.9962 3.70698 40 3.70698C60.0038 3.70698 76.293 19.9885 76.293 40C76.293 60.0115 60.0115 76.293 40 76.293Z" fill="black"/>
</g>
<defs>
<clipPath id="clip0_269_4915">
<rect width="80" height="80" fill="white"/>
</clipPath>
</defs>
</svg>
