<?xml version="1.0" standalone="no"?>
<!DOCTYPE svg PUBLIC "-//W3C//DTD SVG 1.1//EN" "http://www.w3.org/Graphics/SVG/1.1/DTD/svg11.dtd" >
<svg xmlns="http://www.w3.org/2000/svg" xmlns:xlink="http://www.w3.org/1999/xlink" version="1.1">
<metadata>
Created by FontForge 20201107 at Mon Mar 17 10:12:54 2025
 By 
Copyright (c) 2024 by SIGMA. All rights reserved. Designed for SIGMA by Letters from Sweden + Stockholm Design Lab.
</metadata>
<defs>
<font id="SigmaSans-RegularItalic" horiz-adv-x="0" >
  <font-face 
    font-family="Sigma Sans"
    font-weight="400"
    font-style="italic"
    font-stretch="normal"
    units-per-em="2048"
    panose-1="0 0 0 0 0 0 0 0 0 0"
    ascent="1638"
    descent="-410"
    x-height="965"
    cap-height="1434"
    bbox="-465 -518 2421 1917"
    underline-thickness="120"
    underline-position="-386"
    slope="-12"
    unicode-range="U+0020-FB02"
  />
<missing-glyph horiz-adv-x="1171" 
d="M1217 1636l-394 -1839h-766l394 1839h766z" />
    <glyph glyph-name=".notdef" horiz-adv-x="1171" 
d="M1217 1636l-394 -1839h-766l394 1839h766z" />
    <glyph glyph-name=".null" 
 />
    <glyph glyph-name="nonmarkingreturn" horiz-adv-x="682" 
 />
    <glyph glyph-name="space" unicode=" " horiz-adv-x="454" 
 />
    <glyph glyph-name="exclam" unicode="!" horiz-adv-x="561" 
d="M211 408l88 596l90 430h189l-91 -430l-170 -596h-106zM80 0l47 219h197l-48 -219h-196z" />
    <glyph glyph-name="quotedbl" unicode="&#x22;" horiz-adv-x="761" 
d="M236 958l81 476h168l-118 -476h-131zM600 958l82 476h168l-119 -476h-131z" />
    <glyph glyph-name="numbersign" unicode="#" horiz-adv-x="1191" 
d="M39 0l172 403h-199l51 123h201l164 383h-197l52 123h196l172 402h152l-172 -402h303l172 402h149l-172 -402h195l-51 -123h-195l-164 -383h191l-51 -123h-193l-172 -403h-149l172 403h-304l-172 -403h-151zM416 526h303l164 383h-303z" />
    <glyph glyph-name="dollar" unicode="$" horiz-adv-x="1271" 
d="M608 -33h-10l-31 -149h-133l35 164q-145 32 -246 124t-131 236l170 49q14 -98 79.5 -163t160.5 -91l116 551q-179 71 -258 159.5t-79 209.5q0 116 69 210t183.5 145.5t250.5 53.5l31 150h133l-35 -162q123 -28 212.5 -107t123.5 -206l-168 -58q-46 172 -200 213
l-105 -489q181 -77 263.5 -169t82.5 -222q0 -185 -150 -317t-364 -132zM453 1085q0 -72 49.5 -126t152.5 -101l95 453q-125 -6 -211 -70.5t-86 -155.5zM633 123q129 5 222 84.5t93 195.5q0 136 -207 234z" />
    <glyph glyph-name="percent" unicode="%" horiz-adv-x="1574" 
d="M104 0l1295 1434h172l-1292 -1434h-175zM1096 -33q-119 0 -199 78t-80 203q0 152 102 258t250 106q118 0 198.5 -77.5t80.5 -202.5q0 -151 -102.5 -258t-249.5 -107zM1106 86q93 0 150 76t57 166q0 79 -43 123.5t-111 44.5q-64 0 -113 -38.5t-71.5 -92.5t-22.5 -111
q0 -80 42.5 -124t111.5 -44zM510 823q-119 0 -199 78t-80 203q0 151 102 257.5t251 106.5q118 0 198 -77.5t80 -202.5q0 -151 -102.5 -258t-249.5 -107zM520 942q93 0 150 76t57 166q0 79 -43 123.5t-111 44.5q-94 0 -150 -75.5t-56 -166.5q0 -80 42 -124t111 -44z" />
    <glyph glyph-name="ampersand" unicode="&#x26;" horiz-adv-x="1413" 
d="M549 -33q-128 0 -234.5 42t-173.5 127.5t-67 199.5q0 91 35.5 167t105.5 136.5t150 106t192 92.5q-98 166 -98 278q1 150 108 250t264 100q145 0 237.5 -76.5t92.5 -197.5q0 -74 -27.5 -136t-81.5 -111t-116 -86t-148 -75l267 -409q115 137 190 330l172 -68
q-114 -236 -274 -399l153 -238h-198l-82 129q-220 -162 -467 -162zM254 354q0 -109 89 -174t218 -65q195 0 373 139l-301 465q-67 -29 -113.5 -52t-101 -58t-87 -70t-55 -83t-22.5 -102zM625 1126q0 -53 22.5 -105.5t69.5 -123.5q154 64 218 130t64 157q0 64 -49.5 106.5
t-122.5 42.5q-86 0 -144 -59t-58 -148z" />
    <glyph glyph-name="quotesingle" unicode="'" horiz-adv-x="397" 
d="M236 958l81 476h168l-118 -476h-131z" />
    <glyph glyph-name="parenleft" unicode="(" horiz-adv-x="681" 
d="M379 -342q-109 171 -168 343.5t-59 367.5q0 336 163 642t484 560l96 -101q-292 -258 -430.5 -525.5t-138.5 -571.5q0 -162 45.5 -312.5t134.5 -312.5z" />
    <glyph glyph-name="parenright" unicode=")" horiz-adv-x="681" 
d="M-158 -242q293 258 432.5 525.5t139.5 572.5q0 162 -46 312.5t-137 312.5l127 90q110 -173 170 -345t60 -366q0 -336 -163.5 -641.5t-485.5 -560.5z" />
    <glyph glyph-name="asterisk" unicode="*" horiz-adv-x="880" 
d="M745 774l-167 223l-162 -219l-94 72l172 211l-258 86l34 104l250 -88v271h121v-271l250 86l37 -104l-258 -84l168 -217z" />
    <glyph glyph-name="plus" unicode="+" horiz-adv-x="1210" 
d="M825 1151l-96 -449h447l-31 -151h-447l-96 -451h-156l97 451h-447l31 151h446l97 449h155z" />
    <glyph glyph-name="comma" unicode="," horiz-adv-x="462" 
d="M-16 -244l135 244h-88l47 219h196l-47 -219l-149 -244h-94z" />
    <glyph glyph-name="hyphen" unicode="-" horiz-adv-x="747" 
d="M133 551l31 156h512l-31 -156h-512z" />
    <glyph glyph-name="period" unicode="." horiz-adv-x="462" 
d="M31 0l47 219h196l-47 -219h-196z" />
    <glyph glyph-name="slash" unicode="/" horiz-adv-x="894" 
d="M-59 0l921 1434h193l-922 -1434h-192z" />
    <glyph glyph-name="zero" unicode="0" horiz-adv-x="1148" 
d="M516 -33q-106 0 -186 37.5t-129.5 107t-74 162.5t-24.5 209q0 80 12 169.5t37 185t61.5 185.5t89.5 171t115 141t144 95.5t172 35.5q106 0 186 -37.5t129.5 -107t74 -162.5t24.5 -209q0 -94 -16.5 -200t-49 -217t-86 -211.5t-121 -180.5t-160.5 -127t-198 -47zM524 123
q86 0 160.5 60t124.5 152.5t86 205.5t52 217.5t16 189.5q0 58 -7.5 109t-25 98t-44 81t-68 54.5t-93.5 20.5q-85 0 -159.5 -60t-124 -153t-85.5 -206t-52.5 -217.5t-16.5 -189.5q0 -73 12 -135t38.5 -114.5t74 -82.5t112.5 -30z" />
    <glyph glyph-name="one" unicode="1" horiz-adv-x="811" 
d="M266 0l232 1085h-277l25 121q131 1 237.5 65.5t145.5 162.5h125l-308 -1434h-180z" />
    <glyph glyph-name="two" unicode="2" horiz-adv-x="1112" 
d="M-2 49q66 313 508 584q27 16 78.5 45.5t81 47t74 46.5t71 51.5t57.5 55.5t48 64t28.5 71.5t11.5 83.5q0 102 -72 157.5t-175 55.5q-107 0 -189 -58t-143 -188l-170 51q65 160 201.5 255t306.5 95q66 0 127.5 -13.5t115 -42.5t93.5 -70t63 -99t23 -127q0 -84 -26 -156
t-65 -124t-107.5 -107t-129 -93.5t-153.5 -94.5l-66 -39q-306 -186 -373 -348h735l-30 -152h-934z" />
    <glyph glyph-name="three" unicode="3" horiz-adv-x="1124" 
d="M485 -33q-172 0 -301 94t-153 261l170 49q19 -123 100 -185.5t195 -62.5q139 0 233 92t94 223q0 107 -75 173.5t-216 66.5h-79l30 149h166q112 0 194.5 82t82.5 191q0 100 -72.5 155.5t-173.5 55.5q-205 0 -309 -213l-170 53q64 144 192.5 229.5t290.5 85.5
q180 0 302 -98t122 -258q0 -124 -76 -229t-207 -148q86 -43 133.5 -118.5t47.5 -172.5q0 -92 -39.5 -178t-107 -152t-165.5 -105.5t-209 -39.5z" />
    <glyph glyph-name="four" unicode="4" horiz-adv-x="1136" 
d="M616 0l74 336h-645l35 166l782 932h238l-203 -949h193l-31 -149h-193l-73 -336h-177zM260 485h461l156 736z" />
    <glyph glyph-name="five" unicode="5" horiz-adv-x="1138" 
d="M498 -33q-110 0 -204 37.5t-162 120t-83 197.5l174 47q15 -114 89.5 -180t197.5 -66q101 0 181.5 57t122.5 145.5t42 188.5q0 120 -70 189t-178 69q-139 0 -260 -115l-155 17l243 760h742l-31 -152h-594l-137 -426q116 70 246 70q161 0 268.5 -108.5t107.5 -289.5
q0 -107 -39 -208t-108 -179.5t-171.5 -126t-221.5 -47.5z" />
    <glyph glyph-name="six" unicode="6" horiz-adv-x="1153" 
d="M535 -33q-89 0 -162 25.5t-123 71.5t-84 110t-48 142t-11.5 166.5t22.5 183.5l12 59q73 363 244.5 552t400.5 189q143 0 248.5 -66.5t147.5 -193.5l-166 -57q-28 81 -93 120.5t-147 39.5q-149 0 -265.5 -132t-178.5 -403q57 70 145.5 109t190.5 39q168 0 282.5 -106
t114.5 -294q0 -109 -40 -210t-109 -177.5t-168.5 -122t-212.5 -45.5zM543 123q102 0 182 60.5t119 148t39 180.5q0 121 -73.5 187.5t-184.5 66.5q-63 0 -124.5 -24t-112.5 -68.5t-82.5 -115t-31.5 -155.5q0 -132 78.5 -206t190.5 -74z" />
    <glyph glyph-name="seven" unicode="7" horiz-adv-x="1019" 
d="M113 0l817 1282h-688l30 152h881l-27 -131l-809 -1303h-204z" />
    <glyph glyph-name="eight" unicode="8" horiz-adv-x="1183" 
d="M553 -33q-99 0 -186 25t-154.5 72.5t-107 122.5t-39.5 169q0 160 97.5 280t262.5 163q-139 94 -139 260q0 80 33 154t91.5 130t145 89.5t186.5 33.5q113 0 206 -39t151.5 -119t58.5 -188q0 -128 -73.5 -225.5t-196.5 -142.5q192 -105 192 -320q0 -198 -149 -331.5
t-379 -133.5zM557 119q147 0 244.5 89t97.5 226q0 127 -86 195.5t-217 68.5q-154 0 -249 -96t-95 -225q0 -122 86.5 -190t218.5 -68zM700 842q121 0 203 79.5t82 188.5q0 97 -70.5 154t-171.5 57q-124 0 -204 -75.5t-80 -186.5q0 -98 69.5 -157.5t171.5 -59.5z" />
    <glyph glyph-name="nine" unicode="9" horiz-adv-x="1153" 
d="M719 1466q107 0 190 -36t133 -100.5t78.5 -152t26.5 -191t-23 -218.5l-12 -59q-73 -363 -244.5 -552.5t-400.5 -189.5q-142 0 -247.5 66.5t-147.5 193.5l166 58q28 -81 93 -120.5t146 -39.5q149 0 266 131.5t179 402.5q-57 -70 -145.5 -108.5t-190.5 -38.5
q-81 0 -152.5 26t-126.5 75t-87 126t-32 172q0 146 67.5 273t190.5 204.5t273 77.5zM711 1311q-102 0 -182 -60.5t-119 -148t-39 -180.5q0 -121 73.5 -187.5t184.5 -66.5q63 0 124 24t112 68t82.5 114.5t31.5 155.5q0 132 -78 206.5t-190 74.5z" />
    <glyph glyph-name="colon" unicode=":" horiz-adv-x="522" 
d="M219 745l47 220h197l-47 -220h-197zM59 0l47 219h197l-47 -219h-197z" />
    <glyph glyph-name="semicolon" unicode=";" horiz-adv-x="522" 
d="M12 -244l135 244h-88l47 219h197l-47 -219l-150 -244h-94zM219 745l47 220h197l-47 -220h-197z" />
    <glyph glyph-name="less" unicode="&#x3c;" horiz-adv-x="1210" 
d="M1026 182l-891 365l35 158l1047 364l-39 -172l-832 -281l713 -278z" />
    <glyph glyph-name="equal" unicode="=" horiz-adv-x="1210" 
d="M137 752l35 151h1049l-35 -151h-1049zM51 348l35 152h1049l-35 -152h-1049z" />
    <glyph glyph-name="greater" unicode="&#x3e;" horiz-adv-x="1210" 
d="M55 182l39 172l832 281l-713 278l33 156l891 -364l-35 -158z" />
    <glyph glyph-name="question" unicode="?" horiz-adv-x="1011" 
d="M387 457q12 76 35 124t75.5 100.5t157.5 129.5q22 16 63.5 44t63.5 44t52.5 43t46.5 49.5t27.5 54.5t11.5 68q0 89 -74.5 139t-177.5 50q-220 0 -324 -224l-170 51q64 161 198 248.5t310 87.5q112 0 207 -38t156 -115.5t61 -179.5q0 -32 -5.5 -61.5t-12.5 -54t-23.5 -51
t-28.5 -44.5t-37 -43t-40 -39t-47.5 -39t-49 -37t-54 -39t-54.5 -39q-113 -80 -155.5 -124t-61.5 -111l-15 -54h-143zM268 0l45 219h197l-45 -219h-197z" />
    <glyph glyph-name="at" unicode="@" horiz-adv-x="1929" 
d="M985 -383q-271 0 -472 84t-312 249.5t-111 395.5q0 163 46 317.5t133 282.5t206 225t273 151t325 54q233 0 411 -83.5t277 -240.5t99 -366q0 -90 -20 -182t-61 -176.5t-97.5 -150t-136.5 -105t-171 -39.5q-119 0 -189 53t-73 143q-152 -196 -354 -196q-137 0 -208 71.5
t-71 192.5q0 106 46.5 221.5t122 210t181 156t213.5 61.5q113 0 180 -52.5t64 -145.5l74 182h151l-219 -514q-23 -54 -32 -99.5t-2.5 -84t40 -60.5t91.5 -22q75 0 139 51.5t104.5 130.5t63 169.5t22.5 174.5q0 257 -171.5 415t-473.5 158q-148 0 -281 -49.5t-233 -135.5
t-173 -198.5t-110.5 -242t-37.5 -263.5q0 -196 94.5 -336t262.5 -210t394 -70q64 0 101 6l-29 -127q-29 -6 -76 -6zM788 162q80 0 158.5 53.5t132.5 132.5t87.5 166.5t33.5 157.5q0 147 -156 147q-78 0 -155 -51.5t-131 -128t-87.5 -164.5t-33.5 -162q0 -71 37 -111t114 -40
z" />
    <glyph glyph-name="A" unicode="A" horiz-adv-x="1353" 
d="M-70 0l824 1434h247l218 -1434h-191l-51 362h-645l-207 -362h-195zM422 520h532l-26 191q-7 46 -23.5 156t-23.5 160.5t-16.5 127t-14.5 137.5q-41 -79 -87.5 -164t-126 -226.5t-108.5 -192.5z" />
    <glyph glyph-name="B" unicode="B" horiz-adv-x="1331" 
d="M63 0l306 1434h596q164 0 264 -87t100 -225t-82.5 -240.5t-220.5 -136.5q98 -41 153.5 -120t55.5 -185q0 -195 -138.5 -317.5t-344.5 -122.5h-689zM696 152q161 0 257 77.5t96 223.5q0 102 -66.5 162.5t-173.5 60.5h-412l-112 -524h411zM834 827q141 0 225 71t84 194
q0 87 -58 138.5t-153 51.5h-406l-98 -455h406z" />
    <glyph glyph-name="C" unicode="C" horiz-adv-x="1378" 
d="M721 -33q-267 0 -431.5 165.5t-164.5 449.5q0 124 30 248t93.5 238.5t151.5 203t214 141.5t271 53q212 0 360.5 -104.5t188.5 -308.5l-177 -49q-30 141 -125.5 218.5t-252.5 77.5q-92 0 -173.5 -31t-142 -84.5t-108.5 -122.5t-77.5 -148t-45 -159t-15.5 -157
q0 -213 114 -339t308 -126q140 0 241.5 72.5t178.5 218.5l176 -55q-54 -109 -127.5 -189t-155 -125.5t-163.5 -66.5t-168 -21z" />
    <glyph glyph-name="D" unicode="D" horiz-adv-x="1441" 
d="M63 0l306 1434h475q174 0 305 -78t198.5 -212t67.5 -304q0 -121 -29.5 -239.5t-92 -227.5t-151 -191.5t-216 -132t-277.5 -49.5h-586zM604 158q131 0 237.5 40t176.5 106t117 155t67.5 182.5t20.5 192.5q0 203 -110 322.5t-300 119.5h-289l-237 -1118h317z" />
    <glyph glyph-name="E" unicode="E" horiz-adv-x="1212" 
d="M63 0l306 1434h936l-35 -158h-746l-98 -459h676l-35 -158h-674l-106 -501h764l-35 -158h-953z" />
    <glyph glyph-name="F" unicode="F" horiz-adv-x="1179" 
d="M63 0l306 1434h936l-35 -158h-746l-104 -490h667l-34 -157h-668l-133 -629h-189z" />
    <glyph glyph-name="G" unicode="G" horiz-adv-x="1503" 
d="M723 -31q-127 0 -236.5 43t-189 121.5t-125 196t-45.5 260.5q0 126 32 250t98 236.5t157.5 199t220.5 137.5t278 51q122 0 222 -32t168 -89t111 -130.5t61 -161.5l-179 -47q-29 137 -126.5 215.5t-262.5 78.5q-113 0 -210.5 -42.5t-165.5 -112.5t-117 -160t-72 -186.5
t-23 -190.5q0 -209 114.5 -341t311.5 -132q98 0 187 32t159 104.5t91 174.5l32 150h-415l35 158h591l-159 -752h-170l24 121q-72 -79 -180 -115.5t-217 -36.5z" />
    <glyph glyph-name="H" unicode="H" horiz-adv-x="1472" 
d="M1509 1434l-305 -1434h-188l143 666h-764l-143 -666h-189l306 1434h188l-129 -611h764l129 611h188z" />
    <glyph glyph-name="I" unicode="I" horiz-adv-x="548" 
d="M78 0l305 1434h188l-305 -1434h-188z" />
    <glyph glyph-name="J" unicode="J" horiz-adv-x="931" 
d="M346 -33q-137 0 -235 63.5t-121 192.5l178 60q27 -150 188 -150q157 0 203 211l234 1090h188l-240 -1112q-71 -355 -395 -355z" />
    <glyph glyph-name="K" unicode="K" horiz-adv-x="1286" 
d="M961 0l-564 686l-145 -686h-189l306 1434h188l-137 -648l764 648h266l-858 -701l612 -733h-243z" />
    <glyph glyph-name="L" unicode="L" horiz-adv-x="1103" 
d="M63 0l306 1434h188l-270 -1276h694l-35 -158h-883z" />
    <glyph glyph-name="M" unicode="M" horiz-adv-x="1761" 
d="M63 0l306 1434h293l98 -631q48 -306 69 -574q124 243 310 574l354 631h305l-305 -1434h-184l153 717q48 230 127 573q-200 -368 -317 -573l-402 -717h-165l-105 717q-14 94 -43.5 284.5t-42.5 286.5l-117 -573l-153 -715h-181z" />
    <glyph glyph-name="N" unicode="N" horiz-adv-x="1480" 
d="M63 0l306 1434h204l287 -662q169 -389 225 -545q27 150 111 555l137 652h185l-306 -1434h-200l-285 651q-180 421 -231 559q-30 -172 -111 -571l-137 -639h-185z" />
    <glyph glyph-name="O" unicode="O" horiz-adv-x="1574" 
d="M760 -33q-283 0 -458 174t-175 459q0 120 32.5 242t99 234.5t159 199t221.5 138.5t276 52q284 0 458.5 -173.5t174.5 -458.5q0 -100 -23.5 -202t-67.5 -199t-113 -181.5t-154 -148t-196 -100t-234 -36.5zM762 133q109 0 205.5 40.5t166 109t120.5 157t76.5 186
t25.5 193.5q0 217 -121.5 349t-321.5 132q-109 0 -205.5 -40.5t-166 -109t-120.5 -157t-76.5 -186t-25.5 -193.5q0 -217 121.5 -349t321.5 -132z" />
    <glyph glyph-name="P" unicode="P" horiz-adv-x="1302" 
d="M63 0l306 1434h555q194 0 308 -103.5t114 -271.5q0 -211 -142 -348.5t-385 -137.5h-444l-123 -573h-189zM809 731q156 0 252 83t96 230q0 107 -71 169.5t-189 62.5h-373l-114 -545h399z" />
    <glyph glyph-name="Q" unicode="Q" horiz-adv-x="1574" 
d="M760 -33q-283 0 -458 174t-175 459q0 120 32.5 242t99 234.5t159 199t221.5 138.5t276 52q284 0 458.5 -173.5t174.5 -458.5q0 -208 -94.5 -409t-265.5 -323l78 -145l-142 -86l-82 149q-135 -53 -282 -53zM762 133q107 0 199 39l-144 264l141 86l146 -266
q119 99 185.5 252t66.5 311q0 217 -121.5 349t-321.5 132q-109 0 -205.5 -40.5t-166 -109t-120.5 -157t-76.5 -186t-25.5 -193.5q0 -217 121.5 -349t321.5 -132z" />
    <glyph glyph-name="R" unicode="R" horiz-adv-x="1335" 
d="M63 0l306 1434h555q182 0 295.5 -105.5t113.5 -271.5q0 -187 -117 -320t-313 -159l262 -578h-200l-258 573h-332l-123 -573h-189zM805 731q146 0 243 82.5t97 230.5q0 105 -69.5 168.5t-180.5 63.5h-371l-114 -545h395z" />
    <glyph glyph-name="S" unicode="S" horiz-adv-x="1269" 
d="M621 -33q-219 0 -377.5 104t-192.5 289l176 50q22 -121 134 -200t274 -79q144 0 242 69.5t98 186.5q0 76 -60.5 130.5t-177.5 105.5l-196 92q-154 71 -224.5 155.5t-70.5 192.5q0 117 71 210t189.5 143t259.5 50q205 0 345.5 -95t180.5 -263l-174 -59q-62 254 -364 254
q-137 0 -229.5 -60.5t-92.5 -157.5q0 -125 205 -215l197 -90q170 -75 251.5 -164.5t81.5 -201.5q0 -132 -74 -235t-197.5 -157.5t-274.5 -54.5z" />
    <glyph glyph-name="T" unicode="T" horiz-adv-x="1228" 
d="M418 0l272 1276h-475l35 158h1134l-34 -158h-471l-273 -1276h-188z" />
    <glyph glyph-name="U" unicode="U" horiz-adv-x="1390" 
d="M678 -33q-105 0 -191 18.5t-147.5 53t-105 83.5t-63.5 110t-24 132.5t15 151.5l196 918h189l-197 -926q-37 -177 47.5 -276t280.5 -99q144 0 236 76t122 225l215 1000h189l-221 -1031q-44 -215 -181 -325.5t-360 -110.5z" />
    <glyph glyph-name="V" unicode="V" horiz-adv-x="1282" 
d="M418 0l-180 1434h186l86 -711q39 -277 57 -557q117 235 293 555l387 713h203l-793 -1434h-239z" />
    <glyph glyph-name="W" unicode="W" horiz-adv-x="1898" 
d="M2038 1434l-652 -1434h-229l-35 655q-17 263 -20 533q-127 -290 -244 -535l-317 -653h-232l-43 1434h187l16 -689q5 -250 2 -546q134 304 252 546l336 689h188l37 -689q16 -267 19 -546q190 447 233 546l309 689h193z" />
    <glyph glyph-name="X" unicode="X" horiz-adv-x="1308" 
d="M-78 0l680 762l-321 672h194l260 -551l482 551h221l-615 -686l355 -748h-197l-291 618l-545 -618h-223z" />
    <glyph glyph-name="Y" unicode="Y" horiz-adv-x="1271" 
d="M438 0l131 612l-331 822h196l254 -660l535 660h217l-682 -822l-131 -612h-189z" />
    <glyph glyph-name="Z" unicode="Z" horiz-adv-x="1261" 
d="M-18 0l32 152l1100 1124h-821l35 158h1050l-30 -152l-1100 -1124h856l-35 -158h-1087z" />
    <glyph glyph-name="bracketleft" unicode="[" horiz-adv-x="661" 
d="M29 -287l391 1823h393l-29 -131h-225l-332 -1561h224l-29 -131h-393z" />
    <glyph glyph-name="backslash" unicode="\" horiz-adv-x="892" 
d="M580 0l-334 1434h168l334 -1434h-168z" />
    <glyph glyph-name="bracketright" unicode="]" horiz-adv-x="661" 
d="M-92 -287l29 131h225l332 1561h-224l29 131h393l-391 -1823h-393z" />
    <glyph glyph-name="asciicircum" unicode="^" horiz-adv-x="1191" 
d="M881 1434l217 -869h-150l-174 711l-479 -711h-164l588 869h162z" />
    <glyph glyph-name="underscore" unicode="_" horiz-adv-x="1210" 
d="M-193 -383l25 123h1229l-25 -123h-1229z" />
    <glyph glyph-name="grave" unicode="`" horiz-adv-x="602" 
d="M457 1108l-129 287h188l86 -287h-145z" />
    <glyph glyph-name="a" unicode="a" horiz-adv-x="1019" 
d="M334 -29q-79 0 -144.5 25.5t-109 80.5t-43.5 132q0 139 104.5 217t294.5 113l182 34q76 15 115 45t39 91q0 65 -60.5 103t-146.5 38q-90 0 -157 -44t-117 -151l-156 47q64 141 176.5 216t253.5 75q87 0 160.5 -23t126 -66t74 -112t2.5 -155l-137 -637h-162l26 123
q-63 -74 -151 -113t-170 -39zM371 109q66 0 133.5 26t122 81.5t69.5 127.5l33 152q-38 -30 -129 -52l-127 -28q-47 -10 -78.5 -19t-69.5 -24.5t-60.5 -33.5t-38 -46t-15.5 -62q0 -60 45 -91t115 -31z" />
    <glyph glyph-name="b" unicode="b" horiz-adv-x="1093" 
d="M512 -29q-95 0 -178 45t-115 117l-29 -133h-163l307 1434h176l-123 -574q53 62 131.5 97.5t157.5 35.5q163 0 257.5 -113t94.5 -296q0 -109 -34.5 -216.5t-97.5 -196.5t-163.5 -144.5t-220.5 -55.5zM510 123q80 0 146.5 43t107 110t62.5 143.5t22 149.5q0 122 -57 197.5
t-162 75.5q-81 0 -149 -46.5t-108.5 -118t-62.5 -149.5t-22 -149q0 -121 60.5 -188.5t162.5 -67.5z" />
    <glyph glyph-name="c" unicode="c" horiz-adv-x="1005" 
d="M487 -29q-186 0 -302.5 111.5t-116.5 306.5q0 86 21.5 171t66 163t106.5 138t150.5 96t191.5 36q143 0 243.5 -72.5t131.5 -213.5l-150 -58q-45 195 -231 195q-83 0 -151.5 -43t-109.5 -110.5t-63 -143t-22 -146.5q0 -126 63.5 -203t184.5 -77q85 0 150.5 43t125.5 145
l146 -65q-153 -273 -435 -273z" />
    <glyph glyph-name="d" unicode="d" horiz-adv-x="1097" 
d="M422 -29q-164 0 -259 115t-95 299q0 86 21 172t64 164.5t102.5 139t144.5 96.5t182 36q94 0 170.5 -41t113.5 -118l129 600h176l-307 -1434h-164l21 102q-54 -61 -139.5 -96t-159.5 -35zM467 123q82 0 150 45.5t108.5 116t63 148.5t22.5 151q0 120 -60 189t-167 69
q-80 0 -146.5 -43t-106.5 -111t-61.5 -144.5t-21.5 -148.5q0 -125 56.5 -198.5t162.5 -73.5z" />
    <glyph glyph-name="e" unicode="e" horiz-adv-x="1044" 
d="M494 -29q-194 0 -310 115t-116 309q0 105 36 210t101 192t167 141.5t222 54.5q173 0 279 -103.5t106 -283.5q0 -62 -16 -131h-717q-4 -50 -4 -69q0 -127 65.5 -207t194.5 -80q87 0 154.5 43.5t127.5 142.5l148 -57q-155 -277 -438 -277zM281 608h528q3 108 -55 175
t-172 67q-108 0 -184 -68t-117 -174z" />
    <glyph glyph-name="f" unicode="f" horiz-adv-x="655" 
d="M354 1171q29 144 118 214.5t216 70.5q86 0 164 -39l-33 -145q-68 41 -131 41q-64 0 -105 -39t-61 -127l-39 -182h236l-29 -134h-235l-179 -831h-176l181 831h-168l28 134h168z" />
    <glyph glyph-name="g" unicode="g" horiz-adv-x="1099" 
d="M399 -436q-168 0 -282 76t-135 225l163 45q12 -95 82 -148t183 -53q219 0 268 232l43 198q-54 -59 -134 -93t-163 -34q-69 0 -131 24t-111.5 71.5t-78.5 125.5t-29 177q0 79 21 160.5t64.5 157.5t104.5 135t147 94.5t185 35.5q92 0 167 -41t111 -118l33 131h166
l-227 -1049q-34 -165 -152.5 -258.5t-294.5 -93.5zM477 162q79 0 145 41.5t106.5 107t62.5 140t22 145.5q0 120 -60 183t-157 63q-67 0 -124.5 -27.5t-96.5 -72t-67 -100.5t-41 -112t-13 -108q0 -119 59.5 -189.5t163.5 -70.5z" />
    <glyph glyph-name="h" unicode="h" horiz-adv-x="1030" 
d="M27 0l305 1434h170l-125 -578q131 137 299 137q155 0 223.5 -106.5t36.5 -259.5l-133 -627h-176l125 592q25 115 -9 182.5t-139 67.5q-37 0 -77.5 -15.5t-80.5 -45.5t-72.5 -82.5t-47.5 -118.5l-123 -580h-176z" />
    <glyph glyph-name="i" unicode="i" horiz-adv-x="438" 
d="M27 0l209 965h176l-209 -965h-176zM270 1159l39 189h189l-39 -189h-189z" />
    <glyph glyph-name="j" unicode="j" horiz-adv-x="442" 
d="M-106 -422q-105 0 -183 37l31 143q75 -34 125 -34q59 0 90 34.5t47 104.5l236 1102h176l-240 -1117q-29 -138 -97.5 -204t-184.5 -66zM274 1159l39 189h189l-39 -189h-189z" />
    <glyph glyph-name="k" unicode="k" horiz-adv-x="917" 
d="M604 0l-301 471l-100 -471h-176l305 1434h176l-184 -869l426 400h237l-510 -453l336 -512h-209z" />
    <glyph glyph-name="l" unicode="l" horiz-adv-x="444" 
d="M31 0l305 1434h176l-305 -1434h-176z" />
    <glyph glyph-name="m" unicode="m" horiz-adv-x="1564" 
d="M27 0l206 965h164l-24 -113q63 69 138 105t148 36q91 0 154.5 -47.5t85.5 -128.5q66 88 152.5 132t175.5 44q143 0 209 -107t34 -259l-133 -627h-176l125 592q14 73 9 128.5t-40.5 88.5t-97.5 33q-35 0 -73 -15.5t-76 -45.5t-69 -82.5t-46 -118.5l-123 -580h-176l125 592
q25 115 -5.5 182.5t-123.5 67.5q-35 0 -73 -15.5t-76 -45.5t-69 -82.5t-46 -118.5l-123 -580h-176z" />
    <glyph glyph-name="n" unicode="n" horiz-adv-x="1030" 
d="M27 0l206 965h164l-26 -117q67 73 146 109t159 36q155 0 223.5 -106.5t36.5 -259.5l-133 -627h-176l125 592q25 115 -9 182.5t-139 67.5q-37 0 -77.5 -15.5t-80.5 -45.5t-72.5 -82.5t-47.5 -118.5l-123 -580h-176z" />
    <glyph glyph-name="o" unicode="o" horiz-adv-x="1099" 
d="M489 -29q-188 0 -304.5 116.5t-116.5 311.5q0 79 21 160.5t65.5 159.5t106.5 139t153 98t196 37q188 0 305 -116.5t117 -311.5q0 -79 -21 -160.5t-65.5 -159.5t-107 -139t-153.5 -98t-196 -37zM500 119q85 0 154.5 42.5t111 109.5t64 142t22.5 146q0 128 -68.5 207.5
t-183.5 79.5q-85 0 -154.5 -42.5t-111 -109.5t-64 -142t-22.5 -146q0 -128 68.5 -207.5t183.5 -79.5z" />
    <glyph glyph-name="p" unicode="p" horiz-adv-x="1091" 
d="M-61 -410l294 1375h164l-26 -119q130 147 303 147q163 0 257.5 -113t94.5 -296q0 -109 -34.5 -216.5t-97.5 -196.5t-163.5 -144.5t-220.5 -55.5q-89 0 -169 39.5t-116 104.5l-110 -525h-176zM508 123q80 0 146.5 43t107 110t62.5 143.5t22 149.5q0 122 -57 197.5
t-162 75.5q-81 0 -149 -46.5t-108.5 -118t-62.5 -149.5t-22 -149q0 -121 60.5 -188.5t162.5 -67.5z" />
    <glyph glyph-name="q" unicode="q" horiz-adv-x="1095" 
d="M707 90q-52 -56 -132 -87.5t-153 -31.5q-164 0 -259 114.5t-95 299.5q0 86 21 172t64 164.5t102.5 139t144.5 96.5t182 36q100 0 179.5 -45.5t112.5 -128.5l31 146h164l-293 -1375h-176zM467 123q82 0 150 45.5t108.5 116t63 148.5t22.5 151q0 120 -61 189t-166 69
q-80 0 -146.5 -43t-106.5 -111t-61.5 -144.5t-21.5 -148.5q0 -125 56.5 -198.5t162.5 -73.5z" />
    <glyph glyph-name="r" unicode="r" horiz-adv-x="684" 
d="M27 0l206 965h164l-26 -121q117 133 272 133q68 0 117 -14l-35 -162q-56 16 -127 16q-98 0 -174 -66t-105 -204l-116 -547h-176z" />
    <glyph glyph-name="s" unicode="s" horiz-adv-x="937" 
d="M424 -29q-57 0 -109.5 9t-102.5 30.5t-88.5 54t-65.5 82t-35 111.5l153 41q10 -91 82 -138.5t172 -47.5q89 0 147 39t58 106q0 43 -32.5 76.5t-104.5 64.5l-129 58q-119 51 -170.5 110t-51.5 131q0 129 109.5 212t261.5 83q146 0 249.5 -68.5t121.5 -207.5l-156 -43
q-10 95 -75.5 136.5t-149.5 41.5q-79 0 -134 -34.5t-55 -90.5q0 -38 32.5 -68.5t107.5 -64.5l131 -59q117 -50 169 -110t52 -138q0 -142 -112 -229t-275 -87z" />
    <glyph glyph-name="t" unicode="t" horiz-adv-x="684" 
d="M360 -18q-117 0 -175 67.5t-27 200.5l125 581h-170l28 134h170l68 319h176l-68 -319h252l-28 -134h-252l-123 -577q-11 -59 6 -90t76 -31q45 0 145 29l-33 -154q-104 -26 -170 -26z" />
    <glyph glyph-name="u" unicode="u" horiz-adv-x="1024" 
d="M352 -29q-105 0 -171.5 51.5t-87 134t0.5 181.5l133 627h176l-124 -592q-13 -71 -8 -126.5t43.5 -89.5t109.5 -34q81 0 164 67.5t110 194.5l123 580h176l-204 -965h-164l24 117q-66 -73 -144 -109.5t-157 -36.5z" />
    <glyph glyph-name="v" unicode="v" horiz-adv-x="937" 
d="M252 0l-121 965h174l39 -351q25 -203 45 -479q151 309 242 479l190 351h191l-539 -965h-221z" />
    <glyph glyph-name="w" unicode="w" horiz-adv-x="1435" 
d="M203 0l-60 965h174l17 -355q5 -168 10 -458q72 164 215 458l172 355h164l23 -355q12 -217 16 -465q130 296 209 465l166 355h188l-475 -965h-213l-21 303q-11 165 -20 442q-67 -153 -207 -446l-147 -299h-211z" />
    <glyph glyph-name="x" unicode="x" horiz-adv-x="935" 
d="M-80 0l457 506l-219 459h184l156 -334l293 334h198l-414 -457l236 -508h-182l-170 379l-336 -379h-203z" />
    <glyph glyph-name="y" unicode="y" horiz-adv-x="946" 
d="M23 -430q-64 0 -138 18l31 146q71 -23 125 -23q58 0 100.5 32.5t87.5 115.5l47 88l-139 1018h178l37 -314q22 -178 54 -473l251 477l172 310h185l-645 -1151q-74 -132 -148.5 -188t-197.5 -56z" />
    <glyph glyph-name="z" unicode="z" horiz-adv-x="927" 
d="M-31 0l29 131l694 690h-510l33 144h733l-28 -129l-693 -693h545l-33 -143h-770z" />
    <glyph glyph-name="braceleft" unicode="{" horiz-adv-x="737" 
d="M440 -287q-174 0 -228.5 73.5t-14.5 260.5l63 295q26 111 -7.5 155t-137.5 44l35 168q103 0 154 43t77 155l76 348q19 92 45 149t62.5 85.5t73 37.5t93.5 9h160l-29 -131h-71q-87 0 -116.5 -28t-47.5 -113l-82 -383q-24 -110 -76.5 -171.5t-167.5 -80.5v-8
q105 -19 132 -81.5t3 -170.5l-78 -363q-20 -89 4.5 -125.5t120.5 -36.5h45l-28 -131h-60z" />
    <glyph glyph-name="bar" unicode="|" horiz-adv-x="774" 
d="M145 -283l408 1899h156l-408 -1899h-156z" />
    <glyph glyph-name="braceright" unicode="}" horiz-adv-x="737" 
d="M-92 -287l26 131h72q86 0 116 28.5t48 113.5l82 383q24 110 76.5 171.5t167.5 80.5v8q-105 19 -131.5 81t-4.5 171l78 362q20 89 -4.5 125.5t-120.5 36.5h-45l29 131h59q175 0 229.5 -73.5t14.5 -260.5l-63 -295q-24 -111 8.5 -154.5t136.5 -43.5l-35 -168
q-103 0 -153.5 -43.5t-75.5 -155.5l-78 -348q-19 -92 -45 -149t-62.5 -85.5t-73 -37.5t-93.5 -9h-158z" />
    <glyph glyph-name="asciitilde" unicode="~" horiz-adv-x="1212" 
d="M465 815q60 0 121 -18t102.5 -39.5t94.5 -39.5t98 -18q58 0 90.5 26.5t48.5 80.5h147q-28 -112 -106 -182t-195 -70q-56 0 -117 18.5t-104.5 41t-98.5 41t-102 18.5q-60 0 -104 -30.5t-59 -78.5h-148q28 111 117.5 180.5t214.5 69.5z" />
    <glyph glyph-name="uni00A0" unicode="&#xa0;" horiz-adv-x="454" 
 />
    <glyph glyph-name="exclamdown" unicode="&#xa1;" horiz-adv-x="561" 
d="M350 557l-88 -596l-90 -430h-188l90 430l170 596h106zM481 965l-47 -220h-196l47 220h196z" />
    <glyph glyph-name="cent" unicode="&#xa2;" horiz-adv-x="1202" 
d="M420 -203l47 219q-134 35 -213.5 140.5t-79.5 265.5q0 82 20.5 164.5t62.5 159.5t101.5 137t143 98t180.5 43l39 178h133l-41 -188q105 -24 175.5 -93.5t96.5 -183.5l-149 -57q-33 147 -154 184l-153 -712q76 5 137.5 48.5t116.5 139.5l145 -66q-153 -272 -432 -272
l-43 -205h-133zM358 432q0 -95 36 -163t106 -97l149 698q-93 -18 -161.5 -93t-99 -165.5t-30.5 -179.5z" />
    <glyph glyph-name="sterling" unicode="&#xa3;" horiz-adv-x="1198" 
d="M705 -27q-83 0 -221.5 38t-215.5 38q-54 0 -103 -10t-71 -19t-67 -30l-25 143q330 100 360 453h-206l28 137h181q-15 123 -15 166q0 122 29 224.5t86.5 182.5t153.5 125t221 45q67 0 130.5 -15t123 -46.5t99.5 -89t50 -133.5l-170 -45q-14 90 -81 133t-163 43
q-69 0 -122 -25.5t-85.5 -66.5t-53 -100.5t-28.5 -120.5t-8 -132q0 -25 2 -50t6 -52.5t5 -42.5h420l-29 -137h-393q-23 -260 -217 -385q87 -4 163.5 -23.5t132.5 -36t101 -16.5q129 0 201 176l174 -47q-63 -137 -164 -209t-229 -72z" />
    <glyph glyph-name="currency" unicode="&#xa4;" horiz-adv-x="1202" 
d="M260 211l-88 88l137 137q-80 107 -80 250q0 142 78 250l-137 137l90 86l137 -139q107 76 252 76q133 0 244 -70l137 135l90 -86l-133 -133q82 -109 82 -256q0 -145 -82 -254l131 -131l-90 -88l-133 133q-106 -67 -246 -67q-144 0 -250 71zM649 410q123 0 202 76.5
t79 199.5q0 125 -79 201t-202 76t-201.5 -76t-78.5 -201q0 -123 78.5 -199.5t201.5 -76.5z" />
    <glyph glyph-name="yen" unicode="&#xa5;" horiz-adv-x="1191" 
d="M401 0l84 387h-366l24 127h369l23 100l-29 88h-322l29 127h252l-197 605h189l194 -656l473 656h205l-452 -605h251l-26 -127h-322l-67 -90l-21 -98h369l-25 -127h-372l-82 -387h-181z" />
    <glyph glyph-name="brokenbar" unicode="&#xa6;" horiz-adv-x="774" 
d="M379 807l174 809h156l-174 -809h-156zM145 -283l174 807h156l-174 -807h-156z" />
    <glyph glyph-name="section" unicode="&#xa7;" horiz-adv-x="1204" 
d="M506 -154q-81 0 -153.5 16t-135.5 49t-105 89.5t-53 130.5l168 49q11 -92 98 -140t210 -48q106 0 182 42.5t76 119.5q0 50 -48 84.5t-153 70.5l-172 62q-254 90 -254 264q0 103 68 172.5t184 107.5q-78 46 -115 101.5t-37 130.5q0 141 132 230t331 89q81 0 153.5 -16
t135.5 -48.5t105 -89t53 -130.5l-168 -49q-11 92 -98 140t-210 48q-107 0 -183.5 -42.5t-76.5 -119.5q0 -51 48 -84.5t155 -70.5l172 -62q254 -90 254 -264q0 -103 -68.5 -173t-183.5 -108q79 -46 115.5 -101.5t36.5 -129.5q0 -141 -132 -230.5t-331 -89.5zM342 666
q0 -90 147 -144l154 -51q106 14 177 57t71 119q0 90 -146 144l-153 51q-68 -9 -121 -28t-91 -57.5t-38 -90.5z" />
    <glyph glyph-name="dieresis" unicode="&#xa8;" horiz-adv-x="753" 
d="M586 1159l39 189h178l-39 -189h-178zM279 1159l38 189h179l-39 -189h-178z" />
    <glyph glyph-name="copyright" unicode="&#xa9;" horiz-adv-x="1730" 
d="M915 -27q-207 0 -377.5 97t-268 267.5t-97.5 379.5q0 156 57.5 294.5t156 236.5t236.5 155t293 57q207 0 377.5 -96.5t268.5 -267t98 -379.5t-98 -379.5t-268.5 -267.5t-377.5 -97zM915 82q177 0 319 83.5t221 229t79 322.5t-79 322.5t-221 229t-319 83.5t-319 -84
t-220.5 -229t-78.5 -322t78.5 -322t220.5 -229t319 -84zM926 270q-187 0 -298.5 122.5t-111.5 322.5t114 324t296 124q120 0 215.5 -58.5t142.5 -184.5l-117 -50q-66 166 -237 166q-89 0 -151.5 -47.5t-89.5 -118t-27 -155.5q0 -62 16.5 -118t48 -101.5t84 -72t119.5 -26.5
q86 0 144.5 39t96.5 127l117 -49q-34 -85 -93 -141.5t-126 -79.5t-143 -23z" />
    <glyph glyph-name="ordfeminine" unicode="&#xaa;" horiz-adv-x="845" 
d="M410 637q-90 0 -163 53.5t-73 140.5q0 49 19.5 89t50.5 67.5t77 48.5t93 34t104 22l119 22q115 20 115 105q0 53 -49.5 81.5t-112.5 28.5q-146 0 -213 -151l-119 36q44 115 132 172.5t204 57.5q149 0 233 -76.5t54 -206.5l-107 -499h-129l21 90q-93 -115 -256 -115z
M457 745q79 0 149 50t88 133l27 129q-30 -30 -100 -45l-101 -23q-106 -25 -140 -43q-65 -34 -65 -96q0 -52 40 -78.5t102 -26.5z" />
    <glyph glyph-name="guillemotleft" unicode="&#xab;" horiz-adv-x="1153" 
d="M741 70l-184 440l375 442h186l-397 -460l182 -422h-162zM315 70l-184 440l375 442h186l-397 -460l182 -422h-162z" />
    <glyph glyph-name="logicalnot" unicode="&#xac;" horiz-adv-x="1210" 
d="M901 150l86 401h-893l33 151h1049l-119 -552h-156z" />
    <glyph glyph-name="registered" unicode="&#xae;" horiz-adv-x="1126" 
d="M676 565q-189 0 -318 128.5t-129 318.5t129 318t318 128t317.5 -128t128.5 -318t-128.5 -318.5t-317.5 -128.5zM676 643q156 0 257 105.5t101 263.5t-101 263t-257 105q-157 0 -258 -105t-101 -263t101 -263.5t258 -105.5zM502 768v502h209q70 0 115.5 -45.5t45.5 -112.5
q0 -47 -26 -86t-74 -57l123 -201h-100l-113 190h-86v-190h-94zM692 1036q43 0 65.5 20t22.5 56q0 34 -22.5 55t-65.5 21h-96v-152h96z" />
    <glyph glyph-name="macron" unicode="&#xaf;" horiz-adv-x="833" 
d="M279 1169l28 134h567l-28 -134h-567z" />
    <glyph glyph-name="degree" unicode="&#xb0;" horiz-adv-x="839" 
d="M565 885q-122 0 -206.5 82.5t-84.5 206.5q0 121 84.5 202.5t206.5 81.5q123 0 208 -81t85 -203q0 -124 -84.5 -206.5t-208.5 -82.5zM565 1004q72 0 119 47.5t47 122.5q0 72 -47 118.5t-119 46.5q-73 0 -119.5 -47t-46.5 -118q0 -74 46.5 -122t119.5 -48z" />
    <glyph glyph-name="plusminus" unicode="&#xb1;" horiz-adv-x="1228" 
d="M874 1339l-96 -448h447l-31 -152h-446l-97 -450h-155l96 450h-447l31 152h447l96 448h155zM1067 152l-31 -152h-1048l30 152h1049z" />
    <glyph glyph-name="uni00B2" unicode="&#xb2;" horiz-adv-x="747" 
d="M135 772q42 205 322 361q16 9 58 32t62 34.5t52 35t47.5 42.5t28 46t12.5 57q0 56 -40.5 87.5t-101.5 31.5q-129 0 -190 -145l-131 39q36 101 124.5 163t205.5 62q118 0 195 -61.5t77 -165.5q0 -63 -20.5 -112t-74.5 -94.5t-89.5 -68t-120.5 -69.5q-25 -14 -37 -21
q-173 -99 -213 -172h449l-25 -117h-598z" />
    <glyph glyph-name="uni00B3" unicode="&#xb3;" horiz-adv-x="747" 
d="M449 717q-117 0 -197.5 58t-93.5 165l135 37q9 -70 53 -105.5t111 -35.5q86 0 133 50t47 109q0 58 -42.5 94.5t-121.5 36.5h-70l25 117h100q75 0 121.5 38t46.5 99q0 57 -41.5 88t-99.5 31q-125 0 -172 -123l-135 41q36 91 114.5 146t194.5 55q122 0 200.5 -61t78.5 -166
q0 -75 -41.5 -135t-118.5 -87q100 -59 100 -170q0 -119 -94.5 -200.5t-232.5 -81.5z" />
    <glyph glyph-name="acute" unicode="&#xb4;" horiz-adv-x="618" 
d="M266 1108l205 287h209l-248 -287h-166z" />
    <glyph glyph-name="paragraph" unicode="&#xb6;" horiz-adv-x="1316" 
d="M545 -203l162 752h-113q-194 0 -303 107t-109 276q0 215 137.5 358.5t360.5 143.5h360l-350 -1637h-145zM856 -203l350 1637h148l-350 -1637h-148z" />
    <glyph glyph-name="periodcentered" unicode="&#xb7;" horiz-adv-x="462" 
d="M143 530l47 220h197l-47 -220h-197z" />
    <glyph glyph-name="cedilla" unicode="&#xb8;" horiz-adv-x="702" 
d="M180 -475q-66 0 -127 28.5t-98 88.5l102 53q41 -66 131 -66q43 0 75 22t32 56q0 36 -32.5 54t-69.5 18q-30 0 -60 -6l-45 55l145 211l80 -39l-92 -135q82 -3 132 -44.5t50 -103.5q0 -82 -63 -137t-160 -55z" />
    <glyph glyph-name="uni00B9" unicode="&#xb9;" horiz-adv-x="548" 
d="M297 737l133 621h-172l21 98q82 1 147.5 40t95.5 101h96l-182 -860h-139z" />
    <glyph glyph-name="ordmasculine" unicode="&#xba;" horiz-adv-x="915" 
d="M532 637q-152 0 -241.5 93t-89.5 247q0 63 16.5 128t52 126t84 108.5t118.5 76t151 28.5q150 0 240.5 -92.5t90.5 -245.5q0 -80 -28 -161t-79 -150.5t-133.5 -113.5t-181.5 -44zM539 758q87 0 151 55.5t92.5 131.5t28.5 157q0 100 -52 160.5t-143 60.5q-87 0 -151 -55.5
t-92.5 -131.5t-28.5 -157q0 -100 52 -160.5t143 -60.5z" />
    <glyph glyph-name="guillemotright" unicode="&#xbb;" horiz-adv-x="1153" 
d="M463 70l395 460l-180 422h160l186 -440l-375 -442h-186zM37 70l395 460l-180 422h160l186 -440l-375 -442h-186z" />
    <glyph glyph-name="onequarter" unicode="&#xbc;" horiz-adv-x="1634" 
d="M262 573l133 621h-172l21 98q82 1 147.5 40.5t95.5 101.5h97l-183 -861h-139zM84 0l1294 1434h172l-1292 -1434h-174zM1233 0l41 195h-389l28 131l453 534h186l-116 -553h114l-24 -112h-115l-41 -195h-137zM1049 307h249l84 395z" />
    <glyph glyph-name="onehalf" unicode="&#xbd;" horiz-adv-x="1757" 
d="M262 573l133 621h-172l21 98q82 1 147.5 40.5t95.5 101.5h97l-183 -861h-139zM84 0l1294 1434h172l-1292 -1434h-174zM987 35q41 204 322 360q15 8 58 32t62 35t51.5 35t48 42.5t28 46t12.5 57.5q0 56 -40.5 87.5t-101.5 31.5q-128 0 -190 -146l-131 39
q36 101 124.5 163.5t205.5 62.5q118 0 195 -62t77 -166q0 -62 -21 -111.5t-73.5 -94t-89 -67.5t-119.5 -69q-26 -15 -39 -22q-173 -99 -213 -172h449l-25 -117h-598z" />
    <glyph glyph-name="threequarters" unicode="&#xbe;" horiz-adv-x="1839" 
d="M414 553q-117 0 -197.5 58t-93.5 165l135 37q9 -70 53 -105.5t111 -35.5q86 0 133 50t47 109q0 58 -42.5 95t-121.5 37h-69l24 116h101q75 0 121.5 38t46.5 100q0 57 -41.5 87.5t-100.5 30.5q-125 0 -172 -123l-135 41q36 91 114.5 146t194.5 55q122 0 200.5 -61
t78.5 -166q0 -75 -41.5 -134.5t-118.5 -86.5q100 -59 100 -170q0 -119 -94.5 -201t-232.5 -82zM289 0l1294 1434h172l-1292 -1434h-174zM1438 0l41 195h-389l28 131l453 534h186l-117 -553h115l-24 -112h-115l-41 -195h-137zM1253 307h250l84 395z" />
    <glyph glyph-name="questiondown" unicode="&#xbf;" horiz-adv-x="964" 
d="M625 508q-12 -76 -35.5 -124t-75.5 -100t-158 -130q-21 -16 -63 -44.5t-64 -44t-52.5 -43t-46 -50t-27 -54.5t-11.5 -68q0 -89 74.5 -138.5t177.5 -49.5q220 0 324 223l170 -51q-64 -161 -198 -248.5t-310 -87.5q-112 0 -207 38t-156 116t-61 180q0 32 5.5 61.5t12.5 54
t23.5 51t28.5 44.5t37 43t40 39t47.5 39t49 37t54 39t54.5 39q113 80 155.5 124t61.5 111l14 53h144zM743 965l-45 -220h-196l45 220h196z" />
    <glyph glyph-name="Agrave" unicode="&#xc0;" horiz-adv-x="1353" 
d="M-70 0l824 1434h247l218 -1434h-191l-51 362h-645l-207 -362h-195zM834 1550l-129 287h188l86 -287h-145zM422 520h532l-26 191q-7 46 -23.5 156t-23.5 160.5t-16.5 127t-14.5 137.5q-41 -79 -87.5 -164t-126 -226.5t-108.5 -192.5z" />
    <glyph glyph-name="Aacute" unicode="&#xc1;" horiz-adv-x="1353" 
d="M-70 0l824 1434h247l218 -1434h-191l-51 362h-645l-207 -362h-195zM815 1550l205 287h209l-248 -287h-166zM422 520h532l-26 191q-7 46 -23.5 156t-23.5 160.5t-16.5 127t-14.5 137.5q-41 -79 -87.5 -164t-126 -226.5t-108.5 -192.5z" />
    <glyph glyph-name="Acircumflex" unicode="&#xc2;" horiz-adv-x="1353" 
d="M-70 0l824 1434h247l218 -1434h-191l-51 362h-645l-207 -362h-195zM592 1550l258 287h221l137 -287h-141l-117 201l-198 -201h-160zM422 520h532l-26 191q-7 46 -23.5 156t-23.5 160.5t-16.5 127t-14.5 137.5q-41 -79 -87.5 -164t-126 -226.5t-108.5 -192.5z" />
    <glyph glyph-name="Atilde" unicode="&#xc3;" horiz-adv-x="1353" 
d="M-70 0l824 1434h247l218 -1434h-191l-51 362h-645l-207 -362h-195zM1055 1571q-49 0 -97 26.5t-91.5 53t-80.5 26.5q-65 0 -90 -104h-112q23 108 81 166.5t140 58.5q39 0 78 -16.5t66 -36.5t61 -36.5t63 -16.5q67 0 92 104h113q-25 -108 -83 -166.5t-140 -58.5zM422 520
h532l-26 191q-7 46 -23.5 156t-23.5 160.5t-16.5 127t-14.5 137.5q-41 -79 -87.5 -164t-126 -226.5t-108.5 -192.5z" />
    <glyph glyph-name="Adieresis" unicode="&#xc4;" horiz-adv-x="1353" 
d="M-70 0l824 1434h247l218 -1434h-191l-51 362h-645l-207 -362h-195zM975 1602l39 188h178l-39 -188h-178zM668 1602l39 188h178l-39 -188h-178zM422 520h532l-26 191q-7 46 -23.5 156t-23.5 160.5t-16.5 127t-14.5 137.5q-41 -79 -87.5 -164t-126 -226.5t-108.5 -192.5z
" />
    <glyph glyph-name="Aring" unicode="&#xc5;" horiz-adv-x="1353" 
d="M-70 0l824 1434h247l218 -1434h-191l-51 362h-645l-207 -362h-195zM940 1540q-82 0 -140.5 55.5t-58.5 133.5t58.5 133t140.5 55q80 0 138.5 -55t58.5 -133t-58.5 -133.5t-138.5 -55.5zM940 1630q40 0 67 28t27 71q0 42 -27 70t-67 28t-68 -28t-28 -70t28 -70.5t68 -28.5
zM422 520h532l-26 191q-7 46 -23.5 156t-23.5 160.5t-16.5 127t-14.5 137.5q-41 -79 -87.5 -164t-126 -226.5t-108.5 -192.5z" />
    <glyph glyph-name="AE" unicode="&#xc6;" horiz-adv-x="1947" 
d="M-88 0l1042 1434h1086l-35 -158h-766l-98 -459h712l-34 -158h-711l-107 -501h785l-35 -158h-975l78 362h-477l-262 -362h-203zM492 520h395l166 776z" />
    <glyph glyph-name="Ccedilla" unicode="&#xc7;" horiz-adv-x="1378" 
d="M649 -475q-66 0 -127 28.5t-98 88.5l102 53q41 -66 131 -66q43 0 75 22t32 56q0 36 -32.5 54t-69.5 18q-30 0 -60 -6l-45 55l98 141q-241 22 -385.5 185t-144.5 428q0 124 30 248t93.5 238.5t151.5 203t214 141.5t271 53q212 0 360.5 -104.5t188.5 -308.5l-177 -49
q-30 141 -125.5 218.5t-252.5 77.5q-92 0 -173.5 -31t-142 -84.5t-108.5 -122.5t-77.5 -148t-45 -159t-15.5 -157q0 -213 114 -339t308 -126q140 0 241.5 72.5t178.5 218.5l176 -55q-51 -103 -119 -180t-144 -123t-153 -69.5t-159 -27.5l-70 -104q82 -3 132 -44.5t50 -103.5
q0 -82 -63 -137t-160 -55z" />
    <glyph glyph-name="Egrave" unicode="&#xc8;" horiz-adv-x="1212" 
d="M63 0l306 1434h936l-35 -158h-746l-98 -459h676l-35 -158h-674l-106 -501h764l-35 -158h-953zM823 1550l-129 287h189l86 -287h-146z" />
    <glyph glyph-name="Eacute" unicode="&#xc9;" horiz-adv-x="1212" 
d="M63 0l306 1434h936l-35 -158h-746l-98 -459h676l-35 -158h-674l-106 -501h764l-35 -158h-953zM805 1550l205 287h209l-248 -287h-166z" />
    <glyph glyph-name="Ecircumflex" unicode="&#xca;" horiz-adv-x="1212" 
d="M63 0l306 1434h936l-35 -158h-746l-98 -459h676l-35 -158h-674l-106 -501h764l-35 -158h-953zM582 1550l258 287h221l137 -287h-141l-117 201l-199 -201h-159z" />
    <glyph glyph-name="Edieresis" unicode="&#xcb;" horiz-adv-x="1212" 
d="M63 0l306 1434h936l-35 -158h-746l-98 -459h676l-35 -158h-674l-106 -501h764l-35 -158h-953zM965 1602l39 188h178l-39 -188h-178zM657 1602l39 188h178l-38 -188h-179z" />
    <glyph glyph-name="Igrave" unicode="&#xcc;" horiz-adv-x="548" 
d="M78 0l305 1434h188l-305 -1434h-188zM436 1550l-129 287h189l86 -287h-146z" />
    <glyph glyph-name="Iacute" unicode="&#xcd;" horiz-adv-x="548" 
d="M78 0l305 1434h188l-305 -1434h-188zM418 1550l205 287h208l-247 -287h-166z" />
    <glyph glyph-name="Icircumflex" unicode="&#xce;" horiz-adv-x="548" 
d="M78 0l305 1434h188l-305 -1434h-188zM195 1550l258 287h221l137 -287h-141l-117 201l-199 -201h-159z" />
    <glyph glyph-name="Idieresis" unicode="&#xcf;" horiz-adv-x="548" 
d="M78 0l305 1434h188l-305 -1434h-188zM578 1602l38 188h179l-39 -188h-178zM270 1602l39 188h178l-38 -188h-179z" />
    <glyph glyph-name="Eth" unicode="&#xd0;" horiz-adv-x="1472" 
d="M94 0l142 662h-168l34 157h166l131 615h475q174 0 305 -78t199 -212t68 -304q0 -121 -29.5 -239.5t-92 -227.5t-151 -191.5t-216 -132t-277.5 -49.5h-586zM635 158q131 0 237.5 40t176 106t117 155t67.5 182.5t20 192.5q0 203 -109.5 322.5t-299.5 119.5h-289l-96 -457
h375l-35 -157h-375l-107 -504h318z" />
    <glyph glyph-name="Ntilde" unicode="&#xd1;" horiz-adv-x="1480" 
d="M63 0l306 1434h204l287 -662q169 -389 225 -545q27 150 111 555l137 652h185l-306 -1434h-200l-285 651q-180 421 -231 559q-30 -172 -111 -571l-137 -639h-185zM1155 1571q-39 0 -78 16.5t-65.5 36.5t-60.5 36.5t-64 16.5q-65 0 -90 -104h-113q23 108 81 166.5t140 58.5
q49 0 97.5 -26.5t92 -53t79.5 -26.5q67 0 92 104h112q-25 -108 -83 -166.5t-140 -58.5z" />
    <glyph glyph-name="Ograve" unicode="&#xd2;" horiz-adv-x="1574" 
d="M760 -33q-283 0 -458 174t-175 459q0 120 32.5 242t99 234.5t159 199t221.5 138.5t276 52q284 0 458.5 -173.5t174.5 -458.5q0 -100 -23.5 -202t-67.5 -199t-113 -181.5t-154 -148t-196 -100t-234 -36.5zM762 133q109 0 205.5 40.5t166 109t120.5 157t76.5 186
t25.5 193.5q0 217 -121.5 349t-321.5 132q-109 0 -205.5 -40.5t-166 -109t-120.5 -157t-76.5 -186t-25.5 -193.5q0 -217 121.5 -349t321.5 -132zM915 1550l-129 287h189l86 -287h-146z" />
    <glyph glyph-name="Oacute" unicode="&#xd3;" horiz-adv-x="1574" 
d="M760 -33q-283 0 -458 174t-175 459q0 120 32.5 242t99 234.5t159 199t221.5 138.5t276 52q284 0 458.5 -173.5t174.5 -458.5q0 -100 -23.5 -202t-67.5 -199t-113 -181.5t-154 -148t-196 -100t-234 -36.5zM762 133q109 0 205.5 40.5t166 109t120.5 157t76.5 186
t25.5 193.5q0 217 -121.5 349t-321.5 132q-109 0 -205.5 -40.5t-166 -109t-120.5 -157t-76.5 -186t-25.5 -193.5q0 -217 121.5 -349t321.5 -132zM897 1550l205 287h209l-248 -287h-166z" />
    <glyph glyph-name="Ocircumflex" unicode="&#xd4;" horiz-adv-x="1574" 
d="M760 -33q-283 0 -458 174t-175 459q0 120 32.5 242t99 234.5t159 199t221.5 138.5t276 52q284 0 458.5 -173.5t174.5 -458.5q0 -100 -23.5 -202t-67.5 -199t-113 -181.5t-154 -148t-196 -100t-234 -36.5zM762 133q109 0 205.5 40.5t166 109t120.5 157t76.5 186
t25.5 193.5q0 217 -121.5 349t-321.5 132q-109 0 -205.5 -40.5t-166 -109t-120.5 -157t-76.5 -186t-25.5 -193.5q0 -217 121.5 -349t321.5 -132zM674 1550l258 287h221l137 -287h-141l-117 201l-198 -201h-160z" />
    <glyph glyph-name="Otilde" unicode="&#xd5;" horiz-adv-x="1574" 
d="M760 -33q-283 0 -458 174t-175 459q0 120 32.5 242t99 234.5t159 199t221.5 138.5t276 52q284 0 458.5 -173.5t174.5 -458.5q0 -100 -23.5 -202t-67.5 -199t-113 -181.5t-154 -148t-196 -100t-234 -36.5zM762 133q109 0 205.5 40.5t166 109t120.5 157t76.5 186
t25.5 193.5q0 217 -121.5 349t-321.5 132q-109 0 -205.5 -40.5t-166 -109t-120.5 -157t-76.5 -186t-25.5 -193.5q0 -217 121.5 -349t321.5 -132zM1137 1571q-49 0 -97 26.5t-91.5 53t-80.5 26.5q-65 0 -90 -104h-112q23 108 81 166.5t140 58.5q39 0 78 -16.5t66 -36.5
t61 -36.5t63 -16.5q67 0 92 104h113q-25 -108 -83 -166.5t-140 -58.5z" />
    <glyph glyph-name="Odieresis" unicode="&#xd6;" horiz-adv-x="1574" 
d="M760 -33q-283 0 -458 174t-175 459q0 120 32.5 242t99 234.5t159 199t221.5 138.5t276 52q284 0 458.5 -173.5t174.5 -458.5q0 -100 -23.5 -202t-67.5 -199t-113 -181.5t-154 -148t-196 -100t-234 -36.5zM762 133q109 0 205.5 40.5t166 109t120.5 157t76.5 186
t25.5 193.5q0 217 -121.5 349t-321.5 132q-109 0 -205.5 -40.5t-166 -109t-120.5 -157t-76.5 -186t-25.5 -193.5q0 -217 121.5 -349t321.5 -132zM1057 1602l39 188h178l-39 -188h-178zM750 1602l38 188h179l-39 -188h-178z" />
    <glyph glyph-name="multiply" unicode="&#xd7;" horiz-adv-x="1212" 
d="M1014 260l-117 -96l-274 356l-443 -356l-94 112l446 361l-274 356l119 99l274 -359l443 359l92 -115l-445 -361z" />
    <glyph glyph-name="Oslash" unicode="&#xd8;" horiz-adv-x="1574" 
d="M760 -33q-277 0 -453 168l-153 -141l-97 100l164 150q-94 151 -94 356q0 120 32.5 242t99 234.5t159 199t221.5 138.5t276 52q282 0 455 -170l158 144l94 -101l-166 -151q92 -153 92 -354q0 -100 -23.5 -202t-67.5 -199t-113 -181.5t-154 -148t-196 -100t-234 -36.5z
M762 133q109 0 205.5 40.5t166 109t120.5 157t76.5 186t25.5 193.5q0 131 -47 234l-865 -793q124 -127 318 -127zM319 614q0 -129 48 -237l866 792q-122 131 -320 131q-109 0 -205.5 -40.5t-166 -109t-120.5 -157t-76.5 -186t-25.5 -193.5z" />
    <glyph glyph-name="Ugrave" unicode="&#xd9;" horiz-adv-x="1390" 
d="M678 -33q-105 0 -191 18.5t-147.5 53t-105 83.5t-63.5 110t-24 132.5t15 151.5l196 918h189l-197 -926q-37 -177 47.5 -276t280.5 -99q144 0 236 76t122 225l215 1000h189l-221 -1031q-44 -215 -181 -325.5t-360 -110.5zM838 1550l-129 287h188l86 -287h-145z" />
    <glyph glyph-name="Uacute" unicode="&#xda;" horiz-adv-x="1390" 
d="M678 -33q-105 0 -191 18.5t-147.5 53t-105 83.5t-63.5 110t-24 132.5t15 151.5l196 918h189l-197 -926q-37 -177 47.5 -276t280.5 -99q144 0 236 76t122 225l215 1000h189l-221 -1031q-44 -215 -181 -325.5t-360 -110.5zM819 1550l205 287h209l-248 -287h-166z" />
    <glyph glyph-name="Ucircumflex" unicode="&#xdb;" horiz-adv-x="1390" 
d="M678 -33q-105 0 -191 18.5t-147.5 53t-105 83.5t-63.5 110t-24 132.5t15 151.5l196 918h189l-197 -926q-37 -177 47.5 -276t280.5 -99q144 0 236 76t122 225l215 1000h189l-221 -1031q-44 -215 -181 -325.5t-360 -110.5zM596 1550l258 287h221l137 -287h-141l-117 201
l-198 -201h-160z" />
    <glyph glyph-name="Udieresis" unicode="&#xdc;" horiz-adv-x="1390" 
d="M678 -33q-105 0 -191 18.5t-147.5 53t-105 83.5t-63.5 110t-24 132.5t15 151.5l196 918h189l-197 -926q-37 -177 47.5 -276t280.5 -99q144 0 236 76t122 225l215 1000h189l-221 -1031q-44 -215 -181 -325.5t-360 -110.5zM979 1602l39 188h178l-39 -188h-178zM672 1602
l39 188h178l-39 -188h-178z" />
    <glyph glyph-name="Yacute" unicode="&#xdd;" horiz-adv-x="1271" 
d="M438 0l131 612l-331 822h196l254 -660l535 660h217l-682 -822l-131 -612h-189zM752 1550l204 287h209l-247 -287h-166z" />
    <glyph glyph-name="Thorn" unicode="&#xde;" horiz-adv-x="1300" 
d="M252 0h-189l306 1434h188l-55 -260h366q194 0 307 -103.5t113 -271.5q0 -212 -141 -349t-385 -137h-443zM754 471q155 0 250.5 83t95.5 230q0 107 -70 169.5t-188 62.5h-373l-117 -545h402z" />
    <glyph glyph-name="germandbls" unicode="&#xdf;" horiz-adv-x="1128" 
d="M573 -16q-122 0 -231 53l31 151q93 -57 192 -57q133 0 221 98t88 230q0 113 -86 186.5t-237 73.5h-10l28 139h72q118 0 189 77.5t71 178.5q0 86 -59.5 138.5t-149.5 52.5q-95 0 -165 -64.5t-97 -191.5l-227 -1049h-176l233 1083q38 180 162 275.5t283 95.5
q164 0 266 -93.5t102 -232.5q0 -114 -64 -208.5t-175 -131.5q104 -46 161.5 -131t57.5 -194q0 -89 -36 -175t-98 -153.5t-153 -109t-193 -41.5z" />
    <glyph glyph-name="agrave" unicode="&#xe0;" horiz-adv-x="1019" 
d="M334 -29q-79 0 -144.5 25.5t-109 80.5t-43.5 132q0 139 104.5 217t294.5 113l182 34q76 15 115 45t39 91q0 65 -60.5 103t-146.5 38q-90 0 -157 -44t-117 -151l-156 47q64 141 176.5 216t253.5 75q87 0 160.5 -23t126 -66t74 -112t2.5 -155l-137 -637h-162l26 123
q-63 -74 -151 -113t-170 -39zM371 109q66 0 133.5 26t122 81.5t69.5 127.5l33 152q-38 -30 -129 -52l-127 -28q-47 -10 -78.5 -19t-69.5 -24.5t-60.5 -33.5t-38 -46t-15.5 -62q0 -60 45 -91t115 -31zM553 1108l-129 287h188l86 -287h-145z" />
    <glyph glyph-name="aacute" unicode="&#xe1;" horiz-adv-x="1019" 
d="M334 -29q-79 0 -144.5 25.5t-109 80.5t-43.5 132q0 139 104.5 217t294.5 113l182 34q76 15 115 45t39 91q0 65 -60.5 103t-146.5 38q-90 0 -157 -44t-117 -151l-156 47q64 141 176.5 216t253.5 75q87 0 160.5 -23t126 -66t74 -112t2.5 -155l-137 -637h-162l26 123
q-63 -74 -151 -113t-170 -39zM371 109q66 0 133.5 26t122 81.5t69.5 127.5l33 152q-38 -30 -129 -52l-127 -28q-47 -10 -78.5 -19t-69.5 -24.5t-60.5 -33.5t-38 -46t-15.5 -62q0 -60 45 -91t115 -31zM535 1108l204 287h209l-248 -287h-165z" />
    <glyph glyph-name="acircumflex" unicode="&#xe2;" horiz-adv-x="1019" 
d="M334 -29q-79 0 -144.5 25.5t-109 80.5t-43.5 132q0 139 104.5 217t294.5 113l182 34q76 15 115 45t39 91q0 65 -60.5 103t-146.5 38q-90 0 -157 -44t-117 -151l-156 47q64 141 176.5 216t253.5 75q87 0 160.5 -23t126 -66t74 -112t2.5 -155l-137 -637h-162l26 123
q-63 -74 -151 -113t-170 -39zM371 109q66 0 133.5 26t122 81.5t69.5 127.5l33 152q-38 -30 -129 -52l-127 -28q-47 -10 -78.5 -19t-69.5 -24.5t-60.5 -33.5t-38 -46t-15.5 -62q0 -60 45 -91t115 -31zM311 1108l258 287h222l137 -287h-142l-116 201l-199 -201h-160z" />
    <glyph glyph-name="atilde" unicode="&#xe3;" horiz-adv-x="1019" 
d="M334 -29q-79 0 -144.5 25.5t-109 80.5t-43.5 132q0 139 104.5 217t294.5 113l182 34q76 15 115 45t39 91q0 65 -60.5 103t-146.5 38q-90 0 -157 -44t-117 -151l-156 47q64 141 176.5 216t253.5 75q87 0 160.5 -23t126 -66t74 -112t2.5 -155l-137 -637h-162l26 123
q-63 -74 -151 -113t-170 -39zM371 109q66 0 133.5 26t122 81.5t69.5 127.5l33 152q-38 -30 -129 -52l-127 -28q-47 -10 -78.5 -19t-69.5 -24.5t-60.5 -33.5t-38 -46t-15.5 -62q0 -60 45 -91t115 -31zM774 1128q-49 0 -97 27t-91 53.5t-80 26.5q-65 0 -90 -105h-113
q23 108 81 167t140 59q39 0 78.5 -16.5t66.5 -37t61 -37t63 -16.5q67 0 92 105h112q-25 -108 -83 -167t-140 -59z" />
    <glyph glyph-name="adieresis" unicode="&#xe4;" horiz-adv-x="1019" 
d="M334 -29q-79 0 -144.5 25.5t-109 80.5t-43.5 132q0 139 104.5 217t294.5 113l182 34q76 15 115 45t39 91q0 65 -60.5 103t-146.5 38q-90 0 -157 -44t-117 -151l-156 47q64 141 176.5 216t253.5 75q87 0 160.5 -23t126 -66t74 -112t2.5 -155l-137 -637h-162l26 123
q-63 -74 -151 -113t-170 -39zM371 109q66 0 133.5 26t122 81.5t69.5 127.5l33 152q-38 -30 -129 -52l-127 -28q-47 -10 -78.5 -19t-69.5 -24.5t-60.5 -33.5t-38 -46t-15.5 -62q0 -60 45 -91t115 -31zM694 1159l39 189h178l-39 -189h-178zM387 1159l39 189h178l-39 -189h-178
z" />
    <glyph glyph-name="aring" unicode="&#xe5;" horiz-adv-x="1019" 
d="M334 -29q-79 0 -144.5 25.5t-109 80.5t-43.5 132q0 139 104.5 217t294.5 113l182 34q76 15 115 45t39 91q0 65 -60.5 103t-146.5 38q-90 0 -157 -44t-117 -151l-156 47q64 141 176.5 216t253.5 75q87 0 160.5 -23t126 -66t74 -112t2.5 -155l-137 -637h-162l26 123
q-63 -74 -151 -113t-170 -39zM371 109q66 0 133.5 26t122 81.5t69.5 127.5l33 152q-38 -30 -129 -52l-127 -28q-47 -10 -78.5 -19t-69.5 -24.5t-60.5 -33.5t-38 -46t-15.5 -62q0 -60 45 -91t115 -31zM659 1098q-82 0 -140 55t-58 133t58 133.5t140 55.5q80 0 138.5 -55.5
t58.5 -133.5t-58.5 -133t-138.5 -55zM659 1188q40 0 67.5 28t27.5 70t-27.5 70t-67.5 28t-68 -28t-28 -70t28 -70t68 -28z" />
    <glyph glyph-name="ae" unicode="&#xe6;" horiz-adv-x="1687" 
d="M1135 -29q-134 0 -236 59t-151 167q-80 -115 -192 -170.5t-226 -55.5q-125 0 -209 63.5t-84 172.5q0 66 24.5 118t62 86.5t97.5 61.5t116.5 42t133.5 30l147 28q78 15 116 44.5t38 91.5q0 65 -60.5 103t-146.5 38q-183 0 -274 -195l-156 47q64 141 176.5 216t253.5 75
q113 0 201.5 -38.5t130.5 -110.5q139 149 340 149q172 0 278.5 -103.5t106.5 -283.5q0 -62 -16 -131h-717q-4 -50 -4 -69q0 -127 65.5 -207t194.5 -80q87 0 154.5 43.5t127.5 142.5l148 -57q-157 -277 -440 -277zM375 109q100 0 199.5 64.5t121.5 170.5l33 152
q-38 -30 -129 -52l-127 -28q-48 -11 -76.5 -19t-68.5 -24t-62 -33.5t-38.5 -46.5t-16.5 -64q0 -59 46 -89.5t118 -30.5zM924 608h528q3 108 -55 175t-172 67q-109 0 -184.5 -68t-116.5 -174z" />
    <glyph glyph-name="ccedilla" unicode="&#xe7;" horiz-adv-x="1005" 
d="M414 -475q-67 0 -128 28.5t-98 88.5l103 53q41 -66 131 -66q43 0 74.5 22t31.5 56q0 36 -32.5 54t-69.5 18q-29 0 -59 -6l-45 55l102 147q-161 19 -258.5 128t-97.5 286q0 86 21.5 171t66 163t106.5 138t150.5 96t191.5 36q143 0 243.5 -72.5t131.5 -213.5l-150 -58
q-45 195 -231 195q-83 0 -151.5 -43t-109.5 -110.5t-63 -143t-22 -146.5q0 -126 63.5 -203t184.5 -77q85 0 150.5 43t125.5 145l146 -65q-141 -253 -394 -271l-73 -108q82 -3 132 -44.5t50 -103.5q0 -82 -63 -137t-160 -55z" />
    <glyph glyph-name="egrave" unicode="&#xe8;" horiz-adv-x="1044" 
d="M494 -29q-194 0 -310 115t-116 309q0 105 36 210t101 192t167 141.5t222 54.5q173 0 279 -103.5t106 -283.5q0 -62 -16 -131h-717q-4 -50 -4 -69q0 -127 65.5 -207t194.5 -80q87 0 154.5 43.5t127.5 142.5l148 -57q-155 -277 -438 -277zM567 1108l-129 287h189l86 -287
h-146zM281 608h528q3 108 -55 175t-172 67q-108 0 -184 -68t-117 -174z" />
    <glyph glyph-name="eacute" unicode="&#xe9;" horiz-adv-x="1044" 
d="M494 -29q-194 0 -310 115t-116 309q0 105 36 210t101 192t167 141.5t222 54.5q173 0 279 -103.5t106 -283.5q0 -62 -16 -131h-717q-4 -50 -4 -69q0 -127 65.5 -207t194.5 -80q87 0 154.5 43.5t127.5 142.5l148 -57q-155 -277 -438 -277zM549 1108l205 287h209l-248 -287
h-166zM281 608h528q3 108 -55 175t-172 67q-108 0 -184 -68t-117 -174z" />
    <glyph glyph-name="ecircumflex" unicode="&#xea;" horiz-adv-x="1044" 
d="M494 -29q-194 0 -310 115t-116 309q0 105 36 210t101 192t167 141.5t222 54.5q173 0 279 -103.5t106 -283.5q0 -62 -16 -131h-717q-4 -50 -4 -69q0 -127 65.5 -207t194.5 -80q87 0 154.5 43.5t127.5 142.5l148 -57q-155 -277 -438 -277zM326 1108l258 287h221l137 -287
h-141l-117 201l-199 -201h-159zM281 608h528q3 108 -55 175t-172 67q-108 0 -184 -68t-117 -174z" />
    <glyph glyph-name="edieresis" unicode="&#xeb;" horiz-adv-x="1044" 
d="M494 -29q-194 0 -310 115t-116 309q0 105 36 210t101 192t167 141.5t222 54.5q173 0 279 -103.5t106 -283.5q0 -62 -16 -131h-717q-4 -50 -4 -69q0 -127 65.5 -207t194.5 -80q87 0 154.5 43.5t127.5 142.5l148 -57q-155 -277 -438 -277zM709 1159l39 189h178l-39 -189
h-178zM401 1159l39 189h178l-38 -189h-179zM281 608h528q3 108 -55 175t-172 67q-108 0 -184 -68t-117 -174z" />
    <glyph glyph-name="igrave" unicode="&#xec;" horiz-adv-x="438" 
d="M27 0l209 965h176l-209 -965h-176zM287 1108l-129 287h188l86 -287h-145z" />
    <glyph glyph-name="iacute" unicode="&#xed;" horiz-adv-x="438" 
d="M27 0l209 965h176l-209 -965h-176zM268 1108l205 287h209l-248 -287h-166z" />
    <glyph glyph-name="icircumflex" unicode="&#xee;" horiz-adv-x="438" 
d="M27 0l209 965h176l-209 -965h-176zM45 1108l258 287h221l138 -287h-142l-117 201l-198 -201h-160z" />
    <glyph glyph-name="idieresis" unicode="&#xef;" horiz-adv-x="438" 
d="M27 0l209 965h176l-209 -965h-176zM428 1159l39 189h178l-39 -189h-178zM121 1159l39 189h178l-39 -189h-178z" />
    <glyph glyph-name="eth" unicode="&#xf0;" horiz-adv-x="1120" 
d="M494 -29q-195 0 -310.5 121t-115.5 311q0 141 64 267.5t181.5 207t259.5 80.5q129 0 220 -61t129 -162q13 300 -166 445l-228 -129l-45 88l181 102q-89 45 -222 70l70 143q186 -35 313 -121l222 125l43 -86l-185 -104q182 -179 182 -486q0 -90 -15.5 -182t-46 -183.5
t-80 -171.5t-113 -141.5t-151 -97t-187.5 -35.5zM504 125q73 0 139.5 35t111 91t71 125.5t26.5 139.5q0 127 -78 209t-190 82q-79 0 -144.5 -37t-106 -96t-63 -128.5t-22.5 -137.5q0 -128 72 -205.5t184 -77.5z" />
    <glyph glyph-name="ntilde" unicode="&#xf1;" horiz-adv-x="1030" 
d="M27 0l206 965h164l-26 -117q67 73 146 109t159 36q155 0 223.5 -106.5t36.5 -259.5l-133 -627h-176l125 592q25 115 -9 182.5t-139 67.5q-37 0 -77.5 -15.5t-80.5 -45.5t-72.5 -82.5t-47.5 -118.5l-123 -580h-176zM817 1128q-49 0 -97 27t-91 53.5t-80 26.5
q-65 0 -90 -105h-113q23 108 81 167t140 59q39 0 78.5 -16.5t66.5 -37t61 -37t63 -16.5q67 0 92 105h112q-25 -108 -83 -167t-140 -59z" />
    <glyph glyph-name="ograve" unicode="&#xf2;" horiz-adv-x="1099" 
d="M489 -29q-188 0 -304.5 116.5t-116.5 311.5q0 79 21 160.5t65.5 159.5t106.5 139t153 98t196 37q188 0 305 -116.5t117 -311.5q0 -79 -21 -160.5t-65.5 -159.5t-107 -139t-153.5 -98t-196 -37zM500 119q85 0 154.5 42.5t111 109.5t64 142t22.5 146q0 128 -68.5 207.5
t-183.5 79.5q-85 0 -154.5 -42.5t-111 -109.5t-64 -142t-22.5 -146q0 -128 68.5 -207.5t183.5 -79.5zM582 1108l-129 287h188l86 -287h-145z" />
    <glyph glyph-name="oacute" unicode="&#xf3;" horiz-adv-x="1099" 
d="M489 -29q-188 0 -304.5 116.5t-116.5 311.5q0 79 21 160.5t65.5 159.5t106.5 139t153 98t196 37q188 0 305 -116.5t117 -311.5q0 -79 -21 -160.5t-65.5 -159.5t-107 -139t-153.5 -98t-196 -37zM500 119q85 0 154.5 42.5t111 109.5t64 142t22.5 146q0 128 -68.5 207.5
t-183.5 79.5q-85 0 -154.5 -42.5t-111 -109.5t-64 -142t-22.5 -146q0 -128 68.5 -207.5t183.5 -79.5zM563 1108l205 287h209l-248 -287h-166z" />
    <glyph glyph-name="ocircumflex" unicode="&#xf4;" horiz-adv-x="1099" 
d="M489 -29q-188 0 -304.5 116.5t-116.5 311.5q0 79 21 160.5t65.5 159.5t106.5 139t153 98t196 37q188 0 305 -116.5t117 -311.5q0 -79 -21 -160.5t-65.5 -159.5t-107 -139t-153.5 -98t-196 -37zM500 119q85 0 154.5 42.5t111 109.5t64 142t22.5 146q0 128 -68.5 207.5
t-183.5 79.5q-85 0 -154.5 -42.5t-111 -109.5t-64 -142t-22.5 -146q0 -128 68.5 -207.5t183.5 -79.5zM340 1108l258 287h221l137 -287h-141l-117 201l-198 -201h-160z" />
    <glyph glyph-name="otilde" unicode="&#xf5;" horiz-adv-x="1099" 
d="M489 -29q-188 0 -304.5 116.5t-116.5 311.5q0 79 21 160.5t65.5 159.5t106.5 139t153 98t196 37q188 0 305 -116.5t117 -311.5q0 -79 -21 -160.5t-65.5 -159.5t-107 -139t-153.5 -98t-196 -37zM500 119q85 0 154.5 42.5t111 109.5t64 142t22.5 146q0 128 -68.5 207.5
t-183.5 79.5q-85 0 -154.5 -42.5t-111 -109.5t-64 -142t-22.5 -146q0 -128 68.5 -207.5t183.5 -79.5zM803 1128q-49 0 -97 27t-91 53.5t-80 26.5q-66 0 -91 -105h-112q23 108 81 167t140 59q49 0 97.5 -27t91.5 -53.5t79 -26.5q67 0 92 105h113q-25 -108 -83 -167t-140 -59z
" />
    <glyph glyph-name="odieresis" unicode="&#xf6;" horiz-adv-x="1099" 
d="M489 -29q-188 0 -304.5 116.5t-116.5 311.5q0 79 21 160.5t65.5 159.5t106.5 139t153 98t196 37q188 0 305 -116.5t117 -311.5q0 -79 -21 -160.5t-65.5 -159.5t-107 -139t-153.5 -98t-196 -37zM500 119q85 0 154.5 42.5t111 109.5t64 142t22.5 146q0 128 -68.5 207.5
t-183.5 79.5q-85 0 -154.5 -42.5t-111 -109.5t-64 -142t-22.5 -146q0 -128 68.5 -207.5t183.5 -79.5zM723 1159l39 189h178l-39 -189h-178zM416 1159l39 189h178l-39 -189h-178z" />
    <glyph glyph-name="divide" unicode="&#xf7;" horiz-adv-x="1210" 
d="M1176 702l-31 -151h-1049l31 151h1049zM688 377l-47 -223h-207l47 223h207zM840 1098l-45 -221h-207l45 221h207z" />
    <glyph glyph-name="oslash" unicode="&#xf8;" horiz-adv-x="1099" 
d="M489 -29q-150 0 -260 80l-90 -98l-88 78l94 102q-77 110 -77 266q0 79 21 160.5t65.5 159.5t106.5 139t153 98t196 37q151 0 258 -78l90 99l89 -74l-97 -104q82 -108 82 -271q0 -79 -21 -160.5t-65.5 -159.5t-107 -139t-153.5 -98t-196 -37zM500 119q85 0 154.5 42.5
t111 109.5t64 142t22.5 146q0 73 -27 139l-483 -524q64 -55 158 -55zM248 406q0 -78 24 -136l484 525q-63 51 -156 51q-85 0 -154.5 -42.5t-111 -109.5t-64 -142t-22.5 -146z" />
    <glyph glyph-name="ugrave" unicode="&#xf9;" horiz-adv-x="1024" 
d="M352 -29q-105 0 -171.5 51.5t-87 134t0.5 181.5l133 627h176l-124 -592q-13 -71 -8 -126.5t43.5 -89.5t109.5 -34q81 0 164 67.5t110 194.5l123 580h176l-204 -965h-164l24 117q-66 -73 -144 -109.5t-157 -36.5zM557 1108l-129 287h188l86 -287h-145z" />
    <glyph glyph-name="uacute" unicode="&#xfa;" horiz-adv-x="1024" 
d="M352 -29q-105 0 -171.5 51.5t-87 134t0.5 181.5l133 627h176l-124 -592q-13 -71 -8 -126.5t43.5 -89.5t109.5 -34q81 0 164 67.5t110 194.5l123 580h176l-204 -965h-164l24 117q-66 -73 -144 -109.5t-157 -36.5zM539 1108l204 287h209l-247 -287h-166z" />
    <glyph glyph-name="ucircumflex" unicode="&#xfb;" horiz-adv-x="1024" 
d="M352 -29q-105 0 -171.5 51.5t-87 134t0.5 181.5l133 627h176l-124 -592q-13 -71 -8 -126.5t43.5 -89.5t109.5 -34q81 0 164 67.5t110 194.5l123 580h176l-204 -965h-164l24 117q-66 -73 -144 -109.5t-157 -36.5zM315 1108l258 287h222l137 -287h-141l-117 201l-199 -201
h-160z" />
    <glyph glyph-name="udieresis" unicode="&#xfc;" horiz-adv-x="1024" 
d="M352 -29q-105 0 -171.5 51.5t-87 134t0.5 181.5l133 627h176l-124 -592q-13 -71 -8 -126.5t43.5 -89.5t109.5 -34q81 0 164 67.5t110 194.5l123 580h176l-204 -965h-164l24 117q-66 -73 -144 -109.5t-157 -36.5zM698 1159l39 189h178l-38 -189h-179zM391 1159l39 189h178
l-39 -189h-178z" />
    <glyph glyph-name="yacute" unicode="&#xfd;" horiz-adv-x="946" 
d="M23 -430q-64 0 -138 18l31 146q71 -23 125 -23q58 0 100.5 32.5t87.5 115.5l47 88l-139 1018h178l37 -314q22 -178 54 -473l251 477l172 310h185l-645 -1151q-74 -132 -148.5 -188t-197.5 -56zM506 1108l205 287h209l-248 -287h-166z" />
    <glyph glyph-name="thorn" unicode="&#xfe;" horiz-adv-x="1091" 
d="M-61 -410l393 1844h176l-119 -570q53 61 130 95t155 34q163 0 257.5 -113t94.5 -296q0 -109 -34.5 -216.5t-97.5 -196.5t-163.5 -144.5t-220.5 -55.5q-89 0 -168 39.5t-117 104.5l-110 -525h-176zM508 123q80 0 146.5 43t107 110t62.5 143.5t22 149.5q0 122 -57 197.5
t-162 75.5q-81 0 -149 -46.5t-108.5 -118t-62.5 -149.5t-22 -149q0 -121 60.5 -188.5t162.5 -67.5z" />
    <glyph glyph-name="ydieresis" unicode="&#xff;" horiz-adv-x="946" 
d="M23 -430q-64 0 -138 18l31 146q71 -23 125 -23q58 0 100.5 32.5t87.5 115.5l47 88l-139 1018h178l37 -314q22 -178 54 -473l251 477l172 310h185l-645 -1151q-74 -132 -148.5 -188t-197.5 -56zM666 1159l39 189h178l-39 -189h-178zM358 1159l39 189h178l-38 -189h-179z
" />
    <glyph glyph-name="Amacron" unicode="&#x100;" horiz-adv-x="1353" 
d="M-70 0l824 1434h247l218 -1434h-191l-51 362h-645l-207 -362h-195zM629 1612l28 133h568l-29 -133h-567zM422 520h532l-26 191q-7 46 -23.5 156t-23.5 160.5t-16.5 127t-14.5 137.5q-41 -79 -87.5 -164t-126 -226.5t-108.5 -192.5z" />
    <glyph glyph-name="amacron" unicode="&#x101;" horiz-adv-x="1019" 
d="M334 -29q-79 0 -144.5 25.5t-109 80.5t-43.5 132q0 139 104.5 217t294.5 113l182 34q76 15 115 45t39 91q0 65 -60.5 103t-146.5 38q-90 0 -157 -44t-117 -151l-156 47q64 141 176.5 216t253.5 75q87 0 160.5 -23t126 -66t74 -112t2.5 -155l-137 -637h-162l26 123
q-63 -74 -151 -113t-170 -39zM371 109q66 0 133.5 26t122 81.5t69.5 127.5l33 152q-38 -30 -129 -52l-127 -28q-47 -10 -78.5 -19t-69.5 -24.5t-60.5 -33.5t-38 -46t-15.5 -62q0 -60 45 -91t115 -31zM348 1169l29 134h567l-29 -134h-567z" />
    <glyph glyph-name="Abreve" unicode="&#x102;" horiz-adv-x="1353" 
d="M-70 0l824 1434h247l218 -1434h-191l-51 362h-645l-207 -362h-195zM932 1544q-131 0 -207 74.5t-63 191.5h129q-7 -64 35 -106.5t114 -42.5t117.5 41.5t58.5 107.5h129q-17 -126 -102 -196t-211 -70zM422 520h532l-26 191q-7 46 -23.5 156t-23.5 160.5t-16.5 127
t-14.5 137.5q-41 -79 -87.5 -164t-126 -226.5t-108.5 -192.5z" />
    <glyph glyph-name="abreve" unicode="&#x103;" horiz-adv-x="1019" 
d="M334 -29q-79 0 -144.5 25.5t-109 80.5t-43.5 132q0 139 104.5 217t294.5 113l182 34q76 15 115 45t39 91q0 65 -60.5 103t-146.5 38q-90 0 -157 -44t-117 -151l-156 47q64 141 176.5 216t253.5 75q87 0 160.5 -23t126 -66t74 -112t2.5 -155l-137 -637h-162l26 123
q-63 -74 -151 -113t-170 -39zM371 109q66 0 133.5 26t122 81.5t69.5 127.5l33 152q-38 -30 -129 -52l-127 -28q-47 -10 -78.5 -19t-69.5 -24.5t-60.5 -33.5t-38 -46t-15.5 -62q0 -60 45 -91t115 -31zM651 1102q-131 0 -207 74.5t-63 191.5h129q-8 -64 34.5 -106.5
t114.5 -42.5t118 41.5t59 107.5h129q-17 -126 -102.5 -196t-211.5 -70z" />
    <glyph glyph-name="Aogonek" unicode="&#x104;" horiz-adv-x="1353" 
d="M-70 0l824 1434h247l218 -1434q-211 -117 -211 -231q0 -41 31 -59.5t77 -18.5q17 0 33 2l-23 -109q-32 -4 -67 -4q-77 0 -129.5 40.5t-52.5 117.5q0 140 192 262h-41l-51 362h-645l-207 -362h-195zM422 520h532l-26 191q-7 46 -23.5 156t-23.5 160.5t-16.5 127
t-14.5 137.5q-41 -79 -87.5 -164t-126 -226.5t-108.5 -192.5z" />
    <glyph glyph-name="aogonek" unicode="&#x105;" horiz-adv-x="1019" 
d="M334 -29q-79 0 -144.5 25.5t-109 80.5t-43.5 132q0 139 104.5 217t294.5 113l182 34q76 15 115 45t39 91q0 65 -60.5 103t-146.5 38q-90 0 -157 -44t-117 -151l-156 47q64 141 176.5 216t253.5 75q87 0 160.5 -23t126 -66t74 -112t2.5 -155l-137 -637
q-211 -117 -211 -231q0 -41 31 -59.5t77 -18.5q17 0 33 2l-23 -109q-32 -4 -67 -4q-77 0 -129.5 40.5t-52.5 117.5q0 140 192 262h-12l26 123q-63 -74 -151 -113t-170 -39zM371 109q66 0 133.5 26t122 81.5t69.5 127.5l33 152q-38 -30 -129 -52l-127 -28q-47 -10 -78.5 -19
t-69.5 -24.5t-60.5 -33.5t-38 -46t-15.5 -62q0 -60 45 -91t115 -31z" />
    <glyph glyph-name="Cacute" unicode="&#x106;" horiz-adv-x="1378" 
d="M721 -33q-267 0 -431.5 165.5t-164.5 449.5q0 124 30 248t93.5 238.5t151.5 203t214 141.5t271 53q212 0 360.5 -104.5t188.5 -308.5l-177 -49q-30 141 -125.5 218.5t-252.5 77.5q-92 0 -173.5 -31t-142 -84.5t-108.5 -122.5t-77.5 -148t-45 -159t-15.5 -157
q0 -213 114 -339t308 -126q140 0 241.5 72.5t178.5 218.5l176 -55q-54 -109 -127.5 -189t-155 -125.5t-163.5 -66.5t-168 -21zM879 1550l204 287h209l-248 -287h-165z" />
    <glyph glyph-name="cacute" unicode="&#x107;" horiz-adv-x="1005" 
d="M487 -29q-186 0 -302.5 111.5t-116.5 306.5q0 86 21.5 171t66 163t106.5 138t150.5 96t191.5 36q143 0 243.5 -72.5t131.5 -213.5l-150 -58q-45 195 -231 195q-83 0 -151.5 -43t-109.5 -110.5t-63 -143t-22 -146.5q0 -126 63.5 -203t184.5 -77q85 0 150.5 43t125.5 145
l146 -65q-153 -273 -435 -273zM557 1108l205 287h209l-248 -287h-166z" />
    <glyph glyph-name="Cdotaccent" unicode="&#x10a;" horiz-adv-x="1378" 
d="M721 -33q-267 0 -431.5 165.5t-164.5 449.5q0 124 30 248t93.5 238.5t151.5 203t214 141.5t271 53q212 0 360.5 -104.5t188.5 -308.5l-177 -49q-30 141 -125.5 218.5t-252.5 77.5q-92 0 -173.5 -31t-142 -84.5t-108.5 -122.5t-77.5 -148t-45 -159t-15.5 -157
q0 -213 114 -339t308 -126q140 0 241.5 72.5t178.5 218.5l176 -55q-54 -109 -127.5 -189t-155 -125.5t-163.5 -66.5t-168 -21zM881 1602l39 188h188l-39 -188h-188z" />
    <glyph glyph-name="cdotaccent" unicode="&#x10b;" horiz-adv-x="1005" 
d="M487 -29q-186 0 -302.5 111.5t-116.5 306.5q0 86 21.5 171t66 163t106.5 138t150.5 96t191.5 36q143 0 243.5 -72.5t131.5 -213.5l-150 -58q-45 195 -231 195q-83 0 -151.5 -43t-109.5 -110.5t-63 -143t-22 -146.5q0 -126 63.5 -203t184.5 -77q85 0 150.5 43t125.5 145
l146 -65q-153 -273 -435 -273zM559 1159l39 189h188l-38 -189h-189z" />
    <glyph glyph-name="Ccaron" unicode="&#x10c;" horiz-adv-x="1378" 
d="M721 -33q-267 0 -431.5 165.5t-164.5 449.5q0 124 30 248t93.5 238.5t151.5 203t214 141.5t271 53q212 0 360.5 -104.5t188.5 -308.5l-177 -49q-30 141 -125.5 218.5t-252.5 77.5q-92 0 -173.5 -31t-142 -84.5t-108.5 -122.5t-77.5 -148t-45 -159t-15.5 -157
q0 -213 114 -339t308 -126q140 0 241.5 72.5t178.5 218.5l176 -55q-54 -109 -127.5 -189t-155 -125.5t-163.5 -66.5t-168 -21zM854 1550l-139 287h145l115 -199l201 199h155l-256 -287h-221z" />
    <glyph glyph-name="ccaron" unicode="&#x10d;" horiz-adv-x="1005" 
d="M487 -29q-186 0 -302.5 111.5t-116.5 306.5q0 86 21.5 171t66 163t106.5 138t150.5 96t191.5 36q143 0 243.5 -72.5t131.5 -213.5l-150 -58q-45 195 -231 195q-83 0 -151.5 -43t-109.5 -110.5t-63 -143t-22 -146.5q0 -126 63.5 -203t184.5 -77q85 0 150.5 43t125.5 145
l146 -65q-153 -273 -435 -273zM532 1108l-139 287h146l114 -199l201 199h156l-256 -287h-222z" />
    <glyph glyph-name="Dcaron" unicode="&#x10e;" horiz-adv-x="1441" 
d="M63 0l306 1434h475q174 0 305 -78t198.5 -212t67.5 -304q0 -121 -29.5 -239.5t-92 -227.5t-151 -191.5t-216 -132t-277.5 -49.5h-586zM604 158q131 0 237.5 40t176.5 106t117 155t67.5 182.5t20.5 192.5q0 203 -110 322.5t-300 119.5h-289l-237 -1118h317zM801 1550
l-139 287h145l115 -199l200 199h156l-256 -287h-221z" />
    <glyph glyph-name="dcaron" unicode="&#x10f;" horiz-adv-x="1288" 
d="M422 -29q-164 0 -259 115t-95 299q0 86 21 172t64 164.5t102.5 139t144.5 96.5t182 36q94 0 170.5 -41t113.5 -118l129 600h176l-307 -1434h-164l21 102q-54 -61 -139.5 -96t-159.5 -35zM467 123q82 0 150 45.5t108.5 116t63 148.5t22.5 151q0 120 -60 189t-167 69
q-80 0 -146.5 -43t-106.5 -111t-61.5 -144.5t-21.5 -148.5q0 -125 56.5 -198.5t162.5 -73.5zM1194 1032l147 402h185l-209 -402h-123z" />
    <glyph glyph-name="Dcroat" unicode="&#x110;" horiz-adv-x="1472" 
d="M94 0l142 662h-168l34 157h166l131 615h475q174 0 305 -78t199 -212t68 -304q0 -121 -29.5 -239.5t-92 -227.5t-151 -191.5t-216 -132t-277.5 -49.5h-586zM635 158q131 0 237.5 40t176 106t117 155t67.5 182.5t20 192.5q0 203 -109.5 322.5t-299.5 119.5h-289l-96 -457
h375l-35 -157h-375l-107 -504h318z" />
    <glyph glyph-name="dcroat" unicode="&#x111;" horiz-adv-x="1097" 
d="M422 -29q-164 0 -259 115t-95 299q0 86 21 172t64 164.5t102.5 139t144.5 96.5t182 36q94 0 170.5 -41t113.5 -118l68 311h-260l28 125h259l34 164h176l-34 -164h127l-29 -125h-125l-246 -1145h-164l21 102q-54 -61 -139.5 -96t-159.5 -35zM467 123q82 0 150 45.5
t108.5 116t63 148.5t22.5 151q0 120 -60 189t-167 69q-80 0 -146.5 -43t-106.5 -111t-61.5 -144.5t-21.5 -148.5q0 -125 56.5 -198.5t162.5 -73.5z" />
    <glyph glyph-name="Emacron" unicode="&#x112;" horiz-adv-x="1212" 
d="M63 0l306 1434h936l-35 -158h-746l-98 -459h676l-35 -158h-674l-106 -501h764l-35 -158h-953zM618 1612l29 133h567l-28 -133h-568z" />
    <glyph glyph-name="emacron" unicode="&#x113;" horiz-adv-x="1044" 
d="M494 -29q-194 0 -310 115t-116 309q0 105 36 210t101 192t167 141.5t222 54.5q173 0 279 -103.5t106 -283.5q0 -62 -16 -131h-717q-4 -50 -4 -69q0 -127 65.5 -207t194.5 -80q87 0 154.5 43.5t127.5 142.5l148 -57q-155 -277 -438 -277zM362 1169l29 134h567l-28 -134
h-568zM281 608h528q3 108 -55 175t-172 67q-108 0 -184 -68t-117 -174z" />
    <glyph glyph-name="Edotaccent" unicode="&#x116;" horiz-adv-x="1212" 
d="M63 0l306 1434h936l-35 -158h-746l-98 -459h676l-35 -158h-674l-106 -501h764l-35 -158h-953zM807 1602l39 188h188l-39 -188h-188z" />
    <glyph glyph-name="edotaccent" unicode="&#x117;" horiz-adv-x="1044" 
d="M494 -29q-194 0 -310 115t-116 309q0 105 36 210t101 192t167 141.5t222 54.5q173 0 279 -103.5t106 -283.5q0 -62 -16 -131h-717q-4 -50 -4 -69q0 -127 65.5 -207t194.5 -80q87 0 154.5 43.5t127.5 142.5l148 -57q-155 -277 -438 -277zM551 1159l39 189h188l-39 -189
h-188zM281 608h528q3 108 -55 175t-172 67q-108 0 -184 -68t-117 -174z" />
    <glyph glyph-name="Eogonek" unicode="&#x118;" horiz-adv-x="1212" 
d="M63 0l306 1434h936l-35 -158h-746l-98 -459h676l-35 -158h-674l-106 -501h764l-35 -158q-211 -117 -211 -231q0 -41 31 -59.5t77 -18.5q17 0 33 2l-22 -109q-32 -4 -68 -4q-77 0 -129.5 40.5t-52.5 117.5q0 140 192 262h-803z" />
    <glyph glyph-name="eogonek" unicode="&#x119;" horiz-adv-x="1044" 
d="M494 -29q-194 0 -310 115t-116 309q0 105 36 210t101 192t167 141.5t222 54.5q173 0 279 -103.5t106 -283.5q0 -62 -16 -131h-717q-4 -50 -4 -69q0 -127 65.5 -207t194.5 -80q87 0 154.5 43.5t127.5 142.5l148 -57q-55 -98 -129 -166q-111 -119 -147 -169
q-60 -84 -60 -140q0 -80 113 -80q12 0 26 2l-24 -111q-27 -6 -60 -6q-79 0 -133.5 40t-54.5 118q0 108 119 241q-44 -6 -88 -6zM281 608h528q3 108 -55 175t-172 67q-108 0 -184 -68t-117 -174z" />
    <glyph glyph-name="Ecaron" unicode="&#x11a;" horiz-adv-x="1212" 
d="M63 0l306 1434h936l-35 -158h-746l-98 -459h676l-35 -158h-674l-106 -501h764l-35 -158h-953zM780 1550l-139 287h145l115 -199l201 199h155l-256 -287h-221z" />
    <glyph glyph-name="ecaron" unicode="&#x11b;" horiz-adv-x="1044" 
d="M494 -29q-194 0 -310 115t-116 309q0 105 36 210t101 192t167 141.5t222 54.5q173 0 279 -103.5t106 -283.5q0 -62 -16 -131h-717q-4 -50 -4 -69q0 -127 65.5 -207t194.5 -80q87 0 154.5 43.5t127.5 142.5l148 -57q-155 -277 -438 -277zM524 1108l-139 287h145l115 -199
l201 199h155l-256 -287h-221zM281 608h528q3 108 -55 175t-172 67q-108 0 -184 -68t-117 -174z" />
    <glyph glyph-name="Gbreve" unicode="&#x11e;" horiz-adv-x="1503" 
d="M723 -31q-127 0 -236.5 43t-189 121.5t-125 196t-45.5 260.5q0 126 32 250t98 236.5t157.5 199t220.5 137.5t278 51q122 0 222 -32t168 -89t111 -130.5t61 -161.5l-179 -47q-29 137 -126.5 215.5t-262.5 78.5q-113 0 -210.5 -42.5t-165.5 -112.5t-117 -160t-72 -186.5
t-23 -190.5q0 -209 114.5 -341t311.5 -132q98 0 187 32t159 104.5t91 174.5l32 150h-415l35 158h591l-159 -752h-170l24 121q-72 -79 -180 -115.5t-217 -36.5zM1024 1544q-131 0 -207 74.5t-63 191.5h129q-7 -64 35 -106.5t114 -42.5t117.5 41.5t58.5 107.5h129
q-17 -126 -102 -196t-211 -70z" />
    <glyph glyph-name="gbreve" unicode="&#x11f;" horiz-adv-x="1099" 
d="M399 -436q-168 0 -282 76t-135 225l163 45q12 -95 82 -148t183 -53q219 0 268 232l43 198q-54 -59 -134 -93t-163 -34q-69 0 -131 24t-111.5 71.5t-78.5 125.5t-29 177q0 79 21 160.5t64.5 157.5t104.5 135t147 94.5t185 35.5q92 0 167 -41t111 -118l33 131h166
l-227 -1049q-34 -165 -152.5 -258.5t-294.5 -93.5zM477 162q79 0 145 41.5t106.5 107t62.5 140t22 145.5q0 120 -60 183t-157 63q-67 0 -124.5 -27.5t-96.5 -72t-67 -100.5t-41 -112t-13 -108q0 -119 59.5 -189.5t163.5 -70.5zM670 1102q-131 0 -207.5 74.5t-63.5 191.5h129
q-7 -64 35.5 -106.5t114.5 -42.5t117.5 41.5t58.5 107.5h129q-17 -126 -102 -196t-211 -70z" />
    <glyph glyph-name="Gdotaccent" unicode="&#x120;" horiz-adv-x="1503" 
d="M723 -31q-127 0 -236.5 43t-189 121.5t-125 196t-45.5 260.5q0 126 32 250t98 236.5t157.5 199t220.5 137.5t278 51q122 0 222 -32t168 -89t111 -130.5t61 -161.5l-179 -47q-29 137 -126.5 215.5t-262.5 78.5q-113 0 -210.5 -42.5t-165.5 -112.5t-117 -160t-72 -186.5
t-23 -190.5q0 -209 114.5 -341t311.5 -132q98 0 187 32t159 104.5t91 174.5l32 150h-415l35 158h591l-159 -752h-170l24 121q-72 -79 -180 -115.5t-217 -36.5zM909 1602l39 188h189l-39 -188h-189z" />
    <glyph glyph-name="gdotaccent" unicode="&#x121;" horiz-adv-x="1099" 
d="M399 -436q-168 0 -282 76t-135 225l163 45q12 -95 82 -148t183 -53q219 0 268 232l43 198q-54 -59 -134 -93t-163 -34q-69 0 -131 24t-111.5 71.5t-78.5 125.5t-29 177q0 79 21 160.5t64.5 157.5t104.5 135t147 94.5t185 35.5q92 0 167 -41t111 -118l33 131h166
l-227 -1049q-34 -165 -152.5 -258.5t-294.5 -93.5zM477 162q79 0 145 41.5t106.5 107t62.5 140t22 145.5q0 120 -60 183t-157 63q-67 0 -124.5 -27.5t-96.5 -72t-67 -100.5t-41 -112t-13 -108q0 -119 59.5 -189.5t163.5 -70.5zM555 1159l39 189h188l-39 -189h-188z" />
    <glyph glyph-name="uni0122" unicode="&#x122;" horiz-adv-x="1503" 
d="M723 -31q-127 0 -236.5 43t-189 121.5t-125 196t-45.5 260.5q0 126 32 250t98 236.5t157.5 199t220.5 137.5t278 51q122 0 222 -32t168 -89t111 -130.5t61 -161.5l-179 -47q-29 137 -126.5 215.5t-262.5 78.5q-113 0 -210.5 -42.5t-165.5 -112.5t-117 -160t-72 -186.5
t-23 -190.5q0 -209 114.5 -341t311.5 -132q98 0 187 32t159 104.5t91 174.5l32 150h-415l35 158h591l-159 -752h-170l24 121q-72 -79 -180 -115.5t-217 -36.5zM508 -518l145 203h-96l39 178h207l-39 -178l-158 -203h-98z" />
    <glyph glyph-name="uni0123" unicode="&#x123;" horiz-adv-x="1099" 
d="M399 -436q-168 0 -282 76t-135 225l163 45q12 -95 82 -148t183 -53q219 0 268 232l43 198q-54 -59 -134 -93t-163 -34q-69 0 -131 24t-111.5 71.5t-78.5 125.5t-29 177q0 79 21 160.5t64.5 157.5t104.5 135t147 94.5t185 35.5q92 0 167 -41t111 -118l33 131h166
l-227 -1049q-34 -165 -152.5 -258.5t-294.5 -93.5zM477 162q79 0 145 41.5t106.5 107t62.5 140t22 145.5q0 120 -60 183t-157 63q-67 0 -124.5 -27.5t-96.5 -72t-67 -100.5t-41 -112t-13 -108q0 -119 59.5 -189.5t163.5 -70.5zM530 1108l39 180l160 201h98l-147 -201h96
l-39 -180h-207z" />
    <glyph glyph-name="Hbar" unicode="&#x126;" horiz-adv-x="1533" 
d="M1540 1434l-43 -207h166l-27 -135h-170l-231 -1092h-188l143 666h-764l-143 -666h-189l232 1092h-166l28 135h168l43 207h189l-43 -207h764l43 207h188zM459 823h764l57 269h-764z" />
    <glyph glyph-name="hbar" unicode="&#x127;" horiz-adv-x="1060" 
d="M57 0l244 1147h-127l29 125h125l34 162h170l-34 -162h266l-29 -125h-264l-63 -291q131 137 299 137q155 0 223.5 -106.5t36.5 -259.5l-133 -627h-177l125 592q25 115 -8.5 182.5t-138.5 67.5q-51 0 -105 -25.5t-104.5 -87.5t-69.5 -149l-123 -580h-176z" />
    <glyph glyph-name="Imacron" unicode="&#x12a;" horiz-adv-x="548" 
d="M78 0l305 1434h188l-305 -1434h-188zM231 1612l29 133h567l-28 -133h-568z" />
    <glyph glyph-name="imacron" unicode="&#x12b;" horiz-adv-x="438" 
d="M27 0l209 965h176l-209 -965h-176zM82 1169l29 134h567l-29 -134h-567z" />
    <glyph glyph-name="Iogonek" unicode="&#x12e;" horiz-adv-x="548" 
d="M78 0l305 1434h188l-305 -1434q-211 -117 -211 -231q0 -41 31.5 -59.5t77.5 -18.5q17 0 33 2l-23 -109q-32 -4 -68 -4q-77 0 -129.5 40.5t-52.5 117.5q0 140 193 262h-39z" />
    <glyph glyph-name="iogonek" unicode="&#x12f;" horiz-adv-x="438" 
d="M27 0l209 965h176l-209 -965q-211 -117 -211 -231q0 -41 31 -59.5t77 -18.5q17 0 33 2l-22 -109q-32 -4 -68 -4q-77 0 -129.5 40.5t-52.5 117.5q0 140 192 262h-26zM270 1159l39 189h189l-39 -189h-189z" />
    <glyph glyph-name="Idotaccent" unicode="&#x130;" horiz-adv-x="548" 
d="M78 0l305 1434h188l-305 -1434h-188zM420 1602l39 188h188l-39 -188h-188z" />
    <glyph glyph-name="dotlessi" unicode="&#x131;" horiz-adv-x="438" 
d="M27 0l209 965h176l-209 -965h-176z" />
    <glyph glyph-name="IJ" unicode="&#x132;" horiz-adv-x="1480" 
d="M78 0l305 1434h188l-305 -1434h-188zM895 -33q-137 0 -235 63.5t-121 192.5l178 60q27 -150 188 -150q157 0 203 211l233 1090h189l-240 -1112q-71 -355 -395 -355z" />
    <glyph glyph-name="ij" unicode="&#x133;" horiz-adv-x="880" 
d="M27 0l209 965h176l-209 -965h-176zM270 1159l39 189h189l-39 -189h-189zM332 -422q-104 0 -182 37l30 143q75 -34 125 -34q59 0 90 34.5t47 104.5l236 1102h176l-240 -1117q-29 -138 -97.5 -204t-184.5 -66zM713 1159l39 189h188l-39 -189h-188z" />
    <glyph glyph-name="uni0136" unicode="&#x136;" horiz-adv-x="1286" 
d="M961 0l-564 686l-145 -686h-189l306 1434h188l-137 -648l764 648h266l-858 -701l612 -733h-243zM393 -518l146 203h-97l39 178h207l-39 -178l-157 -203h-99z" />
    <glyph glyph-name="uni0137" unicode="&#x137;" horiz-adv-x="917" 
d="M604 0l-301 471l-100 -471h-176l305 1434h176l-184 -869l426 400h237l-510 -453l336 -512h-209zM195 -518l145 203h-96l39 178h206l-38 -178l-158 -203h-98z" />
    <glyph glyph-name="Lacute" unicode="&#x139;" horiz-adv-x="1103" 
d="M63 0l306 1434h188l-270 -1276h694l-35 -158h-883zM403 1550l205 287h209l-248 -287h-166z" />
    <glyph glyph-name="lacute" unicode="&#x13a;" horiz-adv-x="444" 
d="M31 0l305 1434h176l-305 -1434h-176zM369 1577l204 287h209l-247 -287h-166z" />
    <glyph glyph-name="uni013B" unicode="&#x13b;" horiz-adv-x="1103" 
d="M63 0l306 1434h188l-270 -1276h694l-35 -158h-883zM309 -518l146 203h-97l39 178h207l-39 -178l-157 -203h-99z" />
    <glyph glyph-name="uni013C" unicode="&#x13c;" horiz-adv-x="444" 
d="M31 0l305 1434h176l-305 -1434h-176zM-102 -518l145 203h-96l39 178h207l-39 -178l-158 -203h-98z" />
    <glyph glyph-name="Lcaron" unicode="&#x13d;" horiz-adv-x="1103" 
d="M63 0l306 1434h188l-270 -1276h694l-35 -158h-883zM711 1032l147 402h184l-208 -402h-123z" />
    <glyph glyph-name="lcaron" unicode="&#x13e;" horiz-adv-x="634" 
d="M31 0l305 1434h176l-305 -1434h-176zM541 1032l147 402h184l-208 -402h-123z" />
    <glyph glyph-name="Ldot" unicode="&#x13f;" horiz-adv-x="1103" 
d="M63 0l306 1434h188l-270 -1276h694l-35 -158h-883zM748 643l47 219h196l-47 -219h-196z" />
    <glyph glyph-name="ldot" unicode="&#x140;" horiz-adv-x="729" 
d="M31 0l305 1434h176l-305 -1434h-176zM496 530l47 220h196l-47 -220h-196z" />
    <glyph glyph-name="Lslash" unicode="&#x141;" horiz-adv-x="1134" 
d="M94 0l125 586l-184 -92l35 176l186 92l143 672h189l-121 -574l354 176l-33 -174l-360 -180l-111 -524h695l-35 -158h-883z" />
    <glyph glyph-name="lslash" unicode="&#x142;" horiz-adv-x="505" 
d="M61 0l123 575l-192 -86l35 160l190 84l150 701h176l-131 -615l194 86l-35 -157l-192 -86l-141 -662h-177z" />
    <glyph glyph-name="Nacute" unicode="&#x143;" horiz-adv-x="1480" 
d="M63 0l306 1434h204l287 -662q169 -389 225 -545q27 150 111 555l137 652h185l-306 -1434h-200l-285 651q-180 421 -231 559q-30 -172 -111 -571l-137 -639h-185zM915 1550l205 287h209l-248 -287h-166z" />
    <glyph glyph-name="nacute" unicode="&#x144;" horiz-adv-x="1030" 
d="M27 0l206 965h164l-26 -117q67 73 146 109t159 36q155 0 223.5 -106.5t36.5 -259.5l-133 -627h-176l125 592q25 115 -9 182.5t-139 67.5q-37 0 -77.5 -15.5t-80.5 -45.5t-72.5 -82.5t-47.5 -118.5l-123 -580h-176zM578 1108l204 287h209l-248 -287h-165z" />
    <glyph glyph-name="uni0145" unicode="&#x145;" horiz-adv-x="1480" 
d="M63 0l306 1434h204l287 -662q169 -389 225 -545q27 150 111 555l137 652h185l-306 -1434h-200l-285 651q-180 421 -231 559q-30 -172 -111 -571l-137 -639h-185zM432 -518l146 203h-97l39 178h207l-39 -178l-158 -203h-98z" />
    <glyph glyph-name="uni0146" unicode="&#x146;" horiz-adv-x="1030" 
d="M27 0l206 965h164l-26 -117q67 73 146 109t159 36q155 0 223.5 -106.5t36.5 -259.5l-133 -627h-176l125 592q25 115 -9 182.5t-139 67.5q-37 0 -77.5 -15.5t-80.5 -45.5t-72.5 -82.5t-47.5 -118.5l-123 -580h-176zM205 -518l145 203h-96l39 178h207l-39 -178l-158 -203
h-98z" />
    <glyph glyph-name="Ncaron" unicode="&#x147;" horiz-adv-x="1480" 
d="M63 0l306 1434h204l287 -662q169 -389 225 -545q27 150 111 555l137 652h185l-306 -1434h-200l-285 651q-180 421 -231 559q-30 -172 -111 -571l-137 -639h-185zM891 1550l-139 287h145l115 -199l200 199h156l-256 -287h-221z" />
    <glyph glyph-name="ncaron" unicode="&#x148;" horiz-adv-x="1030" 
d="M27 0l206 965h164l-26 -117q67 73 146 109t159 36q155 0 223.5 -106.5t36.5 -259.5l-133 -627h-176l125 592q25 115 -9 182.5t-139 67.5q-37 0 -77.5 -15.5t-80.5 -45.5t-72.5 -82.5t-47.5 -118.5l-123 -580h-176zM553 1108l-139 287h145l115 -199l200 199h156l-256 -287
h-221z" />
    <glyph glyph-name="Eng" unicode="&#x14a;" horiz-adv-x="1482" 
d="M858 -422q-77 0 -145 19l32 149q62 -22 121 -22q61 0 94.5 36.5t49.5 108.5l20 88l-303 694q-157 357 -231 559q-46 -267 -111 -571l-137 -639h-185l306 1434h204l287 -662q170 -392 225 -541q26 143 111 551l137 652h185l-330 -1557q-65 -299 -330 -299z" />
    <glyph glyph-name="eng" unicode="&#x14b;" horiz-adv-x="1028" 
d="M487 -422q-104 0 -182 37l33 143q72 -34 119 -34q61 0 93 34.5t48 104.5l154 729q14 72 8 127.5t-45.5 89t-110.5 33.5q-37 0 -77.5 -15.5t-80.5 -45.5t-72.5 -82.5t-47.5 -118.5l-123 -580h-176l206 965h164l-26 -117q67 73 146 109t159 36q155 0 223.5 -106.5
t36.5 -259.5l-166 -779q-29 -137 -98 -203.5t-185 -66.5z" />
    <glyph glyph-name="Omacron" unicode="&#x14c;" horiz-adv-x="1574" 
d="M760 -33q-283 0 -458 174t-175 459q0 120 32.5 242t99 234.5t159 199t221.5 138.5t276 52q284 0 458.5 -173.5t174.5 -458.5q0 -100 -23.5 -202t-67.5 -199t-113 -181.5t-154 -148t-196 -100t-234 -36.5zM762 133q109 0 205.5 40.5t166 109t120.5 157t76.5 186
t25.5 193.5q0 217 -121.5 349t-321.5 132q-109 0 -205.5 -40.5t-166 -109t-120.5 -157t-76.5 -186t-25.5 -193.5q0 -217 121.5 -349t321.5 -132zM711 1612l28 133h568l-29 -133h-567z" />
    <glyph glyph-name="omacron" unicode="&#x14d;" horiz-adv-x="1099" 
d="M489 -29q-188 0 -304.5 116.5t-116.5 311.5q0 79 21 160.5t65.5 159.5t106.5 139t153 98t196 37q188 0 305 -116.5t117 -311.5q0 -79 -21 -160.5t-65.5 -159.5t-107 -139t-153.5 -98t-196 -37zM500 119q85 0 154.5 42.5t111 109.5t64 142t22.5 146q0 128 -68.5 207.5
t-183.5 79.5q-85 0 -154.5 -42.5t-111 -109.5t-64 -142t-22.5 -146q0 -128 68.5 -207.5t183.5 -79.5zM377 1169l29 134h567l-29 -134h-567z" />
    <glyph glyph-name="Ohungarumlaut" unicode="&#x150;" horiz-adv-x="1574" 
d="M760 -33q-283 0 -458 174t-175 459q0 120 32.5 242t99 234.5t159 199t221.5 138.5t276 52q284 0 458.5 -173.5t174.5 -458.5q0 -100 -23.5 -202t-67.5 -199t-113 -181.5t-154 -148t-196 -100t-234 -36.5zM762 133q109 0 205.5 40.5t166 109t120.5 157t76.5 186
t25.5 193.5q0 217 -121.5 349t-321.5 132q-109 0 -205.5 -40.5t-166 -109t-120.5 -157t-76.5 -186t-25.5 -193.5q0 -217 121.5 -349t321.5 -132zM1069 1550l205 287h188l-248 -287h-145zM758 1550l203 287h188l-246 -287h-145z" />
    <glyph glyph-name="ohungarumlaut" unicode="&#x151;" horiz-adv-x="1099" 
d="M489 -29q-188 0 -304.5 116.5t-116.5 311.5q0 79 21 160.5t65.5 159.5t106.5 139t153 98t196 37q188 0 305 -116.5t117 -311.5q0 -79 -21 -160.5t-65.5 -159.5t-107 -139t-153.5 -98t-196 -37zM500 119q85 0 154.5 42.5t111 109.5t64 142t22.5 146q0 128 -68.5 207.5
t-183.5 79.5q-85 0 -154.5 -42.5t-111 -109.5t-64 -142t-22.5 -146q0 -128 68.5 -207.5t183.5 -79.5zM735 1108l205 287h188l-247 -287h-146zM424 1108l203 287h188l-246 -287h-145z" />
    <glyph glyph-name="OE" unicode="&#x152;" horiz-adv-x="2328" 
d="M729 -33q-274 0 -438 170t-164 451q0 126 32 251t97.5 238t156 199.5t217 138t271.5 51.5q184 0 313 -77t193 -218l55 263h959l-35 -158h-766l-98 -459h714l-34 -158h-715l-107 -501h787l-35 -158h-975l35 162q-195 -195 -463 -195zM743 133q105 0 196 38t157.5 104.5
t114 149t75.5 177.5l25 123q8 49 8 109q0 213 -113.5 339.5t-308.5 126.5q-110 0 -206 -43.5t-162.5 -115t-115 -163.5t-71.5 -189t-23 -191q0 -212 113.5 -338.5t310.5 -126.5z" />
    <glyph glyph-name="oe" unicode="&#x153;" horiz-adv-x="1796" 
d="M1247 -29q-126 0 -223.5 51t-151.5 146q-147 -197 -383 -197q-188 0 -304.5 116.5t-116.5 311.5q0 79 21 160.5t65.5 159.5t106.5 139t153 98t196 37q116 0 210.5 -52t148.5 -146q146 198 379 198q173 0 279 -103.5t106 -283.5q0 -58 -17 -131h-717q-4 -50 -4 -69
q0 -127 65.5 -207t194.5 -80q87 0 157 43.5t130 140.5l141 -55q-155 -277 -436 -277zM500 119q115 0 197 73.5t122 186.5v10h4q29 92 29 170q0 128 -68.5 206.5t-183.5 78.5q-85 0 -154.5 -42.5t-111 -109t-64 -141t-22.5 -145.5q0 -128 68.5 -207.5t183.5 -79.5zM1034 608
h529q3 108 -55.5 175t-172.5 67q-108 0 -184 -68t-117 -174z" />
    <glyph glyph-name="Racute" unicode="&#x154;" horiz-adv-x="1335" 
d="M63 0l306 1434h555q182 0 295.5 -105.5t113.5 -271.5q0 -187 -117 -320t-313 -159l262 -578h-200l-258 573h-332l-123 -573h-189zM805 731q146 0 243 82.5t97 230.5q0 105 -69.5 168.5t-180.5 63.5h-371l-114 -545h395zM764 1550l205 287h209l-248 -287h-166z" />
    <glyph glyph-name="racute" unicode="&#x155;" horiz-adv-x="684" 
d="M27 0l206 965h164l-26 -121q117 133 272 133q68 0 117 -14l-35 -162q-56 16 -127 16q-98 0 -174 -66t-105 -204l-116 -547h-176zM440 1108l205 287h209l-248 -287h-166z" />
    <glyph glyph-name="uni0156" unicode="&#x156;" horiz-adv-x="1335" 
d="M63 0l306 1434h555q182 0 295.5 -105.5t113.5 -271.5q0 -187 -117 -320t-313 -159l262 -578h-200l-258 573h-332l-123 -573h-189zM805 731q146 0 243 82.5t97 230.5q0 105 -69.5 168.5t-180.5 63.5h-371l-114 -545h395zM395 -518l146 203h-97l39 178h207l-39 -178
l-157 -203h-99z" />
    <glyph glyph-name="uni0157" unicode="&#x157;" horiz-adv-x="684" 
d="M27 0l206 965h164l-26 -121q117 133 272 133q68 0 117 -14l-35 -162q-56 16 -127 16q-98 0 -174 -66t-105 -204l-116 -547h-176zM-106 -518l145 203h-96l39 178h206l-38 -178l-158 -203h-98z" />
    <glyph glyph-name="Rcaron" unicode="&#x158;" horiz-adv-x="1335" 
d="M63 0l306 1434h555q182 0 295.5 -105.5t113.5 -271.5q0 -187 -117 -320t-313 -159l262 -578h-200l-258 573h-332l-123 -573h-189zM805 731q146 0 243 82.5t97 230.5q0 105 -69.5 168.5t-180.5 63.5h-371l-114 -545h395zM739 1550l-139 287h145l115 -199l201 199h156
l-256 -287h-222z" />
    <glyph glyph-name="rcaron" unicode="&#x159;" horiz-adv-x="684" 
d="M27 0l206 965h164l-26 -121q117 133 272 133q68 0 117 -14l-35 -162q-56 16 -127 16q-98 0 -174 -66t-105 -204l-116 -547h-176zM416 1108l-140 287h146l115 -199l200 199h156l-256 -287h-221z" />
    <glyph glyph-name="Sacute" unicode="&#x15a;" horiz-adv-x="1269" 
d="M621 -33q-219 0 -377.5 104t-192.5 289l176 50q22 -121 134 -200t274 -79q144 0 242 69.5t98 186.5q0 76 -60.5 130.5t-177.5 105.5l-196 92q-154 71 -224.5 155.5t-70.5 192.5q0 117 71 210t189.5 143t259.5 50q205 0 345.5 -95t180.5 -263l-174 -59q-62 254 -364 254
q-137 0 -229.5 -60.5t-92.5 -157.5q0 -125 205 -215l197 -90q170 -75 251.5 -164.5t81.5 -201.5q0 -132 -74 -235t-197.5 -157.5t-274.5 -54.5zM760 1550l205 287h209l-248 -287h-166z" />
    <glyph glyph-name="sacute" unicode="&#x15b;" horiz-adv-x="937" 
d="M424 -29q-57 0 -109.5 9t-102.5 30.5t-88.5 54t-65.5 82t-35 111.5l153 41q10 -91 82 -138.5t172 -47.5q89 0 147 39t58 106q0 43 -32.5 76.5t-104.5 64.5l-129 58q-119 51 -170.5 110t-51.5 131q0 129 109.5 212t261.5 83q146 0 249.5 -68.5t121.5 -207.5l-156 -43
q-10 95 -75.5 136.5t-149.5 41.5q-79 0 -134 -34.5t-55 -90.5q0 -38 32.5 -68.5t107.5 -64.5l131 -59q117 -50 169 -110t52 -138q0 -142 -112 -229t-275 -87zM504 1108l205 287h209l-248 -287h-166z" />
    <glyph glyph-name="Scedilla" unicode="&#x15e;" horiz-adv-x="1269" 
d="M547 -475q-66 0 -127 28.5t-98 88.5l102 53q41 -66 131 -66q43 0 75 22t32 56q0 36 -32.5 54t-70.5 18q-29 0 -59 -6l-45 55l98 141q-195 15 -333 118t-169 273l176 50q22 -121 134 -200t274 -79q144 0 242 69.5t98 186.5q0 76 -60.5 130.5t-177.5 105.5l-196 92
q-154 71 -224.5 155.5t-70.5 192.5q0 117 71 210t189.5 143t259.5 50q205 0 345.5 -95t180.5 -263l-174 -59q-62 254 -364 254q-137 0 -229.5 -60.5t-92.5 -157.5q0 -125 205 -215l197 -90q170 -75 251.5 -164.5t81.5 -201.5q0 -126 -68 -226.5t-183.5 -157t-258.5 -63.5
l-69 -102q82 -3 132 -44.5t50 -103.5q0 -82 -63 -137t-160 -55z" />
    <glyph glyph-name="scedilla" unicode="&#x15f;" horiz-adv-x="937" 
d="M350 -475q-66 0 -127 28.5t-98 88.5l102 53q41 -66 131 -66q43 0 75 22t32 56q0 36 -32.5 54t-70.5 18q-29 0 -59 -6l-45 55l100 147q-63 5 -117.5 24t-101 52t-77 86t-39.5 121l153 41q10 -91 82 -138.5t172 -47.5q89 0 147 39t58 106q0 43 -32.5 76.5t-104.5 64.5
l-129 58q-119 51 -170.5 110t-51.5 131q0 129 109.5 212t261.5 83q146 0 249.5 -68.5t121.5 -207.5l-156 -43q-10 95 -75.5 136.5t-149.5 41.5q-79 0 -134 -34.5t-55 -90.5q0 -38 32.5 -68.5t107.5 -64.5l131 -59q117 -50 169 -110t52 -138q0 -133 -98.5 -218t-247.5 -96
l-74 -108q82 -3 132 -44.5t50 -103.5q0 -82 -63 -137t-160 -55z" />
    <glyph glyph-name="Scaron" unicode="&#x160;" horiz-adv-x="1269" 
d="M621 -33q-219 0 -377.5 104t-192.5 289l176 50q22 -121 134 -200t274 -79q144 0 242 69.5t98 186.5q0 76 -60.5 130.5t-177.5 105.5l-196 92q-154 71 -224.5 155.5t-70.5 192.5q0 117 71 210t189.5 143t259.5 50q205 0 345.5 -95t180.5 -263l-174 -59q-62 254 -364 254
q-137 0 -229.5 -60.5t-92.5 -157.5q0 -125 205 -215l197 -90q170 -75 251.5 -164.5t81.5 -201.5q0 -132 -74 -235t-197.5 -157.5t-274.5 -54.5zM735 1550l-139 287h145l115 -199l201 199h155l-256 -287h-221z" />
    <glyph glyph-name="scaron" unicode="&#x161;" horiz-adv-x="937" 
d="M424 -29q-57 0 -109.5 9t-102.5 30.5t-88.5 54t-65.5 82t-35 111.5l153 41q10 -91 82 -138.5t172 -47.5q89 0 147 39t58 106q0 43 -32.5 76.5t-104.5 64.5l-129 58q-119 51 -170.5 110t-51.5 131q0 129 109.5 212t261.5 83q146 0 249.5 -68.5t121.5 -207.5l-156 -43
q-10 95 -75.5 136.5t-149.5 41.5q-79 0 -134 -34.5t-55 -90.5q0 -38 32.5 -68.5t107.5 -64.5l131 -59q117 -50 169 -110t52 -138q0 -142 -112 -229t-275 -87zM479 1108l-139 287h145l115 -199l201 199h155l-256 -287h-221z" />
    <glyph glyph-name="uni0162" unicode="&#x162;" horiz-adv-x="1228" 
d="M418 0l272 1276h-475l35 158h1134l-34 -158h-471l-273 -1276h-37l-92 -135q82 -3 132 -44.5t50 -103.5q0 -82 -63 -137t-160 -55q-66 0 -127 28.5t-98 88.5l102 53q41 -66 131 -66q43 0 75 22t32 56q0 36 -32.5 54t-69.5 18q-30 0 -60 -6l-45 55l119 172h-45z" />
    <glyph glyph-name="uni0163" unicode="&#x163;" horiz-adv-x="684" 
d="M113 831l28 134h170l68 319h176l-68 -319h252l-28 -134h-252l-123 -577q-11 -59 6 -90t76 -31q45 0 145 29l-33 -154q-63 -16 -129 -24l-82 -119q82 -3 132.5 -44.5t50.5 -103.5q0 -82 -63 -137t-160 -55q-67 0 -128 28.5t-98 88.5l103 53q41 -66 131 -66q43 0 74.5 22
t31.5 56q0 36 -32.5 54t-69.5 18q-30 0 -60 -6l-45 55l111 160q-88 16 -127 82t-12 180l125 581h-170z" />
    <glyph glyph-name="Tcaron" unicode="&#x164;" horiz-adv-x="1228" 
d="M418 0l272 1276h-475l35 158h1134l-34 -158h-471l-273 -1276h-188zM733 1550l-139 287h145l115 -199l201 199h155l-256 -287h-221z" />
    <glyph glyph-name="tcaron" unicode="&#x165;" horiz-adv-x="684" 
d="M360 -18q-117 0 -175 67.5t-27 200.5l125 581h-170l28 134h170l68 319h176l-68 -319h252l-28 -134h-252l-123 -577q-11 -59 6 -90t76 -31q45 0 145 29l-33 -154q-104 -26 -170 -26zM612 1079l148 402h184l-209 -402h-123z" />
    <glyph glyph-name="Tbar" unicode="&#x166;" horiz-adv-x="1228" 
d="M418 0l149 696h-272l35 158h270l90 422h-475l35 158h1134l-34 -158h-471l-91 -422h273l-35 -158h-270l-150 -696h-188z" />
    <glyph glyph-name="tbar" unicode="&#x167;" horiz-adv-x="684" 
d="M360 -18q-117 0 -175 67.5t-27 200.5l43 203h-170l28 125h168l56 253h-170l28 134h170l68 319h176l-68 -319h252l-28 -134h-252l-53 -253h215l-29 -125h-213l-43 -199q-11 -59 6 -90t76 -31q45 0 145 29l-33 -154q-104 -26 -170 -26z" />
    <glyph glyph-name="Umacron" unicode="&#x16a;" horiz-adv-x="1390" 
d="M678 -33q-105 0 -191 18.5t-147.5 53t-105 83.5t-63.5 110t-24 132.5t15 151.5l196 918h189l-197 -926q-37 -177 47.5 -276t280.5 -99q144 0 236 76t122 225l215 1000h189l-221 -1031q-44 -215 -181 -325.5t-360 -110.5zM633 1612l29 133h567l-29 -133h-567z" />
    <glyph glyph-name="umacron" unicode="&#x16b;" horiz-adv-x="1024" 
d="M352 -29q-105 0 -171.5 51.5t-87 134t0.5 181.5l133 627h176l-124 -592q-13 -71 -8 -126.5t43.5 -89.5t109.5 -34q81 0 164 67.5t110 194.5l123 580h176l-204 -965h-164l24 117q-66 -73 -144 -109.5t-157 -36.5zM352 1169l29 134h567l-28 -134h-568z" />
    <glyph glyph-name="Uring" unicode="&#x16e;" horiz-adv-x="1390" 
d="M678 -33q-105 0 -191 18.5t-147.5 53t-105 83.5t-63.5 110t-24 132.5t15 151.5l196 918h189l-197 -926q-37 -177 47.5 -276t280.5 -99q144 0 236 76t122 225l215 1000h189l-221 -1031q-44 -215 -181 -325.5t-360 -110.5zM887 1448q-82 0 -140.5 55t-58.5 133t58.5 133.5
t140.5 55.5q80 0 138 -55.5t58 -133.5t-58 -133t-138 -55zM887 1538q40 0 67 28t27 70q0 43 -27 71t-67 28t-68 -28.5t-28 -70.5t28 -70t68 -28z" />
    <glyph glyph-name="uring" unicode="&#x16f;" horiz-adv-x="1024" 
d="M352 -29q-105 0 -171.5 51.5t-87 134t0.5 181.5l133 627h176l-124 -592q-13 -71 -8 -126.5t43.5 -89.5t109.5 -34q81 0 164 67.5t110 194.5l123 580h176l-204 -965h-164l24 117q-66 -73 -144 -109.5t-157 -36.5zM664 1098q-82 0 -140.5 55t-58.5 133t58.5 133.5
t140.5 55.5q80 0 138 -55.5t58 -133.5t-58 -133t-138 -55zM664 1188q40 0 67 28t27 70t-27 70t-67 28t-68.5 -28t-28.5 -70t28.5 -70t68.5 -28z" />
    <glyph glyph-name="Uhungarumlaut" unicode="&#x170;" horiz-adv-x="1390" 
d="M678 -33q-105 0 -191 18.5t-147.5 53t-105 83.5t-63.5 110t-24 132.5t15 151.5l196 918h189l-197 -926q-37 -177 47.5 -276t280.5 -99q144 0 236 76t122 225l215 1000h189l-221 -1031q-44 -215 -181 -325.5t-360 -110.5zM991 1550l205 287h188l-247 -287h-146zM680 1550
l203 287h188l-246 -287h-145z" />
    <glyph glyph-name="uhungarumlaut" unicode="&#x171;" horiz-adv-x="1024" 
d="M352 -29q-105 0 -171.5 51.5t-87 134t0.5 181.5l133 627h176l-124 -592q-13 -71 -8 -126.5t43.5 -89.5t109.5 -34q81 0 164 67.5t110 194.5l123 580h176l-204 -965h-164l24 117q-66 -73 -144 -109.5t-157 -36.5zM711 1108l204 287h189l-248 -287h-145zM399 1108l203 287
h189l-246 -287h-146z" />
    <glyph glyph-name="Uogonek" unicode="&#x172;" horiz-adv-x="1390" 
d="M774 -420q-77 0 -130.5 40.5t-53.5 115.5q0 68 35 120t106 115q-20 -4 -53 -4q-105 0 -191 18.5t-147.5 53t-105 83.5t-63.5 110t-24 132.5t15 151.5l196 918h189l-197 -926q-37 -177 47.5 -276t280.5 -99q144 0 235 75.5t123 225.5l215 1000h189l-221 -1031
q-23 -104 -64 -178.5t-84.5 -115.5t-107.5 -80q-105 -61 -172.5 -130.5t-67.5 -129.5q0 -41 31 -59.5t77 -18.5q17 0 31 2l-20 -109q-32 -4 -68 -4z" />
    <glyph glyph-name="uogonek" unicode="&#x173;" horiz-adv-x="1024" 
d="M352 -29q-105 0 -171.5 51.5t-87 134t0.5 181.5l133 627h176l-124 -592q-13 -71 -8 -126.5t43.5 -89.5t109.5 -34q81 0 164 67.5t110 194.5l123 580h176l-204 -965q-211 -117 -211 -231q0 -41 31 -59.5t77 -18.5q17 0 33 2l-23 -109q-32 -4 -67 -4q-77 0 -129.5 40.5
t-52.5 117.5q0 140 192 262h-14l24 117q-66 -73 -144 -109.5t-157 -36.5z" />
    <glyph glyph-name="Wcircumflex" unicode="&#x174;" horiz-adv-x="1898" 
d="M2038 1434l-652 -1434h-229l-35 655q-17 263 -20 533q-127 -290 -244 -535l-317 -653h-232l-43 1434h187l16 -689q5 -250 2 -546q134 304 252 546l336 689h188l37 -689q16 -267 19 -546q190 447 233 546l309 689h193zM868 1550l258 287h222l137 -287h-142l-116 201
l-199 -201h-160z" />
    <glyph glyph-name="wcircumflex" unicode="&#x175;" horiz-adv-x="1435" 
d="M203 0l-60 965h174l17 -355q5 -168 10 -458q72 164 215 458l172 355h164l23 -355q12 -217 16 -465q130 296 209 465l166 355h188l-475 -965h-213l-21 303q-11 165 -20 442q-67 -153 -207 -446l-147 -299h-211zM535 1108l258 287h221l137 -287h-141l-117 201l-199 -201
h-159z" />
    <glyph glyph-name="Ycircumflex" unicode="&#x176;" horiz-adv-x="1271" 
d="M438 0l131 612l-331 822h196l254 -660l535 660h217l-682 -822l-131 -612h-189zM528 1550l258 287h222l137 -287h-141l-117 201l-199 -201h-160z" />
    <glyph glyph-name="ycircumflex" unicode="&#x177;" horiz-adv-x="946" 
d="M23 -430q-64 0 -138 18l31 146q71 -23 125 -23q58 0 100.5 32.5t87.5 115.5l47 88l-139 1018h178l37 -314q22 -178 54 -473l251 477l172 310h185l-645 -1151q-74 -132 -148.5 -188t-197.5 -56zM283 1108l258 287h221l137 -287h-141l-117 201l-199 -201h-159z" />
    <glyph glyph-name="Ydieresis" unicode="&#x178;" horiz-adv-x="1271" 
d="M438 0l131 612l-331 822h196l254 -660l535 660h217l-682 -822l-131 -612h-189zM911 1602l39 188h178l-38 -188h-179zM604 1602l39 188h178l-39 -188h-178z" />
    <glyph glyph-name="Zacute" unicode="&#x179;" horiz-adv-x="1261" 
d="M-18 0l32 152l1100 1124h-821l35 158h1050l-30 -152l-1100 -1124h856l-35 -158h-1087zM795 1550l204 287h209l-247 -287h-166z" />
    <glyph glyph-name="zacute" unicode="&#x17a;" horiz-adv-x="927" 
d="M-31 0l29 131l694 690h-510l33 144h733l-28 -129l-693 -693h545l-33 -143h-770zM522 1108l205 287h209l-248 -287h-166z" />
    <glyph glyph-name="Zdotaccent" unicode="&#x17b;" horiz-adv-x="1261" 
d="M-18 0l32 152l1100 1124h-821l35 158h1050l-30 -152l-1100 -1124h856l-35 -158h-1087zM797 1602l39 188h188l-39 -188h-188z" />
    <glyph glyph-name="zdotaccent" unicode="&#x17c;" horiz-adv-x="927" 
d="M-31 0l29 131l694 690h-510l33 144h733l-28 -129l-693 -693h545l-33 -143h-770zM524 1159l39 189h189l-39 -189h-189z" />
    <glyph glyph-name="Zcaron" unicode="&#x17d;" horiz-adv-x="1261" 
d="M-18 0l32 152l1100 1124h-821l35 158h1050l-30 -152l-1100 -1124h856l-35 -158h-1087zM770 1550l-139 287h145l115 -199l201 199h155l-256 -287h-221z" />
    <glyph glyph-name="zcaron" unicode="&#x17e;" horiz-adv-x="927" 
d="M-31 0l29 131l694 690h-510l33 144h733l-28 -129l-693 -693h545l-33 -143h-770zM498 1108l-140 287h146l114 -199l201 199h156l-256 -287h-221z" />
    <glyph glyph-name="florin" unicode="&#x192;" horiz-adv-x="1202" 
d="M201 -391q-106 0 -183 39l29 147q73 -43 148 -43q65 0 104 38.5t59 123.5l191 887h-227l28 133h228l38 182q31 147 119 217t217 70q100 0 181 -41l-29 -148q-73 46 -146 46q-67 0 -108.5 -39.5t-61.5 -126.5l-34 -160h258l-29 -133h-258l-195 -910q-61 -282 -329 -282z
" />
    <glyph glyph-name="uni0218" unicode="&#x218;" horiz-adv-x="1269" 
d="M621 -33q-219 0 -377.5 104t-192.5 289l176 50q22 -121 134 -200t274 -79q144 0 242 69.5t98 186.5q0 76 -60.5 130.5t-177.5 105.5l-196 92q-154 71 -224.5 155.5t-70.5 192.5q0 117 71 210t189.5 143t259.5 50q205 0 345.5 -95t180.5 -263l-174 -59q-62 254 -364 254
q-137 0 -229.5 -60.5t-92.5 -157.5q0 -125 205 -215l197 -90q170 -75 251.5 -164.5t81.5 -201.5q0 -132 -74 -235t-197.5 -157.5t-274.5 -54.5zM401 -518l146 203h-96l38 178h207l-39 -178l-157 -203h-99z" />
    <glyph glyph-name="uni0219" unicode="&#x219;" horiz-adv-x="937" 
d="M424 -29q-57 0 -109.5 9t-102.5 30.5t-88.5 54t-65.5 82t-35 111.5l153 41q10 -91 82 -138.5t172 -47.5q89 0 147 39t58 106q0 43 -32.5 76.5t-104.5 64.5l-129 58q-119 51 -170.5 110t-51.5 131q0 129 109.5 212t261.5 83q146 0 249.5 -68.5t121.5 -207.5l-156 -43
q-10 95 -75.5 136.5t-149.5 41.5q-79 0 -134 -34.5t-55 -90.5q0 -38 32.5 -68.5t107.5 -64.5l131 -59q117 -50 169 -110t52 -138q0 -142 -112 -229t-275 -87zM205 -518l145 203h-96l39 178h207l-39 -178l-158 -203h-98z" />
    <glyph glyph-name="uni021A" unicode="&#x21a;" horiz-adv-x="1228" 
d="M418 0l272 1276h-475l35 158h1134l-34 -158h-471l-273 -1276h-188zM291 -518l145 203h-96l39 178h207l-39 -178l-158 -203h-98z" />
    <glyph glyph-name="uni021B" unicode="&#x21b;" horiz-adv-x="684" 
d="M360 -18q-117 0 -175 67.5t-27 200.5l125 581h-170l28 134h170l68 319h176l-68 -319h252l-28 -134h-252l-123 -577q-11 -59 6 -90t76 -31q45 0 145 29l-33 -154q-104 -26 -170 -26zM133 -518l146 203h-97l39 178h207l-39 -178l-158 -203h-98z" />
    <glyph glyph-name="uni0237" unicode="&#x237;" horiz-adv-x="442" 
d="M-106 -422q-105 0 -183 37l31 143q75 -34 125 -34q59 0 90 34.5t47 104.5l236 1102h176l-240 -1117q-29 -138 -97.5 -204t-184.5 -66z" />
    <glyph glyph-name="circumflex" unicode="&#x2c6;" horiz-adv-x="882" 
d="M266 1108l258 287h221l138 -287h-142l-116 201l-199 -201h-160z" />
    <glyph glyph-name="caron" unicode="&#x2c7;" horiz-adv-x="882" 
d="M467 1108l-139 287h145l115 -199l200 199h156l-256 -287h-221z" />
    <glyph glyph-name="breve" unicode="&#x2d8;" horiz-adv-x="851" 
d="M592 1102q-131 0 -207 74.5t-63 191.5h129q-7 -64 35 -106.5t114 -42.5t117.5 41.5t58.5 107.5h129q-17 -126 -102 -196t-211 -70z" />
    <glyph glyph-name="dotaccent" unicode="&#x2d9;" horiz-adv-x="456" 
d="M279 1159l38 189h189l-39 -189h-188z" />
    <glyph glyph-name="ring" unicode="&#x2da;" horiz-adv-x="669" 
d="M506 1098q-82 0 -140.5 55t-58.5 133t58.5 133.5t140.5 55.5q80 0 138 -55.5t58 -133.5t-58 -133t-138 -55zM506 1188q40 0 67 28t27 70t-27 70t-67 28t-68 -28t-28 -70t28 -70t68 -28z" />
    <glyph glyph-name="ogonek" unicode="&#x2db;" horiz-adv-x="557" 
d="M162 -420q-77 0 -129.5 40.5t-52.5 117.5q0 172 276 309l66 -47q-211 -117 -211 -231q0 -41 31 -59.5t77 -18.5q17 0 33 2l-23 -109q-32 -4 -67 -4z" />
    <glyph glyph-name="tilde" unicode="&#x2dc;" horiz-adv-x="913" 
d="M741 1128q-49 0 -97 27t-91 53.5t-80 26.5q-65 0 -90 -105h-113q23 108 81.5 167t140.5 59q49 0 97.5 -27t91.5 -53.5t79 -26.5q67 0 92 105h113q-25 -108 -83.5 -167t-140.5 -59z" />
    <glyph glyph-name="hungarumlaut" unicode="&#x2dd;" horiz-adv-x="909" 
d="M578 1108l204 287h189l-248 -287h-145zM266 1108l203 287h188l-245 -287h-146z" />
    <glyph glyph-name="gravecomb" unicode="&#x300;" 
d="M457 1108l-129 287h188l86 -287h-145z" />
    <glyph glyph-name="acutecomb" unicode="&#x301;" 
d="M266 1108l205 287h209l-248 -287h-166z" />
    <glyph glyph-name="uni0302" unicode="&#x302;" 
d="M266 1108l258 287h221l138 -287h-142l-116 201l-199 -201h-160z" />
    <glyph glyph-name="tildecomb" unicode="&#x303;" 
d="M741 1128q-49 0 -97 27t-91 53.5t-80 26.5q-65 0 -90 -105h-113q23 108 81.5 167t140.5 59q49 0 97.5 -27t91.5 -53.5t79 -26.5q67 0 92 105h113q-25 -108 -83.5 -167t-140.5 -59z" />
    <glyph glyph-name="uni0304" unicode="&#x304;" 
d="M279 1169l28 134h567l-28 -134h-567z" />
    <glyph glyph-name="uni0306" unicode="&#x306;" 
d="M592 1102q-131 0 -207 74.5t-63 191.5h129q-7 -64 35 -106.5t114 -42.5t117.5 41.5t58.5 107.5h129q-17 -126 -102 -196t-211 -70z" />
    <glyph glyph-name="uni0307" unicode="&#x307;" 
d="M279 1159l38 189h189l-39 -189h-188z" />
    <glyph glyph-name="uni0308" unicode="&#x308;" 
d="M586 1159l39 189h178l-39 -189h-178zM279 1159l38 189h179l-39 -189h-178z" />
    <glyph glyph-name="uni030A" unicode="&#x30a;" 
d="M506 1098q-82 0 -140.5 55t-58.5 133t58.5 133.5t140.5 55.5q80 0 138 -55.5t58 -133.5t-58 -133t-138 -55zM506 1188q40 0 67 28t27 70t-27 70t-67 28t-68 -28t-28 -70t28 -70t68 -28z" />
    <glyph glyph-name="uni030B" unicode="&#x30b;" 
d="M578 1108l204 287h189l-248 -287h-145zM266 1108l203 287h188l-245 -287h-146z" />
    <glyph glyph-name="uni030C" unicode="&#x30c;" 
d="M467 1108l-139 287h145l115 -199l200 199h156l-256 -287h-221z" />
    <glyph glyph-name="uni0312" unicode="&#x312;" 
d="M266 1108l39 180l160 201h98l-147 -201h96l-39 -180h-207z" />
    <glyph glyph-name="uni0326" unicode="&#x326;" 
d="M-80 -518l146 203h-97l39 178h207l-39 -178l-158 -203h-98z" />
    <glyph glyph-name="uni0327" unicode="&#x327;" 
d="M180 -475q-66 0 -127 28.5t-98 88.5l102 53q41 -66 131 -66q43 0 75 22t32 56q0 36 -32.5 54t-69.5 18q-30 0 -60 -6l-45 55l145 211l80 -39l-92 -135q82 -3 132 -44.5t50 -103.5q0 -82 -63 -137t-160 -55z" />
    <glyph glyph-name="uni0328" unicode="&#x328;" 
d="M162 -420q-77 0 -129.5 40.5t-52.5 117.5q0 172 276 309l66 -47q-211 -117 -211 -231q0 -41 31 -59.5t77 -18.5q17 0 33 2l-23 -109q-32 -4 -67 -4z" />
    <glyph glyph-name="uni0394" unicode="&#x394;" horiz-adv-x="1353" 
d="M-70 0l824 1434h247l218 -1434h-1289zM217 158h791l-80 553q-7 46 -23.5 156t-23.5 160.5t-16.5 127t-14.5 137.5q-88 -171 -322 -583z" />
    <glyph glyph-name="uni03A9" unicode="&#x3a9;" horiz-adv-x="1529" 
d="M-18 0l34 158h301q-87 69 -137.5 187.5t-50.5 266.5q0 127 34.5 251.5t102.5 232.5t161 191t217.5 131t264.5 48q142 0 257.5 -47.5t190.5 -130.5t115.5 -194t40.5 -238q0 -132 -44.5 -263t-136.5 -248t-218 -187h262l-35 -158h-540l33 160q124 46 220 123.5t152.5 170.5
t85.5 191.5t29 198.5q0 131 -47.5 233t-145 162.5t-233.5 60.5q-112 0 -208.5 -44.5t-163 -117t-114 -165t-70 -189t-22.5 -188.5q0 -154 63.5 -269t178.5 -167l-33 -160h-544z" />
    <glyph glyph-name="uni03BC" unicode="&#x3bc;" horiz-adv-x="1060" 
d="M-57 -410l293 1375h176l-125 -596q-57 -246 159 -246q96 0 177.5 68t109.5 194l123 580h176l-207 -965h-161l26 127q-116 -156 -311 -156q-48 0 -93.5 17t-72.5 47l-94 -445h-176z" />
    <glyph glyph-name="pi" unicode="&#x3c0;" horiz-adv-x="1189" 
d="M913 -20q-140 0 -189.5 66t-18.5 208l122 569h-364l-176 -823h-178l176 823h-179l31 142h1069l-30 -142h-170l-119 -559q-14 -77 1.5 -105t84.5 -28q38 0 90 12l-33 -145q-63 -18 -117 -18z" />
    <glyph glyph-name="Wgrave" unicode="&#x1e80;" horiz-adv-x="1898" 
d="M2038 1434l-652 -1434h-229l-35 655q-17 263 -20 533q-127 -290 -244 -535l-317 -653h-232l-43 1434h187l16 -689q5 -250 2 -546q134 304 252 546l336 689h188l37 -689q16 -267 19 -546q190 447 233 546l309 689h193zM1110 1550l-129 287h188l86 -287h-145z" />
    <glyph glyph-name="wgrave" unicode="&#x1e81;" horiz-adv-x="1435" 
d="M203 0l-60 965h174l17 -355q5 -168 10 -458q72 164 215 458l172 355h164l23 -355q12 -217 16 -465q130 296 209 465l166 355h188l-475 -965h-213l-21 303q-11 165 -20 442q-67 -153 -207 -446l-147 -299h-211zM776 1108l-129 287h189l86 -287h-146z" />
    <glyph glyph-name="Wacute" unicode="&#x1e82;" horiz-adv-x="1898" 
d="M2038 1434l-652 -1434h-229l-35 655q-17 263 -20 533q-127 -290 -244 -535l-317 -653h-232l-43 1434h187l16 -689q5 -250 2 -546q134 304 252 546l336 689h188l37 -689q16 -267 19 -546q190 447 233 546l309 689h193zM1092 1550l204 287h209l-248 -287h-165z" />
    <glyph glyph-name="wacute" unicode="&#x1e83;" horiz-adv-x="1435" 
d="M203 0l-60 965h174l17 -355q5 -168 10 -458q72 164 215 458l172 355h164l23 -355q12 -217 16 -465q130 296 209 465l166 355h188l-475 -965h-213l-21 303q-11 165 -20 442q-67 -153 -207 -446l-147 -299h-211zM758 1108l205 287h208l-247 -287h-166z" />
    <glyph glyph-name="Wdieresis" unicode="&#x1e84;" horiz-adv-x="1898" 
d="M2038 1434l-652 -1434h-229l-35 655q-17 263 -20 533q-127 -290 -244 -535l-317 -653h-232l-43 1434h187l16 -689q5 -250 2 -546q134 304 252 546l336 689h188l37 -689q16 -267 19 -546q190 447 233 546l309 689h193zM1251 1602l39 188h178l-38 -188h-179zM944 1602
l39 188h178l-39 -188h-178z" />
    <glyph glyph-name="wdieresis" unicode="&#x1e85;" horiz-adv-x="1435" 
d="M203 0l-60 965h174l17 -355q5 -168 10 -458q72 164 215 458l172 355h164l23 -355q12 -217 16 -465q130 296 209 465l166 355h188l-475 -965h-213l-21 303q-11 165 -20 442q-67 -153 -207 -446l-147 -299h-211zM918 1159l38 189h179l-39 -189h-178zM610 1159l39 189h178
l-39 -189h-178z" />
    <glyph glyph-name="uni1E9E" unicode="&#x1e9e;" horiz-adv-x="1474" 
d="M856 -33q-73 0 -140.5 16t-127.5 49t-101 90t-53 132l172 47q40 -176 256 -176q136 0 239 84t103 209q0 51 -25 92.5t-78.5 77.5t-115.5 64t-158 63l-59 22l27 129l444 326q-155 113 -375 113q-153 0 -259 -73t-136 -216l-221 -1016h-189l230 1053q27 135 114.5 230
t208.5 139t265 44q177 0 326 -64t222 -142l-26 -132l-408 -299q215 -83 307.5 -174.5t92.5 -212.5q0 -127 -71 -236.5t-194.5 -174t-269.5 -64.5z" />
    <glyph glyph-name="Ygrave" unicode="&#x1ef2;" horiz-adv-x="1271" 
d="M438 0l131 612l-331 822h196l254 -660l535 660h217l-682 -822l-131 -612h-189zM770 1550l-129 287h188l86 -287h-145z" />
    <glyph glyph-name="ygrave" unicode="&#x1ef3;" horiz-adv-x="946" 
d="M23 -430q-64 0 -138 18l31 146q71 -23 125 -23q58 0 100.5 32.5t87.5 115.5l47 88l-139 1018h178l37 -314q22 -178 54 -473l251 477l172 310h185l-645 -1151q-74 -132 -148.5 -188t-197.5 -56zM524 1108l-129 287h189l86 -287h-146z" />
    <glyph glyph-name="uni2009" unicode="&#x2009;" horiz-adv-x="225" 
 />
    <glyph glyph-name="endash" unicode="&#x2013;" horiz-adv-x="1499" 
d="M156 553l30 152h1219l-31 -152h-1218z" />
    <glyph glyph-name="emdash" unicode="&#x2014;" horiz-adv-x="1978" 
d="M180 553l31 152h1649l-31 -152h-1649z" />
    <glyph glyph-name="quoteleft" unicode="&#x2018;" horiz-adv-x="397" 
d="M496 1434l-144 -236h101l-45 -213h-205l45 213l155 236h93z" />
    <glyph glyph-name="quoteright" unicode="&#x2019;" horiz-adv-x="397" 
d="M211 985l143 236h-100l45 213h205l-45 -213l-156 -236h-92z" />
    <glyph glyph-name="quotesinglbase" unicode="&#x201a;" horiz-adv-x="399" 
d="M-49 -236l143 236h-100l47 213h205l-47 -213l-156 -236h-92z" />
    <glyph glyph-name="quotedblleft" unicode="&#x201c;" horiz-adv-x="716" 
d="M815 1434l-143 -236h100l-45 -213h-205l45 213l156 236h92zM496 1434l-144 -236h101l-45 -213h-205l45 213l155 236h93z" />
    <glyph glyph-name="quotedblright" unicode="&#x201d;" horiz-adv-x="716" 
d="M211 985l143 236h-100l45 213h205l-45 -213l-156 -236h-92zM530 985l144 236h-101l45 213h205l-45 -213l-155 -236h-93z" />
    <glyph glyph-name="quotedblbase" unicode="&#x201e;" horiz-adv-x="718" 
d="M-49 -236l143 236h-100l47 213h205l-47 -213l-156 -236h-92zM270 -236l144 236h-101l47 213h205l-47 -213l-156 -236h-92z" />
    <glyph glyph-name="dagger" unicode="&#x2020;" horiz-adv-x="1187" 
d="M315 -397l242 1132h-422l35 158h422l115 541h178l-115 -541h424l-35 -158h-422l-241 -1132h-181z" />
    <glyph glyph-name="daggerdbl" unicode="&#x2021;" horiz-adv-x="1187" 
d="M315 -397l131 614h-421l34 158h422l99 463h-422l32 157h422l95 439h178l-92 -439h421l-32 -157h-424l-99 -463h424l-34 -158h-422l-131 -614h-181z" />
    <glyph glyph-name="bullet" unicode="&#x2022;" horiz-adv-x="1009" 
d="M135 276l139 654h652l-140 -654h-651z" />
    <glyph glyph-name="ellipsis" unicode="&#x2026;" horiz-adv-x="1316" 
d="M872 0l48 219h208l-47 -219h-209zM31 0l47 219h209l-47 -219h-209zM451 0l47 219h209l-48 -219h-208z" />
    <glyph glyph-name="perthousand" unicode="&#x2030;" horiz-adv-x="2301" 
d="M104 0l1295 1434h172l-1292 -1434h-175zM1096 -33q-119 0 -199 78t-80 203q0 152 102 258t250 106q118 0 198.5 -77.5t80.5 -202.5q0 -151 -102.5 -258t-249.5 -107zM1106 86q93 0 150 76t57 166q0 79 -43 123.5t-111 44.5q-64 0 -113 -38.5t-71.5 -92.5t-22.5 -111
q0 -80 42.5 -124t111.5 -44zM510 823q-119 0 -199 78t-80 203q0 151 102 257.5t251 106.5q118 0 198 -77.5t80 -202.5q0 -151 -102.5 -258t-249.5 -107zM520 942q93 0 150 76t57 166q0 79 -43 123.5t-111 44.5q-94 0 -150 -75.5t-56 -166.5q0 -80 42 -124t111 -44zM1823 -33
q-119 0 -199 78t-80 203q0 152 102 258t250 106q118 0 198.5 -77.5t80.5 -202.5q0 -151 -102.5 -258t-249.5 -107zM1833 86q93 0 150 76t57 166q0 79 -43 123.5t-111 44.5q-64 0 -113 -38.5t-71.5 -92.5t-22.5 -111q0 -80 42.5 -124t111.5 -44z" />
    <glyph glyph-name="guilsinglleft" unicode="&#x2039;" horiz-adv-x="727" 
d="M315 70l-184 440l375 442h186l-397 -460l182 -422h-162z" />
    <glyph glyph-name="guilsinglright" unicode="&#x203a;" horiz-adv-x="729" 
d="M47 70l397 460l-180 422h160l186 -440l-377 -442h-186z" />
    <glyph glyph-name="fraction" unicode="&#x2044;" horiz-adv-x="436" 
d="M-465 0l1294 1434h172l-1292 -1434h-174z" />
    <glyph glyph-name="uni2070" unicode="&#x2070;" horiz-adv-x="759" 
d="M461 717q-130 0 -197 86t-67 235q0 70 13.5 146t45 154.5t75.5 140t111.5 100.5t147.5 39q130 0 197 -86t67 -236q0 -70 -13.5 -146t-45 -154t-75.5 -139.5t-111.5 -100.5t-147.5 -39zM469 836q50 0 92 35t69.5 88t46.5 117t27.5 121.5t8.5 102.5q0 199 -131 199
q-49 0 -91 -35t-69.5 -88t-47 -117.5t-28 -122t-8.5 -102.5q0 -90 31.5 -144t99.5 -54z" />
    <glyph glyph-name="uni2074" unicode="&#x2074;" horiz-adv-x="753" 
d="M510 737l41 195h-389l28 131l453 534h186l-116 -553h114l-24 -112h-115l-41 -195h-137zM326 1044h249l84 396z" />
    <glyph glyph-name="uni2075" unicode="&#x2075;" horiz-adv-x="739" 
d="M442 717q-107 0 -189.5 58t-96.5 167l135 33q7 -68 52.5 -103.5t111.5 -35.5q87 0 135.5 62t48.5 140q0 66 -42 102t-99 36q-72 0 -136 -58l-122 12l151 467h473l-26 -116h-355l-73 -217q58 28 125 28q106 0 175.5 -64.5t69.5 -174.5q0 -137 -96.5 -236.5t-241.5 -99.5z
" />
    <glyph glyph-name="uni2076" unicode="&#x2076;" horiz-adv-x="751" 
d="M473 717q-83 0 -143.5 34t-90.5 92t-39.5 135t9.5 163l10 37q43 213 151 326.5t248 113.5q97 0 167 -40.5t96 -129.5l-136 -41q-13 42 -49 65t-88 23q-79 0 -141.5 -69t-95.5 -203q32 32 82 50.5t104 18.5q104 0 176 -67t72 -181q0 -133 -93 -230t-239 -97zM479 836
q77 0 131 58.5t54 135.5q0 67 -42 103t-104 36q-82 0 -134 -53.5t-52 -134.5q0 -68 42.5 -106.5t104.5 -38.5z" />
    <glyph glyph-name="uni2077" unicode="&#x2077;" horiz-adv-x="686" 
d="M197 737l485 744h-403l24 116h555l-20 -104l-480 -756h-161z" />
    <glyph glyph-name="uni2078" unicode="&#x2078;" horiz-adv-x="778" 
d="M485 717q-83 0 -152.5 25t-115 80.5t-45.5 133.5q0 85 54.5 159.5t156.5 103.5q-82 55 -82 153q0 109 83.5 177.5t207.5 68.5q114 0 192 -57.5t78 -155.5q0 -75 -44 -132.5t-118 -84.5q117 -64 117 -189q0 -124 -94.5 -203t-237.5 -79zM485 831q81 0 136 49t55 124
q0 68 -50 104.5t-118 36.5q-83 0 -136 -50t-53 -122q0 -66 48 -104t118 -38zM563 1253q70 0 116 42t46 100q0 55 -40 84.5t-97 29.5q-69 0 -112.5 -41.5t-43.5 -97.5t37.5 -86.5t93.5 -30.5z" />
    <glyph glyph-name="uni2079" unicode="&#x2079;" horiz-adv-x="751" 
d="M426 717q-210 0 -260 172l131 39q34 -88 141 -88q78 0 140.5 69t95.5 203q-73 -70 -187 -70q-106 0 -177.5 67t-71.5 181q0 132 93 230t238 98q83 0 144.5 -34t91.5 -92t39.5 -135t-10.5 -163l-9 -37q-43 -213 -151.5 -326.5t-247.5 -113.5zM526 1165q82 0 133.5 54
t51.5 135q0 68 -42.5 106.5t-105.5 38.5q-77 0 -130.5 -58t-53.5 -134q0 -69 41.5 -105.5t105.5 -36.5z" />
    <glyph glyph-name="uni2080" unicode="&#x2080;" horiz-adv-x="759" 
d="M264 -205q-130 0 -197 86.5t-67 235.5q0 70 13.5 146t45 154t75.5 139.5t111.5 100.5t147.5 39q130 0 197 -85.5t67 -235.5q0 -70 -13.5 -146t-45 -154.5t-75.5 -140t-111.5 -100.5t-147.5 -39zM272 -86q50 0 92 35t69.5 88t46.5 117.5t27.5 122t8.5 102.5
q0 199 -131 199q-49 0 -91 -35t-69.5 -88t-47 -117.5t-28 -122t-8.5 -102.5q0 -90 31.5 -144.5t99.5 -54.5z" />
    <glyph glyph-name="uni2081" unicode="&#x2081;" horiz-adv-x="548" 
d="M100 -184l133 620h-172l21 99q82 1 148 40t96 101h96l-182 -860h-140z" />
    <glyph glyph-name="uni2082" unicode="&#x2082;" horiz-adv-x="747" 
d="M-61 -150q42 206 321 361q15 8 58 32t62 35t51.5 35t48 42.5t28 46t12.5 57.5q0 56 -40 87.5t-101 31.5q-129 0 -191 -146l-131 39q36 101 124.5 163t205.5 62q118 0 195 -61.5t77 -165.5q0 -63 -20.5 -112t-74.5 -94.5t-89.5 -68t-120.5 -69.5q-25 -14 -37 -21
q-173 -99 -213 -172h449l-25 -116h-598z" />
    <glyph glyph-name="uni2083" unicode="&#x2083;" horiz-adv-x="747" 
d="M252 -205q-117 0 -197.5 58t-93.5 165l135 37q9 -70 53 -105.5t111 -35.5q86 0 133 50.5t47 109.5q0 58 -42.5 94.5t-121.5 36.5h-69l24 117h101q75 0 121.5 38t46.5 99q0 57 -42 88t-100 31q-125 0 -172 -123l-135 41q36 91 114.5 145.5t194.5 54.5q122 0 200.5 -61
t78.5 -166q0 -75 -41.5 -134.5t-118.5 -86.5q48 -28 74.5 -72.5t26.5 -97.5q0 -119 -95 -201t-233 -82z" />
    <glyph glyph-name="uni2084" unicode="&#x2084;" horiz-adv-x="753" 
d="M313 -184l41 194h-389l29 131l452 535h187l-117 -553h115l-25 -113h-114l-41 -194h-138zM129 123h250l84 395z" />
    <glyph glyph-name="uni2085" unicode="&#x2085;" horiz-adv-x="739" 
d="M246 -205q-107 0 -190 58t-97 167l135 33q7 -68 52.5 -103.5t111.5 -35.5q87 0 135.5 62.5t48.5 140.5q0 66 -41.5 101.5t-99.5 35.5q-72 0 -135 -57l-123 12l152 467h473l-27 -117h-354l-74 -217q60 29 125 29q106 0 176 -65t70 -175q0 -137 -96.5 -236.5t-241.5 -99.5z
" />
    <glyph glyph-name="uni2086" unicode="&#x2086;" horiz-adv-x="751" 
d="M276 -205q-83 0 -143.5 34t-90.5 92t-39.5 135t9.5 163l11 37q43 213 151 326.5t248 113.5q96 0 166 -40.5t96 -129.5l-135 -41q-13 42 -49 65t-88 23q-79 0 -142 -69t-96 -203q32 32 82 51t104 19q104 0 176 -67t72 -181q0 -133 -93 -230.5t-239 -97.5zM283 -86
q76 0 130 59t54 136q0 67 -41.5 103t-103.5 36q-82 0 -134.5 -54t-52.5 -135q0 -68 43 -106.5t105 -38.5z" />
    <glyph glyph-name="uni2087" unicode="&#x2087;" horiz-adv-x="686" 
d="M0 -184l485 743h-403l24 117h556l-21 -105l-479 -755h-162z" />
    <glyph glyph-name="uni2088" unicode="&#x2088;" horiz-adv-x="778" 
d="M289 -205q-83 0 -152.5 25.5t-115.5 81.5t-46 133q0 85 54.5 159t156.5 103q-82 55 -82 154q0 108 83.5 176.5t207.5 68.5q114 0 192.5 -57.5t78.5 -155.5q0 -75 -44 -132.5t-118 -84.5q117 -64 117 -188t-94.5 -203.5t-237.5 -79.5zM289 -90q81 0 135.5 48.5t54.5 123.5
q0 68 -50 104.5t-118 36.5q-83 0 -135.5 -50t-52.5 -122q0 -66 48 -103.5t118 -37.5zM367 332q70 0 115.5 41.5t45.5 99.5q0 55 -40 85t-97 30q-69 0 -112 -41t-43 -98q0 -56 37.5 -86.5t93.5 -30.5z" />
    <glyph glyph-name="uni2089" unicode="&#x2089;" horiz-adv-x="751" 
d="M229 -205q-210 0 -260 172l131 39q34 -88 142 -88q78 0 140 69t95 203q-72 -69 -186 -69q-106 0 -178 67t-72 181q0 132 93.5 229.5t238.5 97.5q83 0 144 -34t91.5 -92t39.5 -135t-11 -163l-8 -36q-43 -213 -152 -327t-248 -114zM330 244q82 0 133 53.5t51 134.5
q0 68 -42 107t-105 39q-77 0 -131 -58.5t-54 -134.5q0 -69 42 -105t106 -36z" />
    <glyph glyph-name="Euro" unicode="&#x20ac;" horiz-adv-x="1290" 
d="M743 -33q-222 0 -337 143.5t-115 393.5v2h-154l27 127h133q13 100 35 186h-129l28 127h140q38 109 92.5 200t126.5 164t166.5 114.5t201.5 41.5q160 0 264 -83t132 -232l-168 -45q-18 96 -78 151.5t-158 55.5q-67 0 -127.5 -29t-109 -80.5t-87.5 -115.5t-69 -142h535
l-29 -127h-547q-27 -106 -35 -186h543l-27 -127h-524q0 -179 73.5 -282t211.5 -103q191 0 289 223l167 -53q-58 -149 -187 -236.5t-284 -87.5z" />
    <glyph glyph-name="uni20B9" unicode="&#x20b9;" horiz-adv-x="1193" 
d="M670 0l-475 629l30 137h365q116 0 200 54t113 149h-635l27 127h620q-9 86 -74.5 136t-176.5 50h-328l31 152h938l-25 -127h-274q41 -38 63.5 -94t24.5 -117h139l-27 -127h-127q-36 -148 -158.5 -244t-308.5 -96h-202l485 -629h-225z" />
    <glyph glyph-name="uni20BA" unicode="&#x20ba;" horiz-adv-x="1200" 
d="M178 0l109 514l-205 -84l29 139l206 84l43 207l-204 -84l28 142l207 83l92 433h181l-74 -353l362 148l-30 -139l-363 -148l-43 -209l363 148l-31 -140l-363 -147l-92 -438h58q142 0 235 33t161.5 107t133.5 210l158 -49q-50 -112 -112.5 -195t-127 -132.5t-143.5 -79
t-152 -40t-162 -10.5h-264z" />
    <glyph glyph-name="uni20BD" unicode="&#x20bd;" horiz-adv-x="1253" 
d="M162 0l67 319h-186l27 127h188l39 185h-188l28 137h189l143 666h408q181 0 286 -96t105 -255q0 -122 -55 -224t-163.5 -165t-250.5 -63h-322l-39 -185h455l-27 -127h-456l-68 -319h-180zM506 768h260q81 0 144.5 25t101.5 67t58 94t20 111q0 102 -66.5 159.5t-185.5 57.5
h-222z" />
    <glyph glyph-name="uni20BF" unicode="&#x20bf;" horiz-adv-x="1208" 
d="M31 0l307 1434h209l37 182h133l-37 -182h137h27l37 182h135l-43 -207q101 -34 157 -109.5t56 -177.5q0 -143 -82.5 -244t-220.5 -135q97 -40 152 -120t55 -187q0 -169 -111.5 -290.5t-306.5 -141.5l-39 -186h-135l39 182h-164l-39 -182h-133l39 182h-209zM561 152
q165 0 257.5 77.5t92.5 219.5q0 103 -69.5 165t-184.5 62h-301l-110 -524h315zM696 827q141 0 224.5 70t83.5 193q0 89 -58 140.5t-155 51.5h-304l-98 -455h307z" />
    <glyph glyph-name="uni2116" unicode="&#x2116;" horiz-adv-x="2091" 
d="M63 0l308 1434h202l263 -662q156 -388 211 -545q42 255 108 555l139 652h185l-308 -1434h-198l-266 651q-22 56 -213 553q-44 -271 -109 -565l-137 -639h-185zM1493 610l25 115h581l-24 -115h-582zM1862 815q-127 0 -204 75t-77 197q0 151 99 255t247 104q127 0 205 -75
t78 -195q0 -151 -100 -256t-248 -105zM1868 932q50 0 90.5 23t64 59.5t36 77t12.5 79.5q0 74 -42 116t-106 42q-50 0 -90.5 -23t-64 -59.5t-36 -77t-12.5 -79.5q0 -74 41.5 -116t106.5 -42z" />
    <glyph glyph-name="uni2117" unicode="&#x2117;" horiz-adv-x="1730" 
d="M915 -27q-207 0 -377.5 97t-268 267.5t-97.5 379.5q0 156 57.5 294.5t156 236.5t236.5 155t293 57q207 0 377.5 -96.5t268.5 -267t98 -379.5t-98 -379.5t-268.5 -267.5t-377.5 -97zM915 82q177 0 319 83.5t221 229t79 322.5t-79 322.5t-221 229t-319 83.5t-319 -84
t-220.5 -229t-78.5 -322t78.5 -322t220.5 -229t319 -84zM647 299v836h332q124 0 199 -67.5t75 -186.5t-75 -186.5t-199 -67.5h-201v-328h-131zM965 735q73 0 115 37.5t42 104.5q0 68 -42 104.5t-115 36.5h-187v-283h187z" />
    <glyph glyph-name="trademark" unicode="&#x2122;" horiz-adv-x="1929" 
d="M936 651l168 783h174l129 -631l387 631h188l-167 -783h-121l133 625l-389 -625h-115l-133 617l-131 -617h-123zM383 651l143 672h-274l24 111h678l-24 -111h-273l-143 -672h-131z" />
    <glyph glyph-name="uni2126" unicode="&#x2126;" horiz-adv-x="1529" 
d="M-18 0l34 158h301q-87 69 -137.5 187.5t-50.5 266.5q0 127 34.5 251.5t102.5 232.5t161 191t217.5 131t264.5 48q142 0 257.5 -47.5t190.5 -130.5t115.5 -194t40.5 -238q0 -132 -44.5 -263t-136.5 -248t-218 -187h262l-35 -158h-540l33 160q124 46 220 123.5t152.5 170.5
t85.5 191.5t29 198.5q0 131 -47.5 233t-145 162.5t-233.5 60.5q-112 0 -208.5 -44.5t-163 -117t-114 -165t-70 -189t-22.5 -188.5q0 -154 63.5 -269t178.5 -167l-33 -160h-544z" />
    <glyph glyph-name="uni2154" unicode="&#x2154;" horiz-adv-x="1998" 
d="M100 608q42 205 322 361q15 8 58 32t62 35t51.5 35t48 42.5t28 46t12.5 57.5q0 56 -40 87t-101 31q-130 0 -191 -145l-131 39q36 101 124.5 163t205.5 62q118 0 195 -61.5t77 -165.5q0 -63 -20.5 -112t-74.5 -94.5t-89.5 -68t-120.5 -69.5q-25 -14 -37 -21
q-173 -99 -213 -172h449l-25 -117h-598zM324 0l1294 1434h172l-1292 -1434h-174zM1542 -20q-117 0 -197.5 58t-93.5 165l135 37q9 -70 53 -106t111 -36q86 0 133.5 50.5t47.5 109.5q0 58 -42.5 94.5t-121.5 36.5h-70l25 117h100q75 0 121.5 38t46.5 99q0 57 -41.5 88
t-99.5 31q-125 0 -172 -123l-136 41q36 91 115 146t195 55q121 0 199.5 -61.5t78.5 -166.5q0 -75 -41.5 -134.5t-118.5 -86.5q48 -28 74.5 -72.5t26.5 -97.5q0 -119 -95 -200.5t-233 -81.5z" />
    <glyph glyph-name="oneeighth" unicode="&#x215b;" horiz-adv-x="1761" 
d="M262 573l133 621h-172l21 98q82 1 147.5 40.5t95.5 101.5h97l-183 -861h-139zM84 0l1294 1434h172l-1292 -1434h-174zM1311 -27q-83 0 -152.5 25.5t-115.5 81.5t-46 133q0 85 54.5 159t156.5 103q-82 55 -82 154q0 108 83.5 176.5t207.5 68.5q114 0 192.5 -57t78.5 -155
q0 -75 -44.5 -133t-117.5 -85q116 -63 116 -188q0 -124 -94 -203.5t-237 -79.5zM1311 88q81 0 135.5 48.5t54.5 123.5q0 68 -50 104.5t-118 36.5q-83 0 -135.5 -50t-52.5 -122q0 -66 48 -103.5t118 -37.5zM1389 510q70 0 115.5 41.5t45.5 99.5q0 55 -40 85t-97 30
q-69 0 -112.5 -41.5t-43.5 -97.5t38 -86.5t94 -30.5z" />
    <glyph glyph-name="threeeighths" unicode="&#x215c;" horiz-adv-x="1966" 
d="M414 553q-117 0 -197.5 58t-93.5 165l135 37q9 -70 53 -105.5t111 -35.5q86 0 133 50t47 109q0 58 -42.5 95t-121.5 37h-69l24 116h101q75 0 121.5 38t46.5 100q0 57 -41.5 87.5t-100.5 30.5q-125 0 -172 -123l-135 41q36 91 114.5 146t194.5 55q122 0 200.5 -61
t78.5 -166q0 -75 -41.5 -134.5t-118.5 -86.5q100 -59 100 -170q0 -119 -94.5 -201t-232.5 -82zM289 0l1294 1434h172l-1292 -1434h-174zM1516 -27q-83 0 -152.5 25.5t-115.5 81.5t-46 133q0 85 54.5 159t156.5 103q-82 55 -82 154q0 108 83.5 176.5t207.5 68.5
q114 0 192 -57t78 -155q0 -75 -44 -133t-117 -85q116 -63 116 -188q0 -124 -94 -203.5t-237 -79.5zM1516 88q81 0 135.5 48.5t54.5 123.5q0 68 -50 104.5t-118 36.5q-83 0 -135.5 -50t-52.5 -122q0 -66 48 -103.5t118 -37.5zM1593 510q71 0 116.5 41.5t45.5 99.5
q0 55 -40 85t-97 30q-69 0 -112.5 -41.5t-43.5 -97.5t37.5 -86.5t93.5 -30.5z" />
    <glyph glyph-name="fiveeighths" unicode="&#x215d;" horiz-adv-x="1970" 
d="M408 553q-107 0 -190 58t-97 167l135 33q7 -68 52.5 -103.5t111.5 -35.5q87 0 135.5 62t48.5 140q0 66 -42 102t-99 36q-71 0 -135 -58l-123 13l151 467h473l-26 -117h-354l-74 -217q58 28 125 28q106 0 175.5 -64.5t69.5 -174.5q0 -137 -96 -236.5t-241 -99.5zM293 0
l1294 1434h172l-1292 -1434h-174zM1520 -27q-83 0 -152.5 25.5t-115.5 81.5t-46 133q0 85 54.5 159t156.5 103q-82 55 -82 154q0 108 83.5 176.5t207.5 68.5q114 0 192 -57t78 -155q0 -75 -44 -133t-117 -85q116 -63 116 -188q0 -124 -94 -203.5t-237 -79.5zM1520 88
q81 0 135.5 48.5t54.5 123.5q0 68 -50 104.5t-118 36.5q-83 0 -135.5 -50t-52.5 -122q0 -66 48 -103.5t118 -37.5zM1597 510q71 0 116.5 41.5t45.5 99.5q0 55 -40 85t-97 30q-69 0 -112.5 -41.5t-43.5 -97.5t37.5 -86.5t93.5 -30.5z" />
    <glyph glyph-name="seveneighths" unicode="&#x215e;" horiz-adv-x="1792" 
d="M162 573l485 744h-403l24 117h555l-20 -105l-479 -756h-162zM115 0l1294 1434h172l-1292 -1434h-174zM1341 -27q-83 0 -152.5 25.5t-115 81t-45.5 133.5q0 85 54.5 159t156.5 103q-82 55 -82 154q0 108 83.5 176.5t207.5 68.5q114 0 192 -57t78 -155q0 -75 -44.5 -133
t-117.5 -85q117 -64 117 -188t-94.5 -203.5t-237.5 -79.5zM1341 88q81 0 136 48.5t55 123.5q0 68 -50 104.5t-118 36.5q-83 0 -135.5 -50t-52.5 -122q0 -66 47.5 -103.5t117.5 -37.5zM1419 510q71 0 116.5 41.5t45.5 99.5q0 55 -40 85t-97 30q-69 0 -112.5 -41.5
t-43.5 -97.5t37.5 -86.5t93.5 -30.5z" />
    <glyph glyph-name="arrowleft" unicode="&#x2190;" horiz-adv-x="1863" 
d="M776 -4l-688 688l688 688l111 -106l-512 -506h1409v-150h-1411l514 -506z" />
    <glyph glyph-name="arrowup" unicode="&#x2191;" horiz-adv-x="1468" 
d="M274 784l-106 107l657 655l652 -655l-105 -107l-465 471v-1255h-164v1257z" />
    <glyph glyph-name="arrowright" unicode="&#x2192;" horiz-adv-x="1863" 
d="M1174 -4l-109 108l512 506h-1411v150h1409l-510 506l109 106l688 -688z" />
    <glyph glyph-name="arrowdown" unicode="&#x2193;" horiz-adv-x="1468" 
d="M750 -113l-658 656l107 106l469 -473v1258h163v-1256l465 471l105 -106z" />
    <glyph glyph-name="uni2196" unicode="&#x2196;" horiz-adv-x="1478" 
d="M1339 158l-1015 1016v-728h-152v988h987v-148h-731l1020 -1022z" />
    <glyph glyph-name="uni2197" unicode="&#x2197;" horiz-adv-x="1478" 
d="M170 158l-109 106l1022 1022h-735v148h989v-988h-149v730z" />
    <glyph glyph-name="uni2198" unicode="&#x2198;" horiz-adv-x="1478" 
d="M367 0v147h735l-1022 1022l108 107l1018 -1018v729h150v-987h-989z" />
    <glyph glyph-name="uni2199" unicode="&#x2199;" horiz-adv-x="1478" 
d="M160 0v987h151v-727l1016 1016l109 -107l-1020 -1022h731v-147h-987z" />
    <glyph glyph-name="partialdiff" unicode="&#x2202;" horiz-adv-x="1128" 
d="M500 -33q-196 0 -314 122.5t-118 313.5q0 143 63 270t182 207.5t265 80.5q129 0 222.5 -62t129.5 -176q6 110 -16 202.5t-76.5 172.5t-153.5 138t-238 87l68 139q288 -58 435 -233.5t147 -444.5q0 -111 -22 -223.5t-70 -219.5t-116.5 -190t-169 -133.5t-218.5 -50.5z
M506 123q99 0 181.5 58t127.5 148.5t45 188.5q0 129 -78 210t-194 81q-79 0 -146 -37t-108.5 -95.5t-64.5 -128t-23 -138.5q0 -133 75 -210t185 -77z" />
    <glyph glyph-name="uni2206" unicode="&#x2206;" horiz-adv-x="1353" 
d="M-70 0l824 1434h247l218 -1434h-1289zM217 158h791l-80 553q-7 46 -23.5 156t-23.5 160.5t-16.5 127t-14.5 137.5q-88 -171 -322 -583z" />
    <glyph glyph-name="product" unicode="&#x220f;" horiz-adv-x="1452" 
d="M16 -221l355 1655h1118l-354 -1655h-191l322 1497h-740l-321 -1497h-189z" />
    <glyph glyph-name="summation" unicode="&#x2211;" horiz-adv-x="1206" 
d="M1292 1434l-32 -158h-777l375 -668l-647 -680h817l-35 -157h-1044l33 149l665 707l-368 659l30 148h983z" />
    <glyph glyph-name="minus" unicode="&#x2212;" horiz-adv-x="1210" 
d="M1176 702l-31 -151h-1049l31 151h1049z" />
    <glyph glyph-name="radical" unicode="&#x221a;" horiz-adv-x="1232" 
d="M317 0l-155 995h184l125 -831l709 1270h204l-819 -1434h-248z" />
    <glyph glyph-name="infinity" unicode="&#x221e;" horiz-adv-x="2084" 
d="M567 227q-168 0 -281.5 107t-113.5 266q0 116 60.5 215t171 159t247.5 60q143 0 248.5 -70.5t190.5 -203.5q248 274 491 274q168 0 281.5 -106.5t113.5 -265.5q0 -116 -60 -215.5t-170.5 -159.5t-248.5 -60q-145 0 -249.5 72t-188.5 207q-247 -279 -492 -279zM575 379
q92 0 189 62t221 196q-37 59 -68 98t-73.5 76t-94.5 55.5t-116 18.5q-127 0 -212 -81.5t-85 -203.5q0 -104 72.5 -162.5t166.5 -58.5zM1516 377q127 0 211.5 81.5t84.5 203.5q0 104 -72.5 162.5t-168.5 58.5q-90 0 -186.5 -62t-221.5 -194q35 -58 66.5 -98.5t74 -77.5
t95.5 -55.5t117 -18.5z" />
    <glyph glyph-name="integral" unicode="&#x222b;" horiz-adv-x="1212" 
d="M188 -391q-91 0 -163 31l28 145q75 -35 131 -35q67 0 108 39t60 123l273 1266q29 147 118.5 215.5t221.5 68.5q98 0 178 -39l-31 -147q-77 45 -143 45q-69 0 -111.5 -39.5t-60.5 -126.5l-273 -1266q-61 -280 -336 -280z" />
    <glyph glyph-name="approxequal" unicode="&#x2248;" horiz-adv-x="1218" 
d="M862 690q-59 0 -126.5 28t-134.5 55.5t-126 27.5q-57 0 -104 -22t-121 -81l-68 101q97 82 170 114.5t154 32.5q65 0 133.5 -28t132.5 -56t117 -28q54 0 97 19.5t126 82.5l68 -100q-104 -88 -168.5 -117t-149.5 -29zM776 287q-59 0 -126 27.5l-134 55t-127 27.5
q-55 0 -102.5 -22t-122.5 -82l-68 102q97 82 170 115t154 33q52 0 107 -17.5t94 -39t89 -39t93 -17.5q54 0 97 19.5t126 82.5l68 -100q-104 -87 -168.5 -116t-149.5 -29z" />
    <glyph glyph-name="notequal" unicode="&#x2260;" horiz-adv-x="1210" 
d="M254 115l135 233h-338l35 152h391l146 252h-486l35 151h539l135 234h158l-136 -234h353l-35 -151h-406l-147 -252h502l-35 -152h-555l-135 -233h-156z" />
    <glyph glyph-name="lessequal" unicode="&#x2264;" horiz-adv-x="1228" 
d="M1042 221l-890 365l34 157l1047 365l-39 -172l-832 -281l713 -278zM1067 152l-31 -152h-1048l30 152h1049z" />
    <glyph glyph-name="greaterequal" unicode="&#x2265;" horiz-adv-x="1228" 
d="M72 221l39 172l831 281l-713 278l33 156l891 -365l-35 -157zM1069 152l-31 -152h-1048l30 152h1049z" />
    <glyph glyph-name="uni2300" unicode="&#x2300;" horiz-adv-x="1384" 
d="M436 -45l-125 53l135 268q-108 72 -171.5 187.5t-63.5 253.5q0 147 71.5 268.5t193 189.5t265.5 68q85 0 174 -29l132 265l124 -54l-135 -268q109 -72 172.5 -187t63.5 -253q0 -147 -72 -268.5t-193.5 -190t-265.5 -68.5q-85 0 -174 29zM741 338q153 0 263 111t110 268
q0 91 -39 169.5t-108 131.5l-332 -664q56 -16 106 -16zM369 717q0 -91 39 -169.5t108 -131.5l332 663q-60 17 -107 17q-153 0 -262.5 -110.5t-109.5 -268.5z" />
    <glyph glyph-name="lozenge" unicode="&#x25ca;" horiz-adv-x="1228" 
d="M406 0l-283 715l590 719h209l282 -719l-590 -715h-208zM532 143l486 590l-219 557l-490 -594z" />
    <glyph glyph-name="fi" unicode="&#xfb01;" horiz-adv-x="1093" 
d="M354 1171q29 144 118 214.5t216 70.5q86 0 164 -39l-33 -145q-68 41 -131 41q-64 0 -105 -39t-61 -127l-39 -182h236l-29 -134h-235l-179 -831h-176l181 831h-168l28 134h168zM682 0l209 965h176l-209 -965h-176zM926 1159l39 189h188l-39 -189h-188z" />
    <glyph glyph-name="fl" unicode="&#xfb02;" horiz-adv-x="1099" 
d="M354 1171q29 144 118 214.5t216 70.5q86 0 164 -39l-33 -145q-68 41 -131 41q-64 0 -105 -39t-61 -127l-39 -182h236l-29 -134h-235l-179 -831h-176l181 831h-168l28 134h168zM686 0l305 1434h176l-305 -1434h-176z" />
    <glyph glyph-name="i.loclTRK" horiz-adv-x="438" 
d="M27 0l209 965h176l-209 -965h-176zM270 1159l39 189h189l-39 -189h-189z" />
    <glyph glyph-name="zero.tf" horiz-adv-x="1208" 
d="M547 -33q-106 0 -186 37.5t-129.5 107t-74 162.5t-24.5 209q0 80 12 169.5t37 185t61.5 185.5t89.5 171t115 141t144 95.5t172 35.5q106 0 186 -37.5t129.5 -107t74 -162.5t24.5 -209q0 -94 -16.5 -200t-49 -217t-86 -211.5t-121 -180.5t-160.5 -127t-198 -47zM555 123
q86 0 160.5 60t124 152.5t85.5 205.5t52 217.5t16 189.5q0 73 -12 135t-38.5 115t-74 83t-112.5 30q-85 0 -159.5 -60t-124.5 -153t-86 -206t-52.5 -217.5t-16.5 -189.5q0 -73 12.5 -135t39 -114.5t74 -82.5t112.5 -30z" />
    <glyph glyph-name="zero.zero" horiz-adv-x="1148" 
d="M516 -33q-208 0 -311 139.5t-103 376.5q0 80 12 169.5t37 185t61.5 185.5t89.5 171t115 141t144 95.5t172 35.5q208 0 311 -139.5t103 -376.5q0 -94 -16.5 -200t-49 -217t-86 -211.5t-121 -180.5t-160.5 -127t-198 -47zM524 123q86 0 160.5 60t124.5 152.5t86 205.5
t52 217.5t16 189.5q0 58 -9 113l-612 -834q61 -104 182 -104zM287 485q0 -65 8 -114l614 833q-66 107 -184 107q-85 0 -159.5 -60t-124 -153t-85.5 -206t-52.5 -217.5t-16.5 -189.5z" />
    <glyph glyph-name="one.tf" horiz-adv-x="1208" 
d="M119 0l31 141h352l227 1065l-352 -217l-64 125l508 320h137l-274 -1293h332l-31 -141h-866z" />
    <glyph glyph-name="two.tf" horiz-adv-x="1208" 
d="M14 49q66 313 508 584q28 16 79 45.5t80.5 47t74 46.5t71 51.5t58 55.5t48.5 64t28.5 71.5t11.5 83.5q0 102 -72.5 157.5t-175.5 55.5q-107 0 -189 -58t-143 -188l-170 51q65 160 201.5 255t306.5 95q66 0 127.5 -13.5t115 -42.5t93.5 -70t63 -99t23 -127q0 -84 -26 -156
t-65 -124t-107.5 -107t-129 -93.5t-153.5 -94.5l-66 -39q-306 -186 -373 -348h736l-31 -152h-934z" />
    <glyph glyph-name="three.tf" horiz-adv-x="1208" 
d="M487 -33q-172 0 -301 94t-153 261l170 49q19 -123 100 -185.5t195 -62.5q139 0 233 92t94 223q0 107 -74.5 173.5t-215.5 66.5h-80l30 149h166q112 0 194.5 82t82.5 191q0 100 -72.5 155.5t-173.5 55.5q-205 0 -309 -213l-170 53q64 144 192.5 229.5t290.5 85.5
q180 0 302 -98t122 -258q0 -124 -76 -229t-207 -148q86 -43 133.5 -118.5t47.5 -172.5q0 -92 -39.5 -178t-107 -152t-165.5 -105.5t-209 -39.5z" />
    <glyph glyph-name="four.tf" horiz-adv-x="1208" 
d="M637 0l74 336h-645l34 166l783 932h237l-202 -949h192l-31 -149h-192l-74 -336h-176zM281 485h460l156 736z" />
    <glyph glyph-name="five.tf" horiz-adv-x="1208" 
d="M502 -33q-110 0 -204 37.5t-162 120t-83 197.5l174 47q15 -114 89.5 -180t197.5 -66q101 0 181.5 57t122.5 145.5t42 188.5q0 120 -70 189t-178 69q-139 0 -260 -115l-155 17l243 760h742l-31 -152h-594l-137 -426q116 70 246 70q161 0 268.5 -108.5t107.5 -289.5
q0 -107 -39 -208t-108 -179.5t-171.5 -126t-221.5 -47.5z" />
    <glyph glyph-name="six.tf" horiz-adv-x="1208" 
d="M569 -33q-107 0 -190 36.5t-133 100.5t-78.5 152t-26.5 191.5t23 218.5l12 59q73 363 244.5 552t400.5 189q143 0 248.5 -66.5t147.5 -193.5l-166 -57q-28 81 -93 120.5t-147 39.5q-149 0 -265.5 -132t-178.5 -403q57 70 145 109t190 39q109 0 198 -44.5t144.5 -137
t55.5 -218.5q0 -146 -67.5 -273t-190.5 -204.5t-273 -77.5zM578 123q102 0 182 60.5t119 148t39 180.5q0 121 -74 187.5t-185 66.5q-63 0 -124 -24t-112 -68.5t-82.5 -115t-31.5 -155.5q0 -132 78.5 -206t190.5 -74z" />
    <glyph glyph-name="seven.tf" horiz-adv-x="1208" 
d="M156 0l817 1282h-688l30 152h881l-27 -131l-809 -1303h-204z" />
    <glyph glyph-name="eight.tf" horiz-adv-x="1208" 
d="M565 -33q-99 0 -186 25t-154.5 72.5t-107 122.5t-39.5 169q0 160 97.5 280t262.5 163q-139 94 -139 260t128.5 286.5t328.5 120.5q113 0 206 -39t151 -119t58 -188q0 -128 -73.5 -225.5t-196.5 -142.5q193 -106 193 -320q0 -198 -149.5 -331.5t-379.5 -133.5zM569 119
q147 0 244.5 89t97.5 226q0 127 -86 195.5t-217 68.5q-154 0 -249 -96t-95 -225q0 -122 86.5 -190t218.5 -68zM713 842q121 0 202.5 79.5t81.5 188.5q0 97 -70 154t-171 57q-124 0 -204.5 -76t-80.5 -186q0 -98 70 -157.5t172 -59.5z" />
    <glyph glyph-name="nine.tf" horiz-adv-x="1208" 
d="M739 1466q89 0 162 -25.5t123 -71.5t84 -110t48 -142t11.5 -166t-22.5 -183l-12 -59q-73 -363 -245 -552.5t-401 -189.5q-142 0 -247.5 66.5t-147.5 193.5l166 58q28 -81 93 -120.5t147 -39.5q149 0 265.5 131.5t178.5 402.5q-57 -70 -145.5 -108.5t-190.5 -38.5
q-109 0 -197.5 44t-144 136.5t-55.5 218.5q0 109 40 210t109 177.5t168.5 122t212.5 45.5zM731 1311q-102 0 -182 -60.5t-119 -148t-39 -180.5q0 -121 73.5 -187.5t184.5 -66.5q63 0 124 24t112 68t82.5 114.5t31.5 155.5q0 132 -78 206.5t-190 74.5z" />
    <glyph glyph-name="zero.dnom" horiz-adv-x="759" 
d="M303 -20q-130 0 -197 86t-67 235q0 70 13.5 146t45 154.5t75.5 140t111.5 100.5t147.5 39q130 0 197 -86t67 -236q0 -70 -13.5 -146t-45 -154t-75.5 -139.5t-111.5 -100.5t-147.5 -39zM311 98q50 0 92 35t69.5 88t46.5 117.5t27.5 122t8.5 102.5q0 199 -131 199
q-49 0 -91 -35t-69.5 -88t-47 -117.5t-28 -122t-8.5 -102.5q0 -90 31.5 -144.5t99.5 -54.5z" />
    <glyph glyph-name="one.dnom" horiz-adv-x="548" 
d="M139 0l133 621h-172l21 98q82 1 148 40t96 101h96l-182 -860h-140z" />
    <glyph glyph-name="two.dnom" horiz-adv-x="747" 
d="M-23 35q41 204 322 360q15 8 58 32t62 35t51.5 35t48 42.5t28 46t12.5 57.5q0 56 -40 87.5t-101 31.5q-129 0 -191 -146l-131 39q36 101 124.5 163.5t205.5 62.5q118 0 195 -62t77 -166q0 -62 -21 -111.5t-73.5 -94t-89 -67.5t-119.5 -69q-26 -15 -39 -22
q-173 -99 -213 -172h449l-25 -117h-598z" />
    <glyph glyph-name="three.dnom" horiz-adv-x="747" 
d="M291 -20q-117 0 -197.5 58t-93.5 165l135 37q9 -70 53 -106t111 -36q86 0 133 50.5t47 109.5q0 58 -42.5 94.5t-121.5 36.5h-69l24 117h101q75 0 121.5 38t46.5 99q0 57 -42 88t-100 31q-125 0 -172 -123l-135 41q36 91 114.5 146t194.5 55q122 0 200.5 -61.5
t78.5 -166.5q0 -75 -41.5 -134.5t-118.5 -86.5q100 -59 100 -170q0 -119 -94.5 -200.5t-232.5 -81.5z" />
    <glyph glyph-name="four.dnom" horiz-adv-x="753" 
d="M352 0l41 195h-389l29 131l452 534h187l-117 -553h115l-25 -112h-115l-41 -195h-137zM168 307h250l84 395z" />
    <glyph glyph-name="five.dnom" horiz-adv-x="739" 
d="M285 -20q-107 0 -190 58t-97 167l135 33q7 -68 52.5 -104t111.5 -36q87 0 135.5 62.5t48.5 140.5q0 66 -41.5 101.5t-99.5 35.5q-72 0 -135 -57l-123 12l151 467h474l-27 -117h-354l-74 -217q60 29 125 29q106 0 176 -65t70 -175q0 -137 -96.5 -236t-241.5 -99z" />
    <glyph glyph-name="six.dnom" horiz-adv-x="751" 
d="M315 -20q-83 0 -143.5 34t-90.5 91.5t-39.5 134.5t9.5 163l10 37q43 213 151.5 327t248.5 114q96 0 166 -40.5t96 -129.5l-135 -41q-13 42 -49 65t-88 23q-79 0 -142 -69.5t-96 -203.5q32 32 82 51t104 19q104 0 176 -67t72 -181q0 -133 -93 -230t-239 -97zM322 98
q76 0 130 59t54 136q0 67 -42 103t-104 36q-82 0 -134 -53.5t-52 -134.5q0 -68 43 -107t105 -39z" />
    <glyph glyph-name="seven.dnom" horiz-adv-x="686" 
d="M39 0l485 743h-403l24 117h555l-20 -104l-479 -756h-162z" />
    <glyph glyph-name="eight.dnom" horiz-adv-x="778" 
d="M328 -27q-83 0 -152.5 25.5t-115.5 81.5t-46 133q0 85 54.5 159t156.5 103q-82 55 -82 154q0 108 83.5 176.5t207.5 68.5q114 0 192.5 -57t78.5 -155q0 -75 -44.5 -133t-117.5 -85q116 -63 116 -188q0 -124 -94 -203.5t-237 -79.5zM328 88q81 0 135.5 48.5t54.5 123.5
q0 68 -50 104.5t-118 36.5q-83 0 -135.5 -50t-52.5 -122q0 -66 48 -103.5t118 -37.5zM406 510q70 0 115.5 41.5t45.5 99.5q0 55 -40 85t-97 30q-69 0 -112.5 -41.5t-43.5 -97.5t38 -86.5t94 -30.5z" />
    <glyph glyph-name="nine.dnom" horiz-adv-x="751" 
d="M268 -20q-210 0 -260 172l131 38q34 -88 142 -88q78 0 140 69.5t95 203.5q-73 -70 -186 -70q-106 0 -178 67t-72 181q0 132 93.5 230t238.5 98q83 0 144 -34t91.5 -92t39.5 -135t-11 -163l-8 -37q-43 -212 -152 -326t-248 -114zM369 428q82 0 133 53.5t51 134.5
q0 68 -42 107t-105 39q-77 0 -131 -58.5t-54 -134.5q0 -69 42 -105t106 -36z" />
    <glyph glyph-name="zero.numr" horiz-adv-x="759" 
d="M426 553q-130 0 -197 86t-67 235q0 70 13.5 146t45 154.5t75.5 140t111.5 100.5t147.5 39q130 0 197 -85.5t67 -235.5q0 -70 -13.5 -146t-45 -154.5t-75.5 -140t-111.5 -100.5t-147.5 -39zM434 672q50 0 92 35t69.5 88t46.5 117.5t27.5 122t8.5 102.5q0 198 -131 198
q-49 0 -91 -35t-69.5 -88t-47 -117.5t-28 -122t-8.5 -102.5q0 -90 31.5 -144t99.5 -54z" />
    <glyph glyph-name="one.numr" horiz-adv-x="548" 
d="M262 573l133 621h-172l21 98q82 1 147.5 40.5t95.5 101.5h97l-183 -861h-139z" />
    <glyph glyph-name="two.numr" horiz-adv-x="747" 
d="M100 608q42 205 322 361q15 8 58 32t62 35t51.5 35t48 42.5t28 46t12.5 57.5q0 56 -40 87t-101 31q-130 0 -191 -145l-131 39q36 101 124.5 163t205.5 62q118 0 195 -61.5t77 -165.5q0 -63 -20.5 -112t-74.5 -94.5t-89.5 -68t-120.5 -69.5q-25 -14 -37 -21
q-173 -99 -213 -172h449l-25 -117h-598z" />
    <glyph glyph-name="three.numr" horiz-adv-x="747" 
d="M414 553q-117 0 -197.5 58t-93.5 165l135 37q9 -70 53 -105.5t111 -35.5q86 0 133 50t47 109q0 58 -42.5 95t-121.5 37h-69l24 116h101q75 0 121.5 38t46.5 100q0 57 -41.5 87.5t-100.5 30.5q-125 0 -172 -123l-135 41q36 91 114.5 146t194.5 55q122 0 200.5 -61
t78.5 -166q0 -75 -41.5 -134.5t-118.5 -86.5q100 -59 100 -170q0 -119 -94.5 -201t-232.5 -82z" />
    <glyph glyph-name="four.numr" horiz-adv-x="753" 
d="M475 573l41 195h-389l29 131l452 535h187l-117 -553h115l-25 -113h-115l-41 -195h-137zM291 881h250l84 395z" />
    <glyph glyph-name="five.numr" horiz-adv-x="739" 
d="M408 553q-107 0 -190 58t-97 167l135 33q7 -68 52.5 -103.5t111.5 -35.5q87 0 135.5 62t48.5 140q0 66 -42 102t-99 36q-71 0 -135 -58l-123 13l151 467h473l-26 -117h-354l-74 -217q58 28 125 28q106 0 175.5 -64.5t69.5 -174.5q0 -137 -96 -236.5t-241 -99.5z" />
    <glyph glyph-name="six.numr" horiz-adv-x="751" 
d="M438 553q-83 0 -143.5 34t-90.5 92t-39.5 135t9.5 163l10 37q43 213 151.5 326.5t248.5 113.5q96 0 166 -40.5t96 -129.5l-135 -41q-13 42 -49.5 65t-88.5 23q-79 0 -141.5 -69t-95.5 -203q32 32 82 50.5t104 18.5q104 0 176 -66.5t72 -180.5q0 -133 -93 -230.5
t-239 -97.5zM444 672q77 0 131 58.5t54 135.5q0 67 -42 103.5t-104 36.5q-82 0 -134 -54t-52 -135q0 -68 42.5 -106.5t104.5 -38.5z" />
    <glyph glyph-name="seven.numr" horiz-adv-x="686" 
d="M162 573l485 744h-403l24 117h555l-20 -105l-479 -756h-162z" />
    <glyph glyph-name="eight.numr" horiz-adv-x="778" 
d="M451 553q-83 0 -152.5 25.5t-115.5 81.5t-46 133q0 85 54.5 159t156.5 103q-82 55 -82 153q0 109 83.5 177.5t207.5 68.5q114 0 192 -57.5t78 -155.5q0 -75 -44 -132.5t-117 -84.5q116 -63 116 -188q0 -124 -94 -203.5t-237 -79.5zM451 668q81 0 135.5 48.5t54.5 123.5
q0 68 -50 104.5t-118 36.5q-83 0 -135.5 -50t-52.5 -122q0 -66 48 -103.5t118 -37.5zM528 1090q71 0 116.5 41.5t45.5 99.5q0 55 -40 85t-97 30q-69 0 -112.5 -41.5t-43.5 -98.5q0 -56 37.5 -86t93.5 -30z" />
    <glyph glyph-name="nine.numr" horiz-adv-x="751" 
d="M391 553q-210 0 -260 172l131 39q34 -88 141 -88q78 0 140.5 69t95.5 203q-72 -69 -186 -69q-106 0 -178 66.5t-72 180.5q0 132 93.5 230t238.5 98q83 0 144 -34t91.5 -92t39.5 -135t-11 -163l-8 -37q-43 -212 -152 -326t-248 -114zM492 1001q82 0 133 54t51 135
q0 68 -42.5 106.5t-105.5 38.5q-77 0 -130.5 -58t-53.5 -134q0 -69 42 -105.5t106 -36.5z" />
    <glyph glyph-name="uni030C.alt" 
d="M250 1032l147 402h185l-209 -402h-123z" />
    <glyph glyph-name="uni0328.alt" 
d="M168 -422q-79 0 -133.5 40t-54.5 118q0 53 23.5 107t79 116t86 92t104.5 96q9 9 14 13l59 -47q-10 -11 -53 -57.5t-65.5 -73t-54 -68.5t-46 -76.5t-14.5 -64.5q0 -80 112 -80q13 0 27 2l-25 -111q-27 -6 -59 -6z" />
    </font>
</defs>
</svg>
